<svg width="108" height="45" viewBox="0 0 108 45" fill="none" xmlns="http://www.w3.org/2000/svg">
<g clip-path="url(#clip0_353_2705)">
<path d="M45.9048 22.7857C45.9048 20.0857 45.3728 17.5097 44.4421 15.119C44.1941 22.983 35.8648 29.0737 30.9741 33.1044H43.2168C44.9288 30.0257 45.9048 26.5164 45.9048 22.7857ZM37.0541 5.46836C33.1795 2.57102 28.3195 0.831024 23.0248 0.831024C10.3901 0.831024 0.147461 10.6604 0.147461 22.7857C0.147461 34.911 10.3901 44.7404 23.0248 44.7404C28.8128 44.7404 34.0821 42.6644 38.1088 39.2644H21.5448L21.4955 34.595C31.4755 26.2697 37.5941 20.639 37.5941 15.2004C37.5941 13.179 36.7915 10.6284 33.1821 10.6284C30.3235 10.6284 27.5648 12.2177 28.0648 18.8577H22.2488C20.7928 11.159 25.1568 5.04436 33.4821 5.04436C34.7701 5.04436 35.9661 5.19369 37.0541 5.46836Z" fill="#AFCA0B"/>
<path d="M67.1262 16.0057H72.5382C72.7222 12.055 71.3356 5.79636 62.4089 5.79636C55.8409 5.79636 51.0742 9.56969 51.0742 17.4257C51.0742 18.491 51.1209 23.995 51.1209 27.4137C51.1209 35.935 57.2742 37.8004 62.4542 37.8004C65.5542 37.8004 70.0396 37.1337 72.1222 34.959V21.3764H61.9462V26.3044H66.4796V32.295C63.0556 33.4044 56.8116 33.8497 56.8116 26.3044V17.4257C56.8116 12.1444 59.3556 10.323 62.1756 10.323C65.0916 10.323 67.1262 11.7444 67.1262 16.0057ZM107.378 29.1897C107.612 17.027 93.0876 21.0657 93.2262 14.2737C93.2716 11.8777 94.8916 10.323 97.5276 10.323C100.348 10.323 102.014 11.9217 101.966 16.095H107.286C107.426 12.3204 106.502 5.88436 97.7142 5.88436C92.2556 5.88436 87.7676 8.46036 87.6756 14.1857C87.4436 25.859 102.06 22.043 101.828 29.099C101.736 31.9844 99.5622 33.271 97.1102 33.271C94.2436 33.271 91.9302 31.6737 92.3929 26.8804H87.0262C86.4262 33.227 89.3409 37.7564 97.0649 37.7564C103.586 37.7564 107.286 34.2924 107.378 29.1897ZM82.9449 37.355H77.4862V6.28436H82.9449V37.355ZM82.9449 37.355H77.4862V6.28436H82.9449V37.355Z" fill="#3C3C3B"/>
</g>
<defs>
<clipPath id="clip0_353_2705">
<rect width="107.233" height="43.9093" fill="white" transform="translate(0.147461 0.831055)"/>
</clipPath>
</defs>
</svg>
