<svg width="50" height="51" viewBox="0 0 50 51" fill="none" xmlns="http://www.w3.org/2000/svg">
<rect y="0.304688" width="50" height="50" rx="5" fill="#1D252B"/>
<g clip-path="url(#clip0_207_461)">
<path d="M30.1443 24.5826L21.9033 16.3417C21.7127 16.151 21.4583 16.0459 21.187 16.0459C20.9157 16.0459 20.6613 16.151 20.4707 16.3417L19.8638 16.9485C19.4689 17.3438 19.4689 17.9864 19.8638 18.3812L26.7839 25.3013L19.8561 32.2291C19.6655 32.4199 19.5602 32.6742 19.5602 32.9453C19.5602 33.2168 19.6655 33.4711 19.8561 33.662L20.463 34.2686C20.6537 34.4593 20.908 34.5644 21.1793 34.5644C21.4506 34.5644 21.7051 34.4593 21.8957 34.2686L30.1443 26.0202C30.3354 25.8289 30.4403 25.5734 30.4397 25.3018C30.4403 25.0291 30.3354 24.7738 30.1443 24.5826Z" fill="white"/>
</g>
<defs>
<clipPath id="clip0_207_461">
<rect x="15.7407" y="16.0459" width="18.5185" height="18.5185" rx="5" fill="white"/>
</clipPath>
</defs>
</svg>
