<svg width="50" height="51" viewBox="0 0 50 51" fill="none" xmlns="http://www.w3.org/2000/svg">
<rect y="0.304688" width="50" height="50" rx="5" fill="#1D252B"/>
<g clip-path="url(#clip0_207_467)">
<rect width="18.5185" height="18.5185" rx="5" transform="matrix(-1 0 0 1 33.3333 16.0459)" fill="#1D252B"/>
<path d="M18.9297 24.5826L27.1707 16.3417C27.3613 16.151 27.6157 16.0459 27.887 16.0459C28.1583 16.0459 28.4128 16.151 28.6034 16.3417L29.2103 16.9485C29.6052 17.3438 29.6052 17.9864 29.2103 18.3812L22.2901 25.3013L29.218 32.2291C29.4086 32.4199 29.5138 32.6742 29.5138 32.9453C29.5138 33.2168 29.4086 33.4711 29.218 33.662L28.6111 34.2686C28.4203 34.4593 28.166 34.5644 27.8947 34.5644C27.6234 34.5644 27.369 34.4593 27.1784 34.2686L18.9297 26.0202C18.7387 25.8289 18.6337 25.5734 18.6343 25.3018C18.6337 25.0291 18.7387 24.7738 18.9297 24.5826Z" fill="white"/>
</g>
<defs>
<clipPath id="clip0_207_467">
<rect width="18.5185" height="18.5185" rx="5" transform="matrix(-1 0 0 1 33.3333 16.0459)" fill="white"/>
</clipPath>
</defs>
</svg>
