<svg width="51" height="50" viewBox="0 0 51 50" fill="none" xmlns="http://www.w3.org/2000/svg">
<rect x="0.789062" y="0.5" width="49" height="49" stroke="#D7D7D7"/>
<g clip-path="url(#clip0_1401_1994)">
<path d="M30.4337 24.2779L22.1927 16.0371C22.0021 15.8463 21.7477 15.7412 21.4764 15.7412C21.2051 15.7412 20.9506 15.8463 20.76 16.0371L20.1531 16.6438C19.7582 17.0392 19.7582 17.6817 20.1531 18.0765L27.0733 24.9966L20.1455 31.9245C19.9548 32.1152 19.8496 32.3695 19.8496 32.6407C19.8496 32.9121 19.9548 33.1664 20.1455 33.3573L20.7523 33.9639C20.9431 34.1546 21.1974 34.2597 21.4687 34.2597C21.74 34.2597 21.9944 34.1546 22.185 33.9639L30.4337 25.7155C30.6247 25.5242 30.7297 25.2687 30.7291 24.9971C30.7297 24.7244 30.6247 24.4691 30.4337 24.2779Z" fill="white"/>
</g>
<defs>
<clipPath id="clip0_1401_1994">
<rect width="18.5185" height="18.5185" fill="white" transform="translate(16.0293 15.7412)"/>
</clipPath>
</defs>
</svg>
