<svg width="51" height="50" viewBox="0 0 51 50" fill="none" xmlns="http://www.w3.org/2000/svg">
<rect x="0.789062" y="0.5" width="49" height="49" stroke="#D7D7D7"/>
<g clip-path="url(#clip0_1401_2000)">
<path d="M19.2187 24.2779L27.4596 16.0371C27.6502 15.8463 27.9047 15.7412 28.176 15.7412C28.4473 15.7412 28.7017 15.8463 28.8923 16.0371L29.4992 16.6438C29.8941 17.0392 29.8941 17.6817 29.4992 18.0765L22.5791 24.9966L29.5069 31.9245C29.6975 32.1152 29.8027 32.3695 29.8027 32.6407C29.8027 32.9121 29.6975 33.1664 29.5069 33.3573L28.9 33.9639C28.7092 34.1546 28.455 34.2597 28.1837 34.2597C27.9124 34.2597 27.6579 34.1546 27.4673 33.9639L19.2187 25.7155C19.0276 25.5242 18.9227 25.2687 18.9233 24.9971C18.9227 24.7244 19.0276 24.4691 19.2187 24.2779Z" fill="white"/>
</g>
<defs>
<clipPath id="clip0_1401_2000">
<rect width="18.5185" height="18.5185" fill="white" transform="matrix(-1 0 0 1 33.623 15.7412)"/>
</clipPath>
</defs>
</svg>
