<svg width="1046" height="196" viewBox="0 0 1046 196" fill="none" xmlns="http://www.w3.org/2000/svg">
<path d="M56.3086 0C81.554 0 97.1064 2.12878 102.964 6.38454C108.079 10.057 110.637 19.8242 110.637 35.6834H83.2871C83.2871 30.5086 81.9259 27.2115 79.2026 25.7929C75.82 24.0395 68.1884 23.1627 56.3086 23.1627C43.0248 23.1627 35.2295 24.2069 32.9181 26.2924C30.6085 28.3789 29.4537 34.9732 29.4537 46.0752C29.4537 57.0936 30.6085 63.6464 32.9181 65.7329C35.2286 67.8194 43.0248 68.8626 56.3086 68.8626C68.3539 68.8626 75.8823 68.1326 78.893 66.6717C81.9045 65.2109 83.4099 61.7679 83.4099 56.342H110.636C110.636 72.2849 108.161 82.0512 103.21 85.6408C97.3529 89.8984 81.7186 92.0263 56.3086 92.0263C30.8977 92.0263 15.5312 89.6896 10.2101 85.0144C4.88805 80.34 2.22791 67.3189 2.22791 45.9501C2.22791 24.665 4.78572 11.769 9.90135 7.26215C15.4289 2.42042 30.8986 0 56.3095 0H56.3086ZM126.847 24.2897V1.12605H232.162V24.2897H193.179V90.7742H165.953V24.2897H126.846H126.847ZM287.604 1.37718H334.383L378.191 90.7742H346.387L337.972 75.7494H284.016L275.6 90.7742H243.796L287.604 1.37718H287.604ZM313.097 21.5353H308.889L294.162 52.5867H327.699L313.096 21.5353H313.097ZM506.647 1.12605V90.7742H479.421V24.2897H431.033C431.033 50.2077 428.847 68.0282 424.475 77.7315C420.514 86.4329 413.625 90.7733 403.808 90.7733H390.938V67.6106C397.372 67.6106 401.127 64.8562 402.199 59.3259C403.271 53.8163 403.808 34.4097 403.808 1.12515H506.647V1.12605ZM531.769 90.7742V1.12605H558.995V23.1627H598.349C612.87 23.1627 622.481 24.9576 627.185 28.5472C633.042 33.0541 635.971 42.5279 635.971 56.9685C635.971 71.4928 633.083 80.9665 627.308 85.3906C622.606 88.9803 612.952 90.7742 598.349 90.7742H531.77H531.769ZM558.995 46.3264V67.6115H598.349C601.65 67.6115 604.083 66.9436 605.651 65.6078C607.631 63.939 608.621 61.0586 608.621 56.9685C608.621 53.0458 607.631 50.2077 605.651 48.4552C604.001 47.0357 601.567 46.3264 598.349 46.3264H558.995ZM654.286 1.37718H681.512V32.6779H740.295V1.37718H767.521V90.7742H740.295V55.8424H681.512V90.7742H654.286V1.37718ZM908.352 1.12605H935.578V90.7742H908.352V1.12605ZM789.424 90.7742V1.12605H816.651V23.1627H856.004C870.442 23.1627 880.012 24.9999 884.715 28.6724C890.49 33.1792 893.378 42.6125 893.378 56.9685C893.378 71.4091 890.532 80.8414 884.839 85.2655C880.137 88.938 870.525 90.7742 856.004 90.7742H789.425H789.424ZM816.651 46.3264V67.6115H856.004C859.304 67.6115 861.738 66.9436 863.306 65.6078C865.203 64.0218 866.152 61.1837 866.152 57.0936C866.152 53.0043 865.285 50.1861 863.552 48.6424C861.82 47.0987 859.303 46.3264 856.004 46.3264H816.65H816.651ZM951.17 90.7742V1.12605H1046.46V22.7874H978.397V35.308H1043.37V56.8433H978.397V69.1138H1046.46V90.7742H951.17Z" fill="#1D252B"/>
<path d="M0 140.543V121.779H85.3136V140.543H53.7346V194.402H31.6796V140.543H0ZM98.5475 194.402V121.78H175.74V139.327H120.603V149.47H173.234V166.916H120.603V176.856H175.74V194.403H98.5475V194.402ZM187.57 121.78L220.352 157.33L187.57 194.402H217.244L238.798 170.059L260.351 194.402H290.026L257.243 157.33L290.026 121.78H259.449L238.797 145.21L218.145 121.78H187.568H187.57ZM298.949 121.984H321.004V147.34H368.622V121.984H390.677V194.403H368.622V166.105H321.004V194.403H298.949V121.984ZM505.664 158.193C505.664 175.84 503.56 186.39 499.35 189.838C494.804 193.557 481.103 195.417 458.247 195.417C441.538 195.417 430.578 194.808 425.365 193.591C418.815 192.036 414.671 188.655 412.934 183.448C411.596 179.459 410.929 171.04 410.929 158.194C410.929 140.545 413 129.997 417.145 126.548C421.689 122.761 435.39 120.868 458.247 120.868C481.037 120.868 494.705 122.727 499.249 126.446C503.526 129.963 505.665 140.545 505.665 158.194L505.664 158.193ZM432.983 158.193C432.983 167.457 434.036 172.849 436.141 174.371C438.247 175.892 445.615 176.652 458.246 176.652C470.945 176.652 478.346 175.892 480.452 174.371C482.557 172.849 483.609 167.457 483.609 158.193C483.609 148.861 482.557 143.435 480.452 141.913C478.346 140.392 470.978 139.631 458.347 139.631C445.648 139.631 438.247 140.392 436.141 141.913C434.036 143.435 432.983 148.861 432.983 158.193ZM613.334 121.78V194.402H591.279V140.543H552.082C552.082 161.539 550.31 175.975 546.768 183.836C543.56 190.885 537.979 194.401 530.026 194.401H519.6V175.637C524.813 175.637 527.854 173.406 528.722 168.926C529.591 164.463 530.026 148.741 530.026 121.778H613.334V121.78ZM729.524 158.193C729.524 175.84 727.419 186.39 723.209 189.838C718.663 193.557 704.962 195.417 682.106 195.417C665.397 195.417 654.437 194.808 649.224 193.591C642.674 192.036 638.53 188.655 636.793 183.448C635.456 179.459 634.788 171.04 634.788 158.194C634.788 140.545 636.86 129.997 641.004 126.548C645.548 122.761 659.249 120.868 682.106 120.868C704.896 120.868 718.564 122.727 723.108 126.446C727.385 129.963 729.525 140.545 729.525 158.194L729.524 158.193ZM656.842 158.193C656.842 167.457 657.895 172.849 660 174.371C662.106 175.892 669.474 176.652 682.105 176.652C694.804 176.652 702.205 175.892 704.311 174.371C706.416 172.849 707.469 167.457 707.469 158.193C707.469 148.861 706.416 143.435 704.311 141.913C702.205 140.392 694.837 139.631 682.206 139.631C669.507 139.631 662.106 140.392 660 141.913C657.895 143.435 656.842 148.861 656.842 158.193ZM744.361 121.78H815.538H816.04V140.544H766.416V194.403H744.361V121.781V121.78ZM828.972 121.984H851.027V171.885C850.493 173.779 849.958 175.639 849.423 177.464C849.357 178.14 849.324 178.817 849.324 179.492C849.792 179.492 850.243 179.053 850.677 178.174C851.111 177.295 851.529 176.416 851.93 175.537L889.623 121.984H925.713V194.403H903.658V144.399C903.658 144.332 904.226 142.472 905.362 138.82C905.362 138.144 905.395 137.467 905.462 136.792C904.994 136.792 904.543 137.249 904.109 138.161C903.675 139.074 903.257 139.937 902.856 140.748L865.061 194.403H828.971V121.984H828.972ZM949.172 121.984H971.227V171.885C970.692 173.779 970.157 175.639 969.623 177.464C969.556 178.14 969.523 178.817 969.523 179.492C969.991 179.492 970.442 179.053 970.876 178.174C971.311 177.295 971.729 176.416 972.129 175.537L1009.82 121.984H1045.91V194.403H1023.86V144.399C1023.86 144.332 1024.43 142.472 1025.56 138.82C1025.56 138.144 1025.59 137.467 1025.66 136.792C1025.19 136.792 1024.74 137.249 1024.31 138.161C1023.87 139.074 1023.46 139.937 1023.06 140.748L985.261 194.403H949.171V121.984H949.172Z" fill="#1D252B"/>
</svg>
