<svg width="13" height="10" viewBox="0 0 13 10" fill="none" xmlns="http://www.w3.org/2000/svg">
<path d="M0.484653 5.24221C0.392345 5.1499 0.346191 5.01144 0.346191 4.91913C0.346191 4.82682 0.392345 4.68836 0.484653 4.59605L1.13081 3.9499C1.31542 3.76528 1.59235 3.76528 1.77696 3.9499L1.82311 3.99605L4.36158 6.71913C4.45388 6.81144 4.59235 6.81144 4.68465 6.71913L10.8693 0.303745H10.9154C11.1 0.119129 11.377 0.119129 11.5616 0.303745L12.2077 0.949898C12.3923 1.13451 12.3923 1.41144 12.2077 1.59605L4.82311 9.25759C4.73081 9.3499 4.6385 9.39605 4.50004 9.39605C4.36158 9.39605 4.26927 9.3499 4.17696 9.25759L0.576961 5.38067L0.484653 5.24221Z" fill="black"/>
</svg>
