<svg width="22" height="17" viewBox="0 0 22 17" fill="none" xmlns="http://www.w3.org/2000/svg">
<path d="M21.0833 0.749756H0.916683C0.410405 0.749756 0 1.16016 0 1.66639C0 2.17261 0.410405 2.58307 0.916683 2.58307H21.0833C21.5896 2.58307 22 2.17267 22 1.66639C22 1.16011 21.5896 0.749756 21.0833 0.749756Z" fill="white"/>
<path d="M21.0833 7.58325H0.916683C0.410405 7.58325 0 7.99365 0 8.49993C0 9.0062 0.410405 9.41661 0.916683 9.41661H21.0833C21.5896 9.41661 22 9.0062 22 8.49993C22 7.99365 21.5896 7.58325 21.0833 7.58325Z" fill="white"/>
<path d="M21.0833 14.4167H0.916683C0.410405 14.4167 0 14.8272 0 15.3334C0 15.8397 0.410405 16.2501 0.916683 16.2501H21.0833C21.5896 16.2501 22 15.8397 22 15.3334C22 14.8272 21.5896 14.4167 21.0833 14.4167Z" fill="white"/>
</svg>
