<svg width="52" height="53" viewBox="0 0 52 53" fill="none" xmlns="http://www.w3.org/2000/svg">
<circle cx="26" cy="26.667" r="25.5" fill="#1D252B" stroke="white"/>
<g clip-path="url(#clip0_788_195)">
<rect width="24" height="24" transform="translate(14 14.667)" fill="#1D252B"/>
<path d="M37.6437 23.3418C37.3268 22.9443 36.8513 22.7162 36.3392 22.7162H31.7171L29.2108 16.9771C29.0554 16.6213 28.6409 16.4587 28.285 16.6142C27.9291 16.7695 27.7666 17.1841 27.9221 17.5399L30.1826 22.7162H21.8174L24.0779 17.5399C24.2333 17.1841 24.0709 16.7696 23.715 16.6142C23.3592 16.4587 22.9446 16.6212 22.7893 16.9771L20.2829 22.7162H15.6608C15.1487 22.7162 14.6732 22.9443 14.3563 23.3419C14.0452 23.7323 13.9304 24.2341 14.0413 24.7189L16.5096 35.5001C16.682 36.253 17.348 36.7787 18.1291 36.7787H33.8709C34.652 36.7787 35.318 36.253 35.4904 35.5001L37.9587 24.7188C38.0696 24.2341 37.9548 23.7322 37.6437 23.3418ZM33.8709 35.3724H18.1291C18.0097 35.3724 17.9052 35.2941 17.8805 35.1862L15.4122 24.4051C15.3928 24.3205 15.4253 24.2568 15.456 24.2183C15.4845 24.1825 15.5491 24.1225 15.6608 24.1225H19.6688L19.4846 24.5442C19.3292 24.9001 19.4917 25.3145 19.8476 25.47C19.9392 25.51 20.0346 25.5289 20.1286 25.5289C20.3996 25.5289 20.6579 25.3713 20.7733 25.1071L21.2033 24.1225H30.7968L31.2268 25.1071C31.3422 25.3713 31.6005 25.5289 31.8715 25.5289C31.9655 25.5289 32.0609 25.51 32.1525 25.47C32.5084 25.3146 32.6709 24.9001 32.5155 24.5442L32.3313 24.1225H36.3393C36.451 24.1225 36.5156 24.1825 36.5441 24.2183C36.5748 24.2568 36.6073 24.3205 36.5879 24.405L34.1196 35.1863C34.0949 35.2941 33.9903 35.3724 33.8709 35.3724Z" fill="white"/>
<path d="M21.7812 27.1694C21.3929 27.1694 21.0781 27.4842 21.0781 27.8726V33.0288C21.0781 33.4171 21.3929 33.7319 21.7812 33.7319C22.1696 33.7319 22.4844 33.4171 22.4844 33.0288V27.8726C22.4844 27.4842 22.1696 27.1694 21.7812 27.1694Z" fill="white"/>
<path d="M26 27.1694C25.6117 27.1694 25.2969 27.4842 25.2969 27.8726V33.0288C25.2969 33.4171 25.6117 33.7319 26 33.7319C26.3883 33.7319 26.7031 33.4171 26.7031 33.0288V27.8726C26.7031 27.4842 26.3883 27.1694 26 27.1694Z" fill="white"/>
<path d="M30.2188 27.1694C29.8304 27.1694 29.5156 27.4842 29.5156 27.8726V33.0288C29.5156 33.4171 29.8304 33.7319 30.2188 33.7319C30.6071 33.7319 30.9219 33.4171 30.9219 33.0288V27.8726C30.9218 27.4842 30.6071 27.1694 30.2188 27.1694Z" fill="white"/>
</g>
<defs>
<clipPath id="clip0_788_195">
<rect width="24" height="24" fill="white" transform="translate(14 14.667)"/>
</clipPath>
</defs>
</svg>
