<svg width="49" height="31" viewBox="0 0 49 31" fill="none" xmlns="http://www.w3.org/2000/svg">
<path d="M33.3427 3.44496C34.7325 3.44496 35.985 3.53496 37.2204 3.42353C38.9662 3.26494 40.1157 3.92928 41.1323 5.36082C43.2256 8.30962 45.4818 11.1427 47.7038 14.0015C48.1885 14.623 48.3986 15.2573 48.3858 16.0459C48.3472 18.6819 48.3772 21.3221 48.3729 23.9623C48.3686 25.7281 47.3992 26.7182 45.6277 26.7696C45.1901 26.7825 44.7483 26.7696 44.2293 26.7696C44.1092 27.0311 43.9848 27.2968 43.8604 27.5668C43.1226 29.1912 41.6685 30.147 39.9184 30.0699C38.1255 29.9927 36.8686 29.0969 36.178 27.4297C36.1137 27.2754 36.0494 27.1168 35.9807 26.9625C35.9679 26.9325 35.9421 26.9111 35.8735 26.8296C29.7739 26.8296 23.6315 26.8296 17.4461 26.8296C16.734 28.8484 15.4172 30.1299 13.1824 30.0656C11.0977 30.0056 9.8495 28.7798 9.18035 26.7696C8.27528 26.7696 7.36592 26.7739 6.45656 26.7696C5.12255 26.7653 4.95955 26.5982 4.96384 25.2309C4.96384 22.7965 4.96813 20.3577 4.96813 17.9232C4.96813 17.5589 4.96813 17.1946 4.96813 16.7146C4.29897 16.7146 3.73277 16.7146 3.16656 16.7146C2.35586 16.7103 1.54087 16.7146 0.730165 16.6974C0.288353 16.6888 0.0524348 16.4231 0.005251 15.9988C-0.0419328 15.5702 0.232591 15.2144 0.678692 15.1244C0.84169 15.0901 1.01756 15.103 1.18485 15.103C3.14941 15.103 5.11397 15.103 7.07424 15.103C7.24153 15.103 7.41739 15.0901 7.58039 15.1244C7.99218 15.2102 8.23667 15.4759 8.27099 15.8916C8.30531 16.3117 8.00933 16.6288 7.53321 16.7017C7.27155 16.7403 7.00132 16.7446 6.74824 16.7617C6.55093 17.5032 6.49087 23.4994 6.67103 25.0723C7.47316 25.2224 8.29673 25.1624 9.15032 25.1066C9.86666 23.0236 11.2007 21.7292 13.4869 21.8064C15.5802 21.8792 16.7984 23.1308 17.4547 25.0852C22.1773 25.0852 26.9 25.0852 31.6784 25.0852C31.6784 17.2889 31.6784 9.56114 31.6784 1.76483C23.3269 1.76483 15.0226 1.76483 6.65387 1.76483C6.65387 2.88348 6.65387 3.94642 6.65387 5.05651C7.0099 5.08223 7.30587 5.0908 7.60184 5.13366C8.03507 5.19795 8.26241 5.49369 8.27528 5.90086C8.28386 6.31232 8.05223 6.60806 7.63615 6.69807C7.44313 6.74093 7.23295 6.72807 7.03134 6.72807C5.1011 6.72807 3.17085 6.72807 1.24061 6.72807C1.07332 6.72807 0.897453 6.74093 0.734455 6.71092C0.249749 6.62949 0.00954017 6.33804 0.0224085 5.88372C0.0352768 5.41225 0.262617 5.14652 0.785928 5.12937C1.69958 5.09508 2.61323 5.11651 3.52688 5.11651C3.96011 5.11651 4.39334 5.11651 4.88663 5.11651C4.92094 4.77363 4.96384 4.51647 4.96813 4.25931C4.9767 3.34638 4.96813 2.43345 4.96813 1.52052C4.96813 0.277568 5.14828 0.0889821 6.35361 0.08041C6.42224 0.08041 6.49088 0.08041 6.55522 0.08041C15.0183 0.08041 23.4813 0.0761237 31.9444 0.0761237C32.0473 0.0761237 32.146 0.0718376 32.2489 0.0761237C33.0768 0.110412 33.3299 0.359003 33.347 1.17764C33.3556 1.87626 33.3427 2.58346 33.3427 3.44496ZM40.0943 6.75807C39.7983 6.36804 39.6053 6.17088 39.4852 5.93944C39.0992 5.21938 38.5072 5.01365 37.7137 5.05222C36.5298 5.10794 35.3459 5.0608 34.162 5.07365C33.9089 5.07365 33.6516 5.12937 33.4157 5.15509C33.2398 7.16096 33.3127 24.2966 33.5014 25.0895C34.295 25.0895 35.0928 25.0895 35.9078 25.0895C36.5641 23.0965 37.8166 21.8364 39.9528 21.7935C42.1918 21.7507 43.5001 23.0365 44.1864 25.0381C44.3194 25.0723 44.4138 25.1152 44.5124 25.1195C44.7827 25.1324 45.0529 25.1409 45.3231 25.1366C46.5327 25.1281 46.7601 24.9052 46.7644 23.7265C46.7687 21.4935 46.7687 19.2648 46.7644 17.0317C46.7644 16.736 46.7301 16.4402 46.7043 16.0331C46.2882 16.0331 45.9279 16.0331 45.5633 16.0331C42.4835 16.0331 39.4037 16.0374 36.3239 16.0288C35.2944 16.0245 35.0499 15.7802 35.0413 14.7815C35.0285 12.5142 35.0285 10.2512 35.0413 7.98388C35.0456 6.98523 35.2987 6.75807 36.3282 6.75379C37.5078 6.7495 38.6874 6.75807 40.0943 6.75807ZM45.885 14.3872C44.328 12.3428 42.9039 10.4698 41.4626 8.60964C41.3597 8.47678 41.1152 8.38677 40.935 8.38248C39.5581 8.36534 38.1812 8.37391 36.667 8.37391C36.6628 10.4269 36.5855 12.3899 36.7228 14.3872C39.7726 14.3872 42.7066 14.3872 45.885 14.3872ZM10.7975 25.9553C10.7674 27.2582 11.8698 28.4069 13.2124 28.4669C14.5593 28.5269 15.8118 27.3782 15.8504 26.0539C15.889 24.6737 14.6665 23.3494 13.3154 23.4222C11.7411 23.4994 10.8575 24.6095 10.7975 25.9553ZM42.5479 26.011C42.5693 24.6309 41.4712 23.4179 40.1072 23.4179C38.9018 23.4179 37.6279 24.2409 37.5378 25.891C37.4649 27.2411 38.6273 28.4412 39.9871 28.4669C41.3726 28.4883 42.5264 27.3825 42.5479 26.011Z" fill="#1D252B"/>
</svg>
