<svg width="50" height="31" viewBox="0 0 50 31" fill="none" xmlns="http://www.w3.org/2000/svg">
<path d="M34.2379 3.38465C35.6277 3.38465 36.8802 3.47466 38.1155 3.36322C39.8613 3.20464 41.0109 3.86898 42.0275 5.30052C44.1207 8.24932 46.377 11.0824 48.5989 13.9412C49.0836 14.5627 49.2938 15.197 49.2809 15.9856C49.2423 18.6215 49.2723 21.2618 49.268 23.902C49.2638 25.6678 48.2943 26.6579 46.5228 26.7093C46.0853 26.7222 45.6435 26.7093 45.1245 26.7093C45.0044 26.9708 44.88 27.2365 44.7556 27.5065C44.0178 29.1309 42.5637 30.0867 40.8136 30.0096C39.0206 29.9324 37.7638 29.0366 37.0732 27.3694C37.0088 27.2151 36.9445 27.0565 36.8759 26.9022C36.863 26.8722 36.8373 26.8508 36.7686 26.7693C30.6691 26.7693 24.5266 26.7693 18.3412 26.7693C17.6292 28.7881 16.3123 30.0696 14.0775 30.0053C11.9929 29.9453 10.7446 28.7195 10.0755 26.7093C9.17042 26.7093 8.26106 26.7136 7.3517 26.7093C6.01769 26.705 5.85469 26.5379 5.85898 25.1706C5.85898 22.7362 5.86327 20.2974 5.86327 17.8629C5.86327 17.4986 5.86327 17.1343 5.86327 16.6543C5.19412 16.6543 4.62791 16.6543 4.0617 16.6543C3.251 16.65 2.43601 16.6543 1.62531 16.6371C1.18349 16.6285 0.947576 16.3628 0.900393 15.9385C0.853209 15.5099 1.12773 15.1541 1.57383 15.0641C1.73683 15.0298 1.9127 15.0427 2.07999 15.0427C4.04455 15.0427 6.00911 15.0427 7.96938 15.0427C8.13667 15.0427 8.31253 15.0298 8.47553 15.0641C8.88732 15.1499 9.13182 15.4156 9.16613 15.8313C9.20045 16.2514 8.90448 16.5685 8.42835 16.6414C8.16669 16.68 7.89646 16.6843 7.64338 16.7014C7.44607 17.4429 7.38602 23.4391 7.56617 25.012C8.3683 25.1621 9.19187 25.1021 10.0455 25.0463C10.7618 22.9633 12.0958 21.6689 14.3821 21.7461C16.4753 21.8189 17.6935 23.0705 18.3498 25.0249C23.0725 25.0249 27.7951 25.0249 32.5736 25.0249C32.5736 17.2286 32.5736 9.50084 32.5736 1.70452C24.222 1.70452 15.9177 1.70452 7.54902 1.70452C7.54902 2.82318 7.54902 3.88612 7.54902 4.99621C7.90504 5.02192 8.20101 5.0305 8.49698 5.07336C8.93021 5.13765 9.15755 5.43338 9.17042 5.84056C9.179 6.25202 8.94737 6.54776 8.5313 6.63776C8.33827 6.68062 8.12809 6.66777 7.92648 6.66777C5.99624 6.66777 4.06599 6.66777 2.13575 6.66777C1.96846 6.66777 1.79259 6.68062 1.6296 6.65062C1.14489 6.56919 0.904682 6.27774 0.91755 5.82341C0.930418 5.35195 1.15776 5.08621 1.68107 5.06907C2.59472 5.03478 3.50837 5.05621 4.42202 5.05621C4.85525 5.05621 5.28848 5.05621 5.78177 5.05621C5.81608 4.71333 5.85898 4.45617 5.86327 4.199C5.87185 3.28607 5.86327 2.37315 5.86327 1.46022C5.86327 0.217266 6.04342 0.0286793 7.24875 0.0201072C7.31739 0.0201072 7.38602 0.0201072 7.45036 0.0201072C15.9134 0.0201072 24.3765 0.0158209 32.8395 0.0158209C32.9425 0.0158209 33.0411 0.0115349 33.1441 0.0158209C33.9719 0.0501093 34.225 0.298701 34.2422 1.11734C34.2507 1.81596 34.2379 2.52316 34.2379 3.38465ZM40.9894 6.69777C40.6935 6.30774 40.5004 6.11058 40.3803 5.87913C39.9943 5.15908 39.4024 4.95335 38.6088 4.99192C37.4249 5.04764 36.241 5.00049 35.0572 5.01335C34.8041 5.01335 34.5467 5.06907 34.3108 5.09479C34.1349 7.10066 34.2078 24.2363 34.3966 25.0292C35.1901 25.0292 35.988 25.0292 36.803 25.0292C37.4592 23.0362 38.7118 21.7761 40.8479 21.7332C43.087 21.6904 44.3953 22.9762 45.0816 24.9778C45.2145 25.012 45.3089 25.0549 45.4076 25.0592C45.6778 25.0721 45.948 25.0806 46.2183 25.0763C47.4279 25.0678 47.6552 24.8449 47.6595 23.6662C47.6638 21.4332 47.6638 19.2045 47.6595 16.9714C47.6595 16.6757 47.6252 16.3799 47.5995 15.9728C47.1834 15.9728 46.8231 15.9728 46.4585 15.9728C43.3787 15.9728 40.2988 15.9771 37.219 15.9685C36.1896 15.9642 35.9451 15.7199 35.9365 14.7212C35.9236 12.4539 35.9236 10.1909 35.9365 7.92358C35.9408 6.92493 36.1939 6.69777 37.2233 6.69348C38.4029 6.6892 39.5825 6.69777 40.9894 6.69777ZM46.7802 14.3269C45.2231 12.2825 43.799 10.4095 42.3578 8.54934C42.2548 8.41647 42.0103 8.32647 41.8302 8.32218C40.4533 8.30504 39.0764 8.31361 37.5622 8.31361C37.5579 10.3666 37.4807 12.3296 37.6179 14.3269C40.6677 14.3269 43.6017 14.3269 46.7802 14.3269ZM11.6926 25.895C11.6626 27.1979 12.765 28.3466 14.1076 28.4066C15.4544 28.4666 16.707 27.3179 16.7456 25.9936C16.7842 24.6134 15.5617 23.2891 14.2105 23.3619C12.6363 23.4391 11.7527 24.5492 11.6926 25.895ZM43.443 25.9507C43.4644 24.5706 42.3664 23.3576 41.0023 23.3576C39.797 23.3576 38.523 24.1806 38.4329 25.8307C38.36 27.1808 39.5225 28.3809 40.8822 28.4066C42.2677 28.428 43.4216 27.3222 43.443 25.9507Z" fill="white"/>
<path d="M5.85042 11.6826C5.17698 11.6826 4.50353 11.6869 3.83438 11.6783C3.60275 11.674 3.35826 11.674 3.13521 11.6097C2.72771 11.4983 2.53468 11.2025 2.569 10.7739C2.59903 10.3839 2.8135 10.1439 3.19526 10.101C3.55986 10.0582 3.93304 10.0625 4.30193 10.0582C5.47724 10.0539 6.65683 10.0496 7.83214 10.0582C8.7801 10.0625 9.19618 10.3325 9.16615 10.894C9.13612 11.4211 8.72863 11.674 7.86645 11.6783C7.1973 11.6869 6.52386 11.6826 5.85042 11.6826Z" fill="white"/>
<path d="M14.2105 24.6609C14.8883 24.6566 15.4073 25.1881 15.403 25.8782C15.3987 26.5553 14.8497 27.1254 14.2062 27.1125C13.5929 27.104 12.9709 26.4739 12.9709 25.8696C12.9709 25.2438 13.5585 24.6652 14.2105 24.6609Z" fill="white"/>
<path d="M42.1606 25.8391C42.182 26.4863 41.6201 27.095 40.981 27.1164C40.3375 27.1378 39.7542 26.5763 39.7327 25.9163C39.7113 25.2391 40.226 24.6819 40.8995 24.6476C41.5386 24.6176 42.1434 25.1877 42.1606 25.8391Z" fill="white"/>
</svg>
