<svg width="138" height="57" viewBox="0 0 138 57" fill="none" xmlns="http://www.w3.org/2000/svg">
<path fill-rule="evenodd" clip-rule="evenodd" d="M34.0004 22.1703H17.9143V26.9147H29.3227C28.759 33.5696 23.1909 36.4087 17.9351 36.4087C11.2109 36.4087 5.34198 31.1473 5.34198 23.7735C5.34198 16.5977 10.9362 11.0628 17.9495 11.0628C23.3614 11.0628 26.5497 14.4944 26.5497 14.4944L29.8917 11.0563C29.8917 11.0563 25.6019 6.3067 17.7789 6.3067C7.81687 6.3067 0.112305 14.6676 0.112305 23.698C0.112305 32.546 7.35991 41.1752 18.0328 41.1752C27.4194 41.1752 34.2933 34.7807 34.2933 25.3259C34.2933 23.3294 34.0069 22.1742 34.0069 22.1742L34.0004 22.1703Z" fill="#4285F4"/>
<path fill-rule="evenodd" clip-rule="evenodd" d="M47.1757 18.7322C40.5751 18.7322 35.8467 23.8633 35.8467 29.8462C35.8467 35.919 40.4345 41.1452 47.2538 41.1452C53.4274 41.1452 58.4852 36.4529 58.4852 29.9778C58.4852 22.5545 52.6007 18.7322 47.1757 18.7322ZM47.2408 23.134C50.4877 23.134 53.5628 25.7426 53.5628 29.9478C53.5628 34.0632 50.5007 36.7459 47.2265 36.7459C43.6294 36.7459 40.7925 33.8808 40.7925 29.9152C40.7925 26.0343 43.5942 23.134 47.2408 23.134Z" fill="#EA4335"/>
<path fill-rule="evenodd" clip-rule="evenodd" d="M71.8163 18.7322C65.2158 18.7322 60.4873 23.8633 60.4873 29.8462C60.4873 35.919 65.083 41.1452 71.9023 41.1452C78.0758 41.1452 83.1336 36.4529 83.1336 29.9778C83.1336 22.5545 77.2491 18.7322 71.8254 18.7322H71.8163ZM71.8814 23.134C75.1283 23.134 78.2034 25.7426 78.2034 29.9478C78.2034 34.0632 75.1335 36.7459 71.8632 36.7459C68.2622 36.7459 65.4319 33.8808 65.4319 29.9152C65.4319 26.0343 68.2309 23.134 71.8762 23.134H71.8814Z" fill="#FBBC05"/>
<path fill-rule="evenodd" clip-rule="evenodd" d="M95.9857 18.7452C89.928 18.7452 85.167 24.0197 85.167 29.9413C85.167 36.6874 90.687 41.1609 95.8815 41.1609C99.0933 41.1609 100.803 39.8924 102.062 38.439V40.6464C102.062 44.5144 99.7013 46.8286 96.138 46.8286C92.6945 46.8286 90.9695 44.2838 90.368 42.8396L86.0367 44.6472C87.5729 47.877 90.6662 51.2474 96.1731 51.2474C102.197 51.2474 106.787 47.4771 106.787 39.5655V19.4185H102.062V21.3199C100.609 19.761 98.622 18.7452 95.9857 18.7452ZM96.4244 23.1367C99.3927 23.1367 102.443 25.6593 102.443 29.9648C102.443 34.3432 99.4005 36.7551 96.358 36.7551C93.1293 36.7551 90.122 34.14 90.122 29.9986C90.122 25.6957 93.2439 23.1289 96.4231 23.1289L96.4244 23.1367Z" fill="#4285F4"/>
<path fill-rule="evenodd" clip-rule="evenodd" d="M127.798 18.7166C122.083 18.7166 117.285 23.2382 117.285 29.9087C117.285 36.9673 122.633 41.1543 128.346 41.1543C133.115 41.1543 136.04 38.5601 137.787 36.2354L133.892 33.6568C132.88 35.2196 131.191 36.7433 128.369 36.7433C125.202 36.7433 123.745 35.0178 122.843 33.3469L137.954 27.1113L137.17 25.2842C135.709 21.7132 132.305 18.7205 127.797 18.7205L127.798 18.7166ZM127.993 23.0272C130.053 23.0272 131.534 24.116 132.164 25.4209L122.072 29.6144C121.637 26.3677 124.732 23.0272 127.996 23.0272H127.993Z" fill="#EA4335"/>
<path fill-rule="evenodd" clip-rule="evenodd" d="M110.08 40.4888H115.044V7.45667H110.08V40.4888Z" fill="#34A853"/>
</svg>
