<svg width="27" height="31" viewBox="0 0 27 31" fill="none" xmlns="http://www.w3.org/2000/svg">
<path d="M6.65 17.1C6.39804 17.1 6.15641 17.2001 5.97825 17.3782C5.80009 17.5564 5.7 17.798 5.7 18.05V21.85C5.7 22.102 5.80009 22.3436 5.97825 22.5218C6.15641 22.6999 6.39804 22.8 6.65 22.8C6.90196 22.8 7.14359 22.6999 7.32175 22.5218C7.49991 22.3436 7.6 22.102 7.6 21.85V21.5346H8.2346C8.82266 21.5346 9.38664 21.301 9.80247 20.8852C10.2183 20.4693 10.4519 19.9054 10.4519 19.3173C10.4519 18.7292 10.2183 18.1653 9.80247 17.7494C9.38664 17.3336 8.82266 17.1 8.2346 17.1H6.65ZM8.2346 19.6346H7.6V19H8.2327C8.31685 19 8.39756 19.0334 8.45707 19.0929C8.51657 19.1524 8.55 19.2331 8.55 19.3173C8.55 19.4015 8.51657 19.4822 8.45707 19.5417C8.39756 19.6012 8.31875 19.6346 8.2346 19.6346ZM17.1 18.0481C17.1005 17.7965 17.2008 17.5553 17.3789 17.3776C17.557 17.1998 17.7984 17.1 18.05 17.1H19.9481C20.2001 17.1 20.4417 17.2001 20.6199 17.3782C20.798 17.5564 20.8981 17.798 20.8981 18.05C20.8981 18.302 20.798 18.5436 20.6199 18.7218C20.4417 18.8999 20.2001 19 19.9481 19H19V19.6365H19.95C20.202 19.6365 20.4436 19.7366 20.6218 19.9147C20.7999 20.0929 20.9 20.3345 20.9 20.5865C20.9 20.8385 20.7999 21.0801 20.6218 21.2583C20.4436 21.4364 20.202 21.5365 19.95 21.5365H19L19.0019 21.8481C19.0021 21.9729 18.9778 22.0964 18.9303 22.2118C18.8828 22.3271 18.813 22.432 18.725 22.5204C18.5472 22.6989 18.3058 22.7995 18.0538 22.8C17.8018 22.8005 17.56 22.7009 17.3815 22.5231C17.203 22.3453 17.1024 22.1039 17.1019 21.8519L17.1 20.5846V18.0481ZM12.35 17.1C12.098 17.1 11.8564 17.2001 11.6782 17.3782C11.5001 17.5564 11.4 17.798 11.4 18.05V21.85C11.4 22.102 11.5001 22.3436 11.6782 22.5218C11.8564 22.6999 12.098 22.8 12.35 22.8H13.3038C14.0597 22.8 14.7846 22.4997 15.3191 21.9653C15.8535 21.4308 16.1538 20.7059 16.1538 19.95C16.1538 19.1941 15.8535 18.4692 15.3191 17.9347C14.7846 17.4003 14.0597 17.1 13.3038 17.1H12.35ZM13.3 20.9V19H13.3038C13.5558 19 13.7974 19.1001 13.9756 19.2782C14.1537 19.4564 14.2538 19.698 14.2538 19.95C14.2538 20.202 14.1537 20.4436 13.9756 20.6218C13.7974 20.7999 13.5558 20.9 13.3038 20.9H13.3ZM1.9019 3.8C1.9019 2.79218 2.30226 1.82563 3.01489 1.11299C3.72753 0.400356 4.69408 0 5.7019 0H14.4134C14.7879 7.98773e-05 15.1586 0.0739537 15.5045 0.217399C15.8504 0.360845 16.1647 0.57105 16.4293 0.836L23.8659 8.2726C24.4005 8.80657 24.7012 9.53099 24.7019 10.2866V13.4558C25.2568 13.6529 25.737 14.017 26.0766 14.498C26.4161 14.9791 26.5983 15.5536 26.5981 16.1424V23.7481C26.5983 24.3369 26.4161 24.9114 26.0766 25.3925C25.737 25.8735 25.2568 26.2376 24.7019 26.4347V26.6C24.7019 27.6078 24.3015 28.5744 23.5889 29.287C22.8763 29.9996 21.9097 30.4 20.9019 30.4H5.7C4.69218 30.4 3.72563 29.9996 3.01299 29.287C2.30036 28.5744 1.9 27.6078 1.9 26.6V26.4347C1.34471 26.2384 0.863887 25.8748 0.52365 25.3941C0.183413 24.9133 0.00047657 24.339 0 23.75V16.1443C8.39029e-05 15.555 0.182838 14.9802 0.523102 14.4991C0.863366 14.018 1.34441 13.6541 1.9 13.4577L1.9019 3.8ZM22.8019 11.4H16.1519C15.7775 11.4002 15.4067 11.3267 15.0607 11.1836C14.7147 11.0405 14.4003 10.8306 14.1354 10.5659C13.8706 10.3013 13.6605 9.98699 13.5171 9.64109C13.3738 9.29519 13.3 8.92443 13.3 8.55V1.9H5.7C5.19609 1.9 4.71282 2.10018 4.3565 2.4565C4.00018 2.81282 3.8 3.29609 3.8 3.8V13.2924H22.8L22.8019 11.4ZM3.8 26.5981C3.79975 26.8478 3.84871 27.095 3.94408 27.3258C4.03946 27.5565 4.17937 27.7662 4.35582 27.9428C4.53228 28.1195 4.74182 28.2596 4.97246 28.3552C5.2031 28.4508 5.45033 28.5 5.7 28.5H20.9C21.1497 28.5 21.3969 28.4508 21.6275 28.3552C21.8582 28.2596 22.0677 28.1195 22.2442 27.9428C22.4206 27.7662 22.5605 27.5565 22.6559 27.3258C22.7513 27.095 22.8002 26.8478 22.8 26.5981H3.8ZM15.2 2.2933V8.55C15.2 8.80196 15.3001 9.04359 15.4782 9.22175C15.6564 9.39991 15.898 9.5 16.15 9.5H22.4048L15.2 2.2933ZM2.8538 15.1924C2.60184 15.1924 2.36021 15.2925 2.18205 15.4706C2.00389 15.6488 1.9038 15.8904 1.9038 16.1424V23.7481C1.9038 24.0001 2.00389 24.2417 2.18205 24.4199C2.36021 24.598 2.60184 24.6981 2.8538 24.6981H23.7481C24.0001 24.6981 24.2417 24.598 24.4199 24.4199C24.598 24.2417 24.6981 24.0001 24.6981 23.7481V16.1424C24.6981 15.8904 24.598 15.6488 24.4199 15.4706C24.2417 15.2925 24.0001 15.1924 23.7481 15.1924H2.8538Z" fill="#1D252B"/>
</svg>
