<svg width="481" height="1255" viewBox="0 0 481 1255" fill="none" xmlns="http://www.w3.org/2000/svg">
<mask id="path-1-inside-1_207_879" fill="white">
<path d="M-70.2029 163.497C-70.2322 163.423 -70.254 163.342 -70.265 163.249C-70.3782 162.319 -69.7575 161.465 -68.8411 161.295C-49.2467 157.653 -23.2925 150.055 5.48761 134.409C7.39703 133.371 8.44128 131.365 8.20032 129.186C7.95935 127.003 6.50629 125.278 4.41431 124.69C-6.20618 121.717 -16.9691 119.068 -27.8451 116.786C-66.4206 108.641 -94.7735 75.2308 -97.7417 35.4823L-100.389 0H-165.484C-166.277 101.896 -180.373 126.722 -247.308 166.271C-233.3 155.267 -217.429 140.278 -201.92 120.228C-200.584 118.5 -200.427 116.243 -201.519 114.344C-202.607 112.445 -204.618 111.456 -206.772 111.77C-217.678 113.369 -228.579 115.312 -239.452 117.65C-278.005 125.883 -317.245 106.831 -335.759 71.6368L-352.287 40.2324L-411.884 66.713C-366.894 172.617 -376.686 195.138 -440.858 279.234L-440.982 279.16C-441.756 278.639 -441.993 277.608 -441.529 276.796C-431.57 259.339 -420.46 234.421 -413.571 202.112C-413.114 199.965 -413.947 197.864 -415.747 196.634C-417.55 195.407 -419.788 195.407 -421.581 196.637C-430.704 202.895 -439.675 209.455 -448.444 216.362C-479.583 240.8 -523.109 240.981 -554.948 217.492L-583.36 196.53L-625.564 246.669C-539.096 322.355 -538.483 346.852 -560.173 451.773C-560.286 451.806 -560.407 451.81 -560.545 451.791C-561.465 451.669 -562.13 450.849 -562.064 449.915C-560.684 429.802 -561.502 402.476 -569.329 370.385C-569.851 368.257 -571.509 366.739 -573.656 366.432C-575.81 366.122 -577.818 367.119 -578.902 369.025C-584.389 378.695 -589.596 388.58 -594.488 398.679C-611.87 434.456 -650.898 453.941 -689.7 446.971L-724.321 440.747L-740.498 504.538C-629.869 534.195 -618.781 555.948 -592.706 660.131C-592.801 660.234 -592.929 660.315 -593.089 660.371C-593.969 660.67 -594.926 660.23 -595.269 659.362C-602.764 640.679 -615.371 616.504 -636.345 591.157C-637.736 589.48 -639.89 588.848 -641.95 589.532C-644.02 590.211 -645.389 591.999 -645.531 594.193C-646.258 605.315 -646.648 616.515 -646.652 627.758C-646.725 667.621 -673.318 702.48 -711.193 713.472L-745 723.279L-731.817 787.768C-619.785 765.262 -600.231 779.768 -531.886 861.333C-531.933 861.422 -531.992 861.503 -532.072 861.588C-532.729 862.246 -533.78 862.268 -534.467 861.644C-549.297 848.173 -571.1 832.031 -600.924 818.545C-602.903 817.651 -605.108 818.039 -606.671 819.568C-608.233 821.097 -608.693 823.31 -607.876 825.345C-603.71 835.665 -599.208 845.905 -594.349 856.011C-577.146 891.877 -585.956 935.002 -615.247 961.671L-641.384 985.47L-601.603 1037.6C-510.444 967.551 -486.68 972.102 -389.391 1015.39C-389.365 1015.53 -389.376 1015.69 -389.438 1015.85C-389.749 1016.74 -390.676 1017.23 -391.567 1016.97C-410.738 1011.47 -437.331 1006.67 -469.981 1007.82C-472.153 1007.9 -473.96 1009.23 -474.698 1011.29C-475.439 1013.36 -474.888 1015.55 -473.267 1017.01C-465.048 1024.44 -456.553 1031.63 -447.798 1038.54C-416.762 1063.11 -405.933 1105.76 -420.653 1142.74L-433.786 1175.75L-375.408 1204.88C-324.109 1101.69 -300.78 1094.97 -195.327 1090.57C-195.294 1090.65 -195.272 1090.73 -195.261 1090.83C-195.155 1091.77 -195.783 1092.62 -196.692 1092.78C-216.309 1096.33 -242.303 1103.79 -271.16 1119.28C-273.073 1120.31 -274.124 1122.31 -273.898 1124.49C-273.664 1126.68 -272.226 1128.41 -270.134 1129.01C-259.524 1132.03 -248.783 1134.74 -237.911 1137.08C-199.379 1145.42 -171.194 1178.97 -168.423 1218.75L-165.952 1254.23L-100.86 1254.57C-99.4394 1143.77 -82.7474 1124.18 0.63562 1078.05C-15.7059 1089.54 -36.1874 1107.24 -55.9644 1133.38C-57.286 1135.12 -57.4174 1137.38 -56.3076 1139.27C-55.2014 1141.15 -53.1788 1142.12 -51.032 1141.79C-40.1414 1140.07 -29.2617 1138 -18.4148 1135.55C20.0511 1126.9 59.4846 1145.54 78.3707 1180.53L95.2196 1211.75L154.54 1184.64C108.363 1079.04 118.027 1056.52 181.6 971.385C181.673 971.411 181.746 971.448 181.823 971.5C182.604 972.01 182.856 973.036 182.4 973.856C172.644 991.435 161.823 1016.48 155.317 1048.88C154.883 1051.03 155.741 1053.12 157.555 1054.33C159.37 1055.54 161.604 1055.51 163.386 1054.25C172.44 1047.89 181.334 1041.22 190.019 1034.21C220.866 1009.41 264.388 1008.7 296.501 1031.8L325.157 1052.43L366.77 1001.78C279.587 927.274 278.528 902.744 298.878 798.052C298.958 798.041 299.035 798.044 299.126 798.056C300.05 798.17 300.722 798.979 300.667 799.917C299.491 820.041 300.598 847.356 308.758 879.363C309.298 881.487 310.974 882.986 313.124 883.267C315.278 883.555 317.275 882.539 318.338 880.622C323.726 870.897 328.838 860.957 333.624 850.81C350.637 814.847 389.457 794.949 428.328 801.513L463.016 807.368L478.532 743.41C367.917 715.001 356.358 693.419 329.378 590.274C329.447 590.23 329.52 590.189 329.608 590.16C330.48 589.846 331.437 590.285 331.795 591.153C339.44 609.766 352.251 633.838 373.422 659.008C374.828 660.677 376.982 661.287 379.041 660.592C381.104 659.894 382.458 658.095 382.586 655.901C383.221 644.772 383.521 633.572 383.433 622.329C383.181 582.462 409.49 547.382 447.277 536.076L481 525.988L467.295 461.606C355.544 485.035 335.811 470.74 266.944 389.936C266.984 389.865 267.039 389.803 267.101 389.736C267.754 389.071 268.802 389.038 269.496 389.659C284.424 403.012 306.352 418.991 336.282 432.244C338.264 433.123 340.466 432.717 342.014 431.176C343.565 429.636 344.014 427.416 343.175 425.392C338.932 415.098 334.354 404.899 329.418 394.826C311.945 359.089 320.429 315.898 349.516 289.007L375.474 265.005L335.307 213.182C244.951 283.721 221.034 279.596 124.16 237.424L124.215 237.176C124.518 236.29 125.449 235.799 126.336 236.05C145.536 241.446 172.163 246.104 204.805 244.782C206.97 244.69 208.777 243.352 209.5 241.284C210.23 239.212 209.668 237.021 208.044 235.566C199.778 228.189 191.25 221.042 182.451 214.179C151.29 189.774 140.239 147.182 154.762 110.122L167.73 77.0482L109.195 48.2331C58.455 151.658 35.1622 158.544 -70.181 163.501L-70.2029 163.497ZM-132.013 211.959C94.7012 211.959 278.492 397.907 278.492 627.289C278.492 856.664 94.7012 1042.61 -132.013 1042.61C-358.73 1042.61 -542.517 856.664 -542.517 627.289C-542.517 397.907 -358.73 211.959 -132.013 211.959Z"/>
</mask>
<path d="M-70.2029 163.497C-70.2322 163.423 -70.254 163.342 -70.265 163.249C-70.3782 162.319 -69.7575 161.465 -68.8411 161.295C-49.2467 157.653 -23.2925 150.055 5.48761 134.409C7.39703 133.371 8.44128 131.365 8.20032 129.186C7.95935 127.003 6.50629 125.278 4.41431 124.69C-6.20618 121.717 -16.9691 119.068 -27.8451 116.786C-66.4206 108.641 -94.7735 75.2308 -97.7417 35.4823L-100.389 0H-165.484C-166.277 101.896 -180.373 126.722 -247.308 166.271C-233.3 155.267 -217.429 140.278 -201.92 120.228C-200.584 118.5 -200.427 116.243 -201.519 114.344C-202.607 112.445 -204.618 111.456 -206.772 111.77C-217.678 113.369 -228.579 115.312 -239.452 117.65C-278.005 125.883 -317.245 106.831 -335.759 71.6368L-352.287 40.2324L-411.884 66.713C-366.894 172.617 -376.686 195.138 -440.858 279.234L-440.982 279.16C-441.756 278.639 -441.993 277.608 -441.529 276.796C-431.57 259.339 -420.46 234.421 -413.571 202.112C-413.114 199.965 -413.947 197.864 -415.747 196.634C-417.55 195.407 -419.788 195.407 -421.581 196.637C-430.704 202.895 -439.675 209.455 -448.444 216.362C-479.583 240.8 -523.109 240.981 -554.948 217.492L-583.36 196.53L-625.564 246.669C-539.096 322.355 -538.483 346.852 -560.173 451.773C-560.286 451.806 -560.407 451.81 -560.545 451.791C-561.465 451.669 -562.13 450.849 -562.064 449.915C-560.684 429.802 -561.502 402.476 -569.329 370.385C-569.851 368.257 -571.509 366.739 -573.656 366.432C-575.81 366.122 -577.818 367.119 -578.902 369.025C-584.389 378.695 -589.596 388.58 -594.488 398.679C-611.87 434.456 -650.898 453.941 -689.7 446.971L-724.321 440.747L-740.498 504.538C-629.869 534.195 -618.781 555.948 -592.706 660.131C-592.801 660.234 -592.929 660.315 -593.089 660.371C-593.969 660.67 -594.926 660.23 -595.269 659.362C-602.764 640.679 -615.371 616.504 -636.345 591.157C-637.736 589.48 -639.89 588.848 -641.95 589.532C-644.02 590.211 -645.389 591.999 -645.531 594.193C-646.258 605.315 -646.648 616.515 -646.652 627.758C-646.725 667.621 -673.318 702.48 -711.193 713.472L-745 723.279L-731.817 787.768C-619.785 765.262 -600.231 779.768 -531.886 861.333C-531.933 861.422 -531.992 861.503 -532.072 861.588C-532.729 862.246 -533.78 862.268 -534.467 861.644C-549.297 848.173 -571.1 832.031 -600.924 818.545C-602.903 817.651 -605.108 818.039 -606.671 819.568C-608.233 821.097 -608.693 823.31 -607.876 825.345C-603.71 835.665 -599.208 845.905 -594.349 856.011C-577.146 891.877 -585.956 935.002 -615.247 961.671L-641.384 985.47L-601.603 1037.6C-510.444 967.551 -486.68 972.102 -389.391 1015.39C-389.365 1015.53 -389.376 1015.69 -389.438 1015.85C-389.749 1016.74 -390.676 1017.23 -391.567 1016.97C-410.738 1011.47 -437.331 1006.67 -469.981 1007.82C-472.153 1007.9 -473.96 1009.23 -474.698 1011.29C-475.439 1013.36 -474.888 1015.55 -473.267 1017.01C-465.048 1024.44 -456.553 1031.63 -447.798 1038.54C-416.762 1063.11 -405.933 1105.76 -420.653 1142.74L-433.786 1175.75L-375.408 1204.88C-324.109 1101.69 -300.78 1094.97 -195.327 1090.57C-195.294 1090.65 -195.272 1090.73 -195.261 1090.83C-195.155 1091.77 -195.783 1092.62 -196.692 1092.78C-216.309 1096.33 -242.303 1103.79 -271.16 1119.28C-273.073 1120.31 -274.124 1122.31 -273.898 1124.49C-273.664 1126.68 -272.226 1128.41 -270.134 1129.01C-259.524 1132.03 -248.783 1134.74 -237.911 1137.08C-199.379 1145.42 -171.194 1178.97 -168.423 1218.75L-165.952 1254.23L-100.86 1254.57C-99.4394 1143.77 -82.7474 1124.18 0.63562 1078.05C-15.7059 1089.54 -36.1874 1107.24 -55.9644 1133.38C-57.286 1135.12 -57.4174 1137.38 -56.3076 1139.27C-55.2014 1141.15 -53.1788 1142.12 -51.032 1141.79C-40.1414 1140.07 -29.2617 1138 -18.4148 1135.55C20.0511 1126.9 59.4846 1145.54 78.3707 1180.53L95.2196 1211.75L154.54 1184.64C108.363 1079.04 118.027 1056.52 181.6 971.385C181.673 971.411 181.746 971.448 181.823 971.5C182.604 972.01 182.856 973.036 182.4 973.856C172.644 991.435 161.823 1016.48 155.317 1048.88C154.883 1051.03 155.741 1053.12 157.555 1054.33C159.37 1055.54 161.604 1055.51 163.386 1054.25C172.44 1047.89 181.334 1041.22 190.019 1034.21C220.866 1009.41 264.388 1008.7 296.501 1031.8L325.157 1052.43L366.77 1001.78C279.587 927.274 278.528 902.744 298.878 798.052C298.958 798.041 299.035 798.044 299.126 798.056C300.05 798.17 300.722 798.979 300.667 799.917C299.491 820.041 300.598 847.356 308.758 879.363C309.298 881.487 310.974 882.986 313.124 883.267C315.278 883.555 317.275 882.539 318.338 880.622C323.726 870.897 328.838 860.957 333.624 850.81C350.637 814.847 389.457 794.949 428.328 801.513L463.016 807.368L478.532 743.41C367.917 715.001 356.358 693.419 329.378 590.274C329.447 590.23 329.52 590.189 329.608 590.16C330.48 589.846 331.437 590.285 331.795 591.153C339.44 609.766 352.251 633.838 373.422 659.008C374.828 660.677 376.982 661.287 379.041 660.592C381.104 659.894 382.458 658.095 382.586 655.901C383.221 644.772 383.521 633.572 383.433 622.329C383.181 582.462 409.49 547.382 447.277 536.076L481 525.988L467.295 461.606C355.544 485.035 335.811 470.74 266.944 389.936C266.984 389.865 267.039 389.803 267.101 389.736C267.754 389.071 268.802 389.038 269.496 389.659C284.424 403.012 306.352 418.991 336.282 432.244C338.264 433.123 340.466 432.717 342.014 431.176C343.565 429.636 344.014 427.416 343.175 425.392C338.932 415.098 334.354 404.899 329.418 394.826C311.945 359.089 320.429 315.898 349.516 289.007L375.474 265.005L335.307 213.182C244.951 283.721 221.034 279.596 124.16 237.424L124.215 237.176C124.518 236.29 125.449 235.799 126.336 236.05C145.536 241.446 172.163 246.104 204.805 244.782C206.97 244.69 208.777 243.352 209.5 241.284C210.23 239.212 209.668 237.021 208.044 235.566C199.778 228.189 191.25 221.042 182.451 214.179C151.29 189.774 140.239 147.182 154.762 110.122L167.73 77.0482L109.195 48.2331C58.455 151.658 35.1622 158.544 -70.181 163.501L-70.2029 163.497ZM-132.013 211.959C94.7012 211.959 278.492 397.907 278.492 627.289C278.492 856.664 94.7012 1042.61 -132.013 1042.61C-358.73 1042.61 -542.517 856.664 -542.517 627.289C-542.517 397.907 -358.73 211.959 -132.013 211.959Z" stroke="#767676" stroke-opacity="0.3" stroke-width="2" mask="url(#path-1-inside-1_207_879)"/>
<path d="M-133.518 299.909V299.912H-133.018C-12.2142 299.912 93.1135 366.902 148.695 466.169L47.5036 535.856C14.3482 468.982 -54.0272 423.071 -133.018 423.071C-244.506 423.071 -334.869 514.506 -334.869 627.285C-334.869 740.068 -244.503 831.5 -133.018 831.5C-58.5331 831.5 6.51819 790.684 41.498 729.957L145.715 793.606C89.4056 889.999 -14.3372 954.658 -133.018 954.658C-311.718 954.658 -456.591 808.094 -456.591 627.282C-456.591 446.642 -311.989 300.182 -133.518 299.909Z" stroke="#767676" stroke-opacity="0.3"/>
</svg>
