<svg width="505" height="1295" viewBox="0 0 505 1295" fill="none" xmlns="http://www.w3.org/2000/svg">
<mask id="path-1-inside-1_207_878" fill="white">
<path d="M696.545 168.766C696.514 168.69 696.492 168.606 696.481 168.511C696.364 167.55 697.004 166.669 697.95 166.494C718.176 162.734 744.967 154.891 774.674 138.74C776.646 137.669 777.723 135.599 777.475 133.349C777.226 131.096 775.726 129.315 773.567 128.709C762.604 125.64 751.494 122.906 740.268 120.549C700.449 112.142 671.182 77.6554 668.118 36.6258L665.386 0H598.192C597.375 105.18 582.824 130.806 513.731 171.63C528.191 160.271 544.573 144.799 560.582 124.103C561.961 122.319 562.124 119.989 560.997 118.029C559.874 116.069 557.797 115.048 555.574 115.372C544.317 117.023 533.064 119.028 521.841 121.442C482.045 129.94 441.541 110.274 422.43 73.9455L405.37 41.5291L343.852 68.8631C390.292 178.18 380.185 201.427 313.944 288.233L313.816 288.157C313.017 287.619 312.772 286.555 313.251 285.716C323.532 267.697 334.999 241.976 342.111 208.625C342.582 206.41 341.723 204.241 339.865 202.971C338.003 201.705 335.693 201.705 333.842 202.975C324.425 209.434 315.165 216.205 306.113 223.335C273.971 248.561 229.042 248.747 196.177 224.502L166.85 202.864L123.285 254.619C212.54 332.743 213.173 358.03 190.784 466.333C190.667 466.367 190.543 466.371 190.399 466.352C189.45 466.226 188.764 465.379 188.832 464.415C190.256 443.654 189.412 415.447 181.332 382.321C180.793 380.125 179.082 378.558 176.866 378.242C174.643 377.921 172.57 378.951 171.451 380.918C165.787 390.9 160.413 401.103 155.363 411.527C137.421 448.458 97.1349 468.571 57.0825 461.376L21.3452 454.951L4.64665 520.799C118.842 551.412 130.287 573.865 157.202 681.405C157.104 681.512 156.972 681.596 156.806 681.653C155.898 681.962 154.911 681.508 154.557 680.612C146.82 661.327 133.807 636.372 112.156 610.209C110.721 608.478 108.497 607.826 106.372 608.531C104.235 609.233 102.822 611.078 102.675 613.343C101.925 624.823 101.521 636.384 101.518 647.99C101.442 689.138 73.9921 725.119 34.8969 736.466L0 746.589L13.6083 813.157C129.251 789.925 149.435 804.898 219.983 889.093C219.934 889.184 219.873 889.268 219.79 889.356C219.112 890.034 218.027 890.057 217.318 889.413C202.01 875.508 179.504 858.846 148.719 844.925C146.676 844.002 144.4 844.403 142.787 845.981C141.174 847.56 140.7 849.844 141.544 851.944C145.844 862.597 150.49 873.167 155.506 883.598C173.264 920.621 164.17 965.135 133.935 992.664L106.956 1017.23L148.018 1071.04C242.115 998.734 266.645 1003.43 367.07 1048.11C367.096 1048.26 367.085 1048.42 367.021 1048.59C366.701 1049.5 365.743 1050.01 364.824 1049.75C345.035 1044.07 317.585 1039.11 283.883 1040.3C281.64 1040.38 279.775 1041.75 279.014 1043.88C278.249 1046.02 278.818 1048.28 280.491 1049.79C288.974 1057.45 297.743 1064.88 306.78 1072.01C338.817 1097.37 349.995 1141.39 334.8 1179.57L321.244 1213.64L381.504 1243.71C434.456 1137.2 458.537 1130.26 567.388 1125.72C567.422 1125.8 567.445 1125.88 567.456 1125.99C567.565 1126.95 566.917 1127.83 565.979 1128C545.73 1131.66 518.898 1139.36 489.111 1155.35C487.137 1156.42 486.051 1158.48 486.285 1160.73C486.526 1162.99 488.011 1164.77 490.17 1165.39C501.122 1168.52 512.209 1171.31 523.432 1173.72C563.205 1182.33 592.298 1216.97 595.159 1258.02L597.71 1294.65L664.9 1295C666.366 1180.63 683.596 1160.41 769.666 1112.79C752.798 1124.65 731.656 1142.92 711.242 1169.9C709.878 1171.7 709.742 1174.04 710.888 1175.98C712.03 1177.93 714.117 1178.93 716.333 1178.58C727.575 1176.81 738.805 1174.68 750.002 1172.15C789.707 1163.22 830.412 1182.45 849.906 1218.57L867.298 1250.81L928.53 1222.82C880.865 1113.82 890.841 1090.57 956.463 1002.69C956.538 1002.72 956.613 1002.76 956.693 1002.81C957.499 1003.34 957.759 1004.4 957.288 1005.24C947.218 1023.39 936.048 1049.24 929.333 1082.68C928.884 1084.9 929.77 1087.06 931.643 1088.3C933.516 1089.55 935.822 1089.52 937.661 1088.23C947.007 1081.66 956.188 1074.77 965.153 1067.54C996.994 1041.94 1041.92 1041.21 1075.07 1065.06L1104.65 1086.34L1147.6 1034.07C1057.61 957.159 1056.51 931.838 1077.52 823.772C1077.6 823.76 1077.68 823.764 1077.78 823.776C1078.73 823.894 1079.42 824.729 1079.37 825.697C1078.15 846.469 1079.3 874.665 1087.72 907.703C1088.28 909.895 1090.01 911.443 1092.23 911.733C1094.45 912.03 1096.51 910.982 1097.61 909.003C1103.17 898.964 1108.45 888.704 1113.39 878.23C1130.95 841.109 1171.02 820.569 1211.14 827.344L1246.95 833.388L1262.96 767.369C1148.78 738.045 1136.85 715.766 1109 609.298C1109.07 609.252 1109.15 609.21 1109.24 609.179C1110.14 608.855 1111.13 609.309 1111.5 610.205C1119.39 629.418 1132.61 654.266 1154.47 680.246C1155.92 681.97 1158.14 682.599 1160.27 681.882C1162.4 681.161 1163.79 679.305 1163.93 677.04C1164.58 665.552 1164.89 653.991 1164.8 642.385C1164.54 601.234 1191.7 565.023 1230.7 553.352L1265.51 542.94L1251.36 476.482C1136.01 500.667 1115.64 485.911 1044.56 402.503C1044.6 402.43 1044.65 402.365 1044.72 402.297C1045.39 401.61 1046.48 401.576 1047.19 402.217C1062.6 416 1085.23 432.494 1116.13 446.174C1118.18 447.082 1120.45 446.662 1122.05 445.073C1123.65 443.483 1124.11 441.191 1123.24 439.102C1118.87 428.475 1114.14 417.948 1109.04 407.551C1091.01 370.662 1099.77 326.079 1129.79 298.321L1156.59 273.546L1115.12 220.052C1021.85 292.865 997.167 288.606 897.172 245.076L897.228 244.82C897.541 243.905 898.502 243.398 899.418 243.657C919.237 249.228 946.721 254.036 980.416 252.671C982.651 252.575 984.516 251.195 985.262 249.06C986.016 246.921 985.436 244.66 983.758 243.158C975.227 235.544 966.423 228.166 957.341 221.082C925.176 195.89 913.769 151.925 928.76 113.671L942.146 79.5313L881.724 49.7876C829.349 156.546 805.305 163.653 696.567 168.77L696.545 168.766ZM632.743 218.79C866.763 218.79 1056.48 410.731 1056.48 647.506C1056.48 884.273 866.763 1076.21 632.743 1076.21C398.718 1076.21 209.009 884.273 209.009 647.506C209.009 410.731 398.718 218.79 632.743 218.79Z"/>
</mask>
<path d="M696.545 168.766C696.514 168.69 696.492 168.606 696.481 168.511C696.364 167.55 697.004 166.669 697.95 166.494C718.176 162.734 744.967 154.891 774.674 138.74C776.646 137.669 777.723 135.599 777.475 133.349C777.226 131.096 775.726 129.315 773.567 128.709C762.604 125.64 751.494 122.906 740.268 120.549C700.449 112.142 671.182 77.6554 668.118 36.6258L665.386 0H598.192C597.375 105.18 582.824 130.806 513.731 171.63C528.191 160.271 544.573 144.799 560.582 124.103C561.961 122.319 562.124 119.989 560.997 118.029C559.874 116.069 557.797 115.048 555.574 115.372C544.317 117.023 533.064 119.028 521.841 121.442C482.045 129.94 441.541 110.274 422.43 73.9455L405.37 41.5291L343.852 68.8631C390.292 178.18 380.185 201.427 313.944 288.233L313.816 288.157C313.017 287.619 312.772 286.555 313.251 285.716C323.532 267.697 334.999 241.976 342.111 208.625C342.582 206.41 341.723 204.241 339.865 202.971C338.003 201.705 335.693 201.705 333.842 202.975C324.425 209.434 315.165 216.205 306.113 223.335C273.971 248.561 229.042 248.747 196.177 224.502L166.85 202.864L123.285 254.619C212.54 332.743 213.173 358.03 190.784 466.333C190.667 466.367 190.543 466.371 190.399 466.352C189.45 466.226 188.764 465.379 188.832 464.415C190.256 443.654 189.412 415.447 181.332 382.321C180.793 380.125 179.082 378.558 176.866 378.242C174.643 377.921 172.57 378.951 171.451 380.918C165.787 390.9 160.413 401.103 155.363 411.527C137.421 448.458 97.1349 468.571 57.0825 461.376L21.3452 454.951L4.64665 520.799C118.842 551.412 130.287 573.865 157.202 681.405C157.104 681.512 156.972 681.596 156.806 681.653C155.898 681.962 154.911 681.508 154.557 680.612C146.82 661.327 133.807 636.372 112.156 610.209C110.721 608.478 108.497 607.826 106.372 608.531C104.235 609.233 102.822 611.078 102.675 613.343C101.925 624.823 101.521 636.384 101.518 647.99C101.442 689.138 73.9921 725.119 34.8969 736.466L0 746.589L13.6083 813.157C129.251 789.925 149.435 804.898 219.983 889.093C219.934 889.184 219.873 889.268 219.79 889.356C219.112 890.034 218.027 890.057 217.318 889.413C202.01 875.508 179.504 858.846 148.719 844.925C146.676 844.002 144.4 844.403 142.787 845.981C141.174 847.56 140.7 849.844 141.544 851.944C145.844 862.597 150.49 873.167 155.506 883.598C173.264 920.621 164.17 965.135 133.935 992.664L106.956 1017.23L148.018 1071.04C242.115 998.734 266.645 1003.43 367.07 1048.11C367.096 1048.26 367.085 1048.42 367.021 1048.59C366.701 1049.5 365.743 1050.01 364.824 1049.75C345.035 1044.07 317.585 1039.11 283.883 1040.3C281.64 1040.38 279.775 1041.75 279.014 1043.88C278.249 1046.02 278.818 1048.28 280.491 1049.79C288.974 1057.45 297.743 1064.88 306.78 1072.01C338.817 1097.37 349.995 1141.39 334.8 1179.57L321.244 1213.64L381.504 1243.71C434.456 1137.2 458.537 1130.26 567.388 1125.72C567.422 1125.8 567.445 1125.88 567.456 1125.99C567.565 1126.95 566.917 1127.83 565.979 1128C545.73 1131.66 518.898 1139.36 489.111 1155.35C487.137 1156.42 486.051 1158.48 486.285 1160.73C486.526 1162.99 488.011 1164.77 490.17 1165.39C501.122 1168.52 512.209 1171.31 523.432 1173.72C563.205 1182.33 592.298 1216.97 595.159 1258.02L597.71 1294.65L664.9 1295C666.366 1180.63 683.596 1160.41 769.666 1112.79C752.798 1124.65 731.656 1142.92 711.242 1169.9C709.878 1171.7 709.742 1174.04 710.888 1175.98C712.03 1177.93 714.117 1178.93 716.333 1178.58C727.575 1176.81 738.805 1174.68 750.002 1172.15C789.707 1163.22 830.412 1182.45 849.906 1218.57L867.298 1250.81L928.53 1222.82C880.865 1113.82 890.841 1090.57 956.463 1002.69C956.538 1002.72 956.613 1002.76 956.693 1002.81C957.499 1003.34 957.759 1004.4 957.288 1005.24C947.218 1023.39 936.048 1049.24 929.333 1082.68C928.884 1084.9 929.77 1087.06 931.643 1088.3C933.516 1089.55 935.822 1089.52 937.661 1088.23C947.007 1081.66 956.188 1074.77 965.153 1067.54C996.994 1041.94 1041.92 1041.21 1075.07 1065.06L1104.65 1086.34L1147.6 1034.07C1057.61 957.159 1056.51 931.838 1077.52 823.772C1077.6 823.76 1077.68 823.764 1077.78 823.776C1078.73 823.894 1079.42 824.729 1079.37 825.697C1078.15 846.469 1079.3 874.665 1087.72 907.703C1088.28 909.895 1090.01 911.443 1092.23 911.733C1094.45 912.03 1096.51 910.982 1097.61 909.003C1103.17 898.964 1108.45 888.704 1113.39 878.23C1130.95 841.109 1171.02 820.569 1211.14 827.344L1246.95 833.388L1262.96 767.369C1148.78 738.045 1136.85 715.766 1109 609.298C1109.07 609.252 1109.15 609.21 1109.24 609.179C1110.14 608.855 1111.13 609.309 1111.5 610.205C1119.39 629.418 1132.61 654.266 1154.47 680.246C1155.92 681.97 1158.14 682.599 1160.27 681.882C1162.4 681.161 1163.79 679.305 1163.93 677.04C1164.58 665.552 1164.89 653.991 1164.8 642.385C1164.54 601.234 1191.7 565.023 1230.7 553.352L1265.51 542.94L1251.36 476.482C1136.01 500.667 1115.64 485.911 1044.56 402.503C1044.6 402.43 1044.65 402.365 1044.72 402.297C1045.39 401.61 1046.48 401.576 1047.19 402.217C1062.6 416 1085.23 432.494 1116.13 446.174C1118.18 447.082 1120.45 446.662 1122.05 445.073C1123.65 443.483 1124.11 441.191 1123.24 439.102C1118.87 428.475 1114.14 417.948 1109.04 407.551C1091.01 370.662 1099.77 326.079 1129.79 298.321L1156.59 273.546L1115.12 220.052C1021.85 292.865 997.167 288.606 897.172 245.076L897.228 244.82C897.541 243.905 898.502 243.398 899.418 243.657C919.237 249.228 946.721 254.036 980.416 252.671C982.651 252.575 984.516 251.195 985.262 249.06C986.016 246.921 985.436 244.66 983.758 243.158C975.227 235.544 966.423 228.166 957.341 221.082C925.176 195.89 913.769 151.925 928.76 113.671L942.146 79.5313L881.724 49.7876C829.349 156.546 805.305 163.653 696.567 168.77L696.545 168.766ZM632.743 218.79C866.763 218.79 1056.48 410.731 1056.48 647.506C1056.48 884.273 866.763 1076.21 632.743 1076.21C398.718 1076.21 209.009 884.273 209.009 647.506C209.009 410.731 398.718 218.79 632.743 218.79Z" stroke="#767676" stroke-opacity="0.3" stroke-width="2" mask="url(#path-1-inside-1_207_878)"/>
<path d="M631.205 309.558V309.562H631.705C756.413 309.562 865.145 378.719 922.519 481.198L818.038 553.15C783.82 484.116 713.242 436.722 631.705 436.722C516.633 436.722 423.365 531.097 423.365 647.502C423.365 763.91 516.637 858.282 631.705 858.282C708.59 858.282 775.737 816.147 811.84 753.46L919.442 819.177C861.318 918.689 754.222 985.441 631.705 985.441C447.236 985.441 297.688 834.146 297.688 647.498C297.688 461.022 446.966 309.832 631.205 309.558Z" stroke="#767676" stroke-opacity="0.3"/>
</svg>
