<svg width="85" height="86" viewBox="0 0 85 86" fill="none" xmlns="http://www.w3.org/2000/svg">
<rect x="1.5" y="2.05469" width="82" height="82" rx="41" stroke="#CD7A48" stroke-width="3"/>
<path d="M60.1666 43.9082C64.3019 39.1241 65.0524 32.5029 63.6531 28.4224C62.8792 26.1632 61.4721 24.717 59.6976 24.3261H59.7054L59.6663 24.3183C59.6507 24.3105 59.6273 24.3027 59.6116 24.3027C59.6038 24.3027 59.596 24.3027 59.5882 24.3027L37.0903 19.6593C34.581 19.1668 32.2983 20.441 31.2821 22.9112C30.3206 25.2564 30.8678 27.7892 32.5798 28.9226C32.6736 28.9852 32.7752 29.0321 32.8846 29.0555L35.863 29.7904C35.5737 32.6046 29.3982 40.4218 24.7469 45.456C21.792 48.8722 20.3458 52.515 20.7758 55.4308C21.065 57.4086 22.1594 59.0111 24.0277 60.1915C24.1294 60.254 24.2388 60.2931 24.3482 60.3166C24.3482 60.3166 24.3482 60.3166 24.3482 60.3244L51.5443 66.4218V66.414C51.9664 66.5078 52.3885 66.5547 52.8028 66.5547C54.1318 66.5547 55.4294 66.1013 56.4926 65.218C58.6266 63.4356 59.3146 60.3244 58.3452 56.8848C58.3452 56.877 58.3452 56.877 58.3452 56.8692C58.3374 56.8535 58.3374 56.8379 58.3296 56.8145L58.3218 56.8223C58.2202 56.4705 57.9387 56.1891 57.5557 56.1187L50.5359 54.8367C50.8798 54.3599 51.255 53.8752 51.6693 53.3905L60.1666 43.9082ZM33.1113 23.6617C33.3615 23.0597 34.3464 21.1289 36.6994 21.5979L55.6874 25.5143C55.3356 25.8739 55.0229 26.3039 54.7571 26.8042C53.8894 28.4458 53.6471 30.5643 53.9989 32.2371L33.5569 27.1716C32.6267 26.4446 32.6267 24.8499 33.1113 23.6617ZM22.7379 55.1494C22.394 52.8277 23.7072 49.693 26.2322 46.7771C28.124 44.729 36.7854 35.1373 37.7469 30.2594L55.4998 34.6527C55.5779 34.6761 55.6561 34.6839 55.7343 34.6839C56.0861 34.6839 56.4222 34.4963 56.5942 34.1836C56.8131 33.7928 56.7427 33.3081 56.43 32.9954C55.7265 32.2997 55.4685 29.6653 56.4926 27.7422C57.1336 26.5384 58.0716 26.0381 59.2833 26.2648C60.7217 26.5931 61.4643 28.1566 61.7848 29.0712C62.973 32.5264 62.2851 38.444 58.6814 42.6106L50.1919 52.0928C48.4721 54.0784 45.7048 57.948 46.424 61.5673C46.5569 62.2474 46.8149 62.8728 47.1745 63.4435L24.9814 58.4482C23.6994 57.5962 22.9412 56.4861 22.7379 55.1494ZM56.5707 57.948C57.1336 60.426 56.6724 62.4976 55.234 63.7014C54.0458 64.6942 52.3885 64.8505 50.9111 64.1157C49.4493 63.3809 48.6128 62.4194 48.3627 61.1765C48.1125 59.9101 48.4799 58.3388 49.3946 56.6425L56.5707 57.948Z" fill="#CD7A48"/>
<path d="M37.9189 51.8665C38.1143 52.062 38.3644 52.1558 38.6146 52.1558C38.8647 52.1558 39.1227 52.062 39.3103 51.8665L49.1913 41.9856C49.5743 41.6025 49.5743 40.9771 49.1913 40.5863L47.2135 38.6085C46.8305 38.2255 46.2051 38.2255 45.8142 38.6085L38.6068 45.816L36.3398 43.549C35.9568 43.166 35.3314 43.166 34.9405 43.549L32.9628 45.5268C32.7751 45.7144 32.6735 45.9645 32.6735 46.2225C32.6735 46.4805 32.7751 46.7384 32.9628 46.9182L37.9189 51.8665ZM35.6519 45.6518L37.9189 47.9188C38.3019 48.3019 38.9273 48.3019 39.3181 47.9188L46.5256 40.7114L47.1041 41.2898L38.6224 49.7715L35.0812 46.2303L35.6519 45.6518Z" fill="#CD7A48"/>
</svg>
