<svg width="85" height="86" viewBox="0 0 85 86" fill="none" xmlns="http://www.w3.org/2000/svg">
<rect x="1.5" y="2.0542" width="82" height="82" rx="41" stroke="#CD7A48" stroke-width="3"/>
<path d="M52.7111 30.0757C54.2621 30.0757 55.6599 30.1762 57.0386 30.0518C58.9869 29.8748 60.2699 30.6162 61.4044 32.2139C63.7405 35.5048 66.2585 38.6665 68.7382 41.857C69.2792 42.5506 69.5137 43.2585 69.4994 44.1386C69.4563 47.0804 69.4898 50.0269 69.485 52.9734C69.4802 54.9441 68.3983 56.0491 66.4213 56.1065C65.933 56.1208 65.4399 56.1065 64.8607 56.1065C64.7267 56.3983 64.5878 56.6948 64.449 56.9962C63.6256 58.809 62.0028 59.8757 60.0497 59.7896C58.0487 59.7035 56.6461 58.7038 55.8753 56.8431C55.8035 56.6709 55.7317 56.4939 55.6551 56.3217C55.6408 56.2882 55.612 56.2643 55.5355 56.1734C48.7282 56.1734 41.8731 56.1734 34.9701 56.1734C34.1755 58.4264 32.7059 59.8566 30.2118 59.7848C27.8853 59.7179 26.4922 58.3498 25.7454 56.1065C24.7354 56.1065 23.7205 56.1113 22.7056 56.1065C21.2169 56.1017 21.0349 55.9151 21.0397 54.3893C21.0397 51.6724 21.0445 48.9507 21.0445 46.2337C21.0445 45.8272 21.0445 45.4206 21.0445 44.8848C20.2977 44.8848 19.6658 44.8848 19.0339 44.8848C18.1292 44.8801 17.2196 44.8848 16.3149 44.8657C15.8218 44.8561 15.5585 44.5596 15.5059 44.086C15.4532 43.6077 15.7596 43.2107 16.2574 43.1102C16.4393 43.072 16.6356 43.0863 16.8223 43.0863C19.0148 43.0863 21.2073 43.0863 23.395 43.0863C23.5817 43.0863 23.7779 43.072 23.9599 43.1102C24.4194 43.2059 24.6923 43.5025 24.7306 43.9665C24.7689 44.4352 24.4386 44.7892 23.9072 44.8705C23.6152 44.9135 23.3136 44.9183 23.0312 44.9375C22.811 45.765 22.7439 52.4568 22.945 54.2123C23.8402 54.3797 24.7593 54.3127 25.7119 54.2506C26.5114 51.9259 28.0001 50.4813 30.5517 50.5674C32.8878 50.6487 34.2473 52.0455 34.9797 54.2266C40.2503 54.2266 45.5209 54.2266 50.8537 54.2266C50.8537 45.5258 50.8537 36.9015 50.8537 28.2007C41.5332 28.2007 32.2654 28.2007 22.9258 28.2007C22.9258 29.4491 22.9258 30.6354 22.9258 31.8743C23.3232 31.903 23.6535 31.9125 23.9838 31.9604C24.4673 32.0321 24.721 32.3622 24.7354 32.8166C24.7449 33.2758 24.4864 33.6058 24.0221 33.7063C23.8067 33.7541 23.5721 33.7397 23.3471 33.7397C21.1929 33.7397 19.0387 33.7397 16.8845 33.7397C16.6978 33.7397 16.5016 33.7541 16.3197 33.7206C15.7787 33.6297 15.5106 33.3045 15.525 32.7974C15.5394 32.2713 15.7931 31.9747 16.3771 31.9556C17.3968 31.9173 18.4164 31.9412 19.4361 31.9412C19.9196 31.9412 20.403 31.9412 20.9536 31.9412C20.9919 31.5586 21.0397 31.2716 21.0445 30.9846C21.0541 29.9657 21.0445 28.9469 21.0445 27.928C21.0445 26.5409 21.2456 26.3304 22.5907 26.3208C22.6673 26.3208 22.7439 26.3208 22.8157 26.3208C32.2607 26.3208 41.7056 26.3161 51.1505 26.3161C51.2654 26.3161 51.3755 26.3113 51.4904 26.3161C52.4143 26.3543 52.6967 26.6318 52.7159 27.5454C52.7254 28.325 52.7111 29.1143 52.7111 30.0757ZM60.2459 33.7732C59.9156 33.3379 59.7002 33.1179 59.5662 32.8596C59.1353 32.056 58.4747 31.8264 57.5891 31.8695C56.2679 31.9317 54.9466 31.879 53.6254 31.8934C53.343 31.8934 53.0557 31.9556 52.7925 31.9843C52.5962 34.2229 52.6776 53.3465 52.8882 54.2314C53.7738 54.2314 54.6642 54.2314 55.5738 54.2314C56.3062 52.0072 57.704 50.6009 60.088 50.5531C62.5868 50.5052 64.0469 51.9402 64.8128 54.174C64.9612 54.2123 65.0665 54.2601 65.1766 54.2649C65.4782 54.2793 65.7798 54.2888 66.0814 54.284C67.4314 54.2745 67.6851 54.0257 67.6899 52.7103C67.6946 50.2182 67.6946 47.7309 67.6899 45.2388C67.6899 44.9088 67.6516 44.5787 67.6228 44.1243C67.1585 44.1243 66.7564 44.1243 66.3495 44.1243C62.9123 44.1243 59.4752 44.1291 56.0381 44.1195C54.8892 44.1147 54.6163 43.8421 54.6068 42.7276C54.5924 40.1972 54.5924 37.6716 54.6068 35.1413C54.6115 34.0267 54.894 33.7732 56.0429 33.7684C57.3593 33.7637 58.6758 33.7732 60.2459 33.7732ZM66.7085 42.2875C64.9708 40.0059 63.3815 37.9156 61.773 35.8396C61.6581 35.6913 61.3853 35.5909 61.1842 35.5861C59.6476 35.567 58.1109 35.5765 56.4211 35.5765C56.4163 37.8677 56.3301 40.0585 56.4833 42.2875C59.8869 42.2875 63.1613 42.2875 66.7085 42.2875ZM27.5502 55.1976C27.5167 56.6518 28.7469 57.9337 30.2453 58.0007C31.7484 58.0676 33.1463 56.7857 33.1893 55.3077C33.2324 53.7674 31.8681 52.2894 30.3602 52.3707C28.6033 52.4568 27.6172 53.6957 27.5502 55.1976ZM62.9842 55.2598C63.0081 53.7196 61.7826 52.3659 60.2603 52.3659C58.9151 52.3659 57.4934 53.2843 57.3928 55.1259C57.3115 56.6326 58.6088 57.972 60.1263 58.0007C61.6725 58.0246 62.9602 56.7905 62.9842 55.2598Z" fill="#CD7A48"/>
</svg>
