<svg width="85" height="86" viewBox="0 0 85 86" fill="none" xmlns="http://www.w3.org/2000/svg">
<rect x="1.5" y="2.05469" width="82" height="82" rx="41" stroke="#CD7A48" stroke-width="3"/>
<path d="M64.0764 47.3647C64.0764 42.4021 60.2824 38.3046 55.4489 37.8266V33.6152C55.4489 32.348 54.9405 31.1112 54.0451 30.2234L44.7802 20.9585C43.8924 20.0707 42.6555 19.5547 41.3883 19.5547H25.7192C23.0786 19.5547 20.9236 21.7021 20.9236 24.3503V56.9559C20.9236 59.5965 23.071 61.7515 25.7192 61.7515H49.6972V65.591C49.6972 65.978 49.9324 66.3271 50.289 66.4788C50.6457 66.6306 51.063 66.5471 51.3362 66.2739L54.4928 63.1173L57.6494 66.2739C57.8315 66.456 58.0819 66.5547 58.3247 66.5547C58.4461 66.5547 58.5751 66.5319 58.6889 66.4788C59.0456 66.3271 59.2808 65.978 59.2808 65.591V55.6583C62.1491 53.9966 64.0764 50.9083 64.0764 47.3647ZM52.6869 31.5817C52.8234 31.7182 52.9448 31.87 53.0511 32.0293H44.9016C43.3157 32.0293 42.0257 30.7394 42.0257 29.1535V21.5503C42.5493 21.6717 43.0425 21.9297 43.4295 22.3167L52.6869 31.5817ZM25.7192 59.8317C24.1333 59.8317 22.8433 58.5418 22.8433 56.9559V24.3503C22.8433 22.7644 24.1333 21.4744 25.7192 21.4744H40.106V29.1459C40.106 31.7865 42.2534 33.9415 44.9016 33.9415H53.5291V37.8266C48.688 38.3122 44.9016 42.4021 44.9016 47.3647C44.9016 50.9083 46.8365 53.9966 49.6972 55.6583V59.8317H25.7192ZM57.3686 63.2767L55.1681 61.0762C54.7963 60.7044 54.1893 60.7044 53.8099 61.0762L51.6093 63.2767V56.5158C52.5199 56.8041 53.4836 56.9559 54.4852 56.9559C55.4868 56.9559 56.4505 56.7965 57.361 56.5158V63.2767H57.3686ZM54.4928 55.0437C50.2663 55.0437 46.8213 51.5988 46.8213 47.3723C46.8213 43.1457 50.2663 39.7008 54.4928 39.7008C58.7193 39.7008 62.1642 43.1457 62.1642 47.3723C62.1642 51.5988 58.7193 55.0437 54.4928 55.0437Z" fill="#CD7A48"/>
<path d="M57.6115 43.8514L53.2104 48.7987L51.3665 46.7272C51.0175 46.3327 50.4105 46.2947 50.0159 46.6514C49.6213 47.0004 49.5834 47.6074 49.94 48.002L52.4972 50.8779C52.6793 51.0827 52.9373 51.1966 53.2104 51.1966C53.4836 51.1966 53.7416 51.0827 53.9237 50.8779L59.038 45.1262C59.387 44.7316 59.3567 44.1246 58.9621 43.7755C58.5675 43.4189 57.9605 43.4568 57.6115 43.8514Z" fill="#CD7A48"/>
<path d="M42.0258 35.8612H26.6829C26.1517 35.8612 25.7268 36.2938 25.7268 36.8173C25.7268 37.3485 26.1593 37.7734 26.6829 37.7734H42.0258C42.5569 37.7734 42.9818 37.3409 42.9818 36.8173C42.9818 36.2862 42.5493 35.8612 42.0258 35.8612Z" fill="#CD7A48"/>
<path d="M42.0258 41.6131H26.6829C26.1517 41.6131 25.7268 42.0456 25.7268 42.5691C25.7268 43.1003 26.1593 43.5252 26.6829 43.5252H42.0258C42.5569 43.5252 42.9818 43.0927 42.9818 42.5691C42.9818 42.0456 42.5493 41.6131 42.0258 41.6131Z" fill="#CD7A48"/>
<path d="M42.0258 47.3647H26.6829C26.1517 47.3647 25.7268 47.7972 25.7268 48.3208C25.7268 48.852 26.1593 49.2769 26.6829 49.2769H42.0258C42.5569 49.2769 42.9818 48.8444 42.9818 48.3208C42.9818 47.7972 42.5493 47.3647 42.0258 47.3647Z" fill="#CD7A48"/>
<path d="M32.4345 53.124H26.6829C26.1517 53.124 25.7268 53.5565 25.7268 54.0801C25.7268 54.6113 26.1593 55.0362 26.6829 55.0362H32.4345C32.9657 55.0362 33.3906 54.6037 33.3906 54.0801C33.3906 53.5489 32.9657 53.124 32.4345 53.124Z" fill="#CD7A48"/>
</svg>
