<svg width="71" height="71" viewBox="0 0 71 71" fill="none" xmlns="http://www.w3.org/2000/svg">
<rect x="0.546631" y="0.338379" width="70" height="70" rx="35" fill="#CD7A48"/>
<path d="M48.0674 28.6265L43.6956 26.7003C44.0643 25.9365 44.2788 25.0787 44.2788 24.172C44.2788 22.0313 42.5369 20.2894 40.3961 20.2894C38.3721 20.2894 36.585 21.3278 35.5429 22.9004C34.4969 21.3278 32.7136 20.2894 30.6896 20.2894C28.5488 20.2894 26.8069 22.0313 26.8069 24.172C26.8069 25.0787 27.0214 25.9328 27.3901 26.7003L23.0146 28.6265C22.6609 28.7808 22.4352 29.1307 22.4352 29.5144V44.0781C22.4352 44.4618 22.6609 44.8117 23.0146 44.966L35.1516 50.3046C35.1553 50.3046 35.1553 50.3046 35.1591 50.3084C35.2155 50.3309 35.272 50.3498 35.3322 50.3648C35.3359 50.3648 35.3435 50.3686 35.3472 50.3686C35.4112 50.3836 35.4789 50.3874 35.5466 50.3874C35.6143 50.3874 35.6821 50.3799 35.746 50.3686C35.7498 50.3686 35.7573 50.3648 35.7611 50.3648C35.8213 50.3498 35.8777 50.3347 35.9341 50.3084C35.9379 50.3084 35.9379 50.3084 35.9416 50.3046L48.0787 44.966C48.4323 44.8117 48.658 44.4618 48.658 44.0781V29.5144C48.6468 29.1269 48.421 28.7808 48.0674 28.6265ZM31.2727 29.8342L29.0567 30.9403L25.8137 29.5144L28.5375 28.318C29.2825 29.0517 30.223 29.5821 31.2727 29.8342ZM35.5429 28.0584C36.0771 28.0584 36.5135 28.4949 36.5135 29.0291C36.5135 29.5633 36.0771 29.9998 35.5429 29.9998C35.0086 29.9998 34.5722 29.5633 34.5722 29.0291C34.5722 28.4911 35.0048 28.0584 35.5429 28.0584ZM35.5429 31.9411C36.4082 31.9411 37.1832 31.5611 37.7174 30.9591L39.7152 31.9561L35.5429 33.7921L31.3705 31.9561L33.3683 30.9591C33.8987 31.5611 34.6775 31.9411 35.5429 31.9411ZM34.6249 35.5114C34.591 35.6093 34.5684 35.7146 34.5684 35.8237V47.9269L30.2005 46.0044V33.5664L34.6249 35.5114ZM36.4571 35.5114L40.8815 33.5626V46.0044L36.5135 47.9269V35.8237C36.5135 35.7146 36.4909 35.6093 36.4571 35.5114ZM42.0214 30.9403L39.8055 29.8342C40.8551 29.5821 41.7957 29.0517 42.5406 28.318L45.2645 29.5144L42.0214 30.9403ZM40.3961 22.2307C41.4684 22.2307 42.3375 23.0998 42.3375 24.172C42.3375 26.3128 40.5955 28.0547 38.4548 28.0547H38.2855C37.9921 27.2307 37.3374 26.5761 36.5135 26.2827V26.1134C36.5135 23.9726 38.2554 22.2307 40.3961 22.2307ZM30.6858 22.2307C32.8265 22.2307 34.5684 23.9726 34.5684 26.1134V26.2827C33.7445 26.5761 33.0899 27.2307 32.7964 28.0547H32.6271C30.4864 28.0547 28.7445 26.3128 28.7445 24.172C28.7445 23.1036 29.6173 22.2307 30.6858 22.2307ZM24.3765 31.0005L28.2591 32.7086V45.1503L24.3765 43.4423V31.0005ZM42.8228 45.1541V32.7123L46.7054 31.0043V43.4423L42.8228 45.1541Z" fill="#1D252B"/>
</svg>
