<svg width="85" height="86" viewBox="0 0 85 86" fill="none" xmlns="http://www.w3.org/2000/svg">
<rect x="1.5" y="2.05469" width="82" height="82" rx="41" stroke="#CD7A48" stroke-width="3"/>
<path d="M65.4796 34.4016L43.0378 19.7133C42.7134 19.5018 42.2952 19.5018 41.9708 19.7133L19.5256 34.4016C18.4653 35.0999 19.5156 36.7417 20.5927 36.04L22.9877 34.4721V63.617C22.9877 65.2386 24.3023 66.5547 25.9146 66.5547H59.094C60.7096 66.5547 62.0209 65.2386 62.0209 63.617V34.4755C62.3989 34.6568 64.5397 36.3019 64.9478 36.2011C65.8777 36.2381 66.2958 34.8951 65.4796 34.4016ZM53.2368 64.5974H51.2867V57.7417C51.2867 57.2012 50.8518 56.7614 50.3099 56.7614H47.383V49.9057C47.383 49.3652 46.9482 48.9254 46.4063 48.9254H38.599C38.0604 48.9254 37.6222 49.3652 37.6222 49.9057V56.7614H34.6953C34.1568 56.7614 33.7186 57.2012 33.7186 57.7417V64.5974H31.7684V46.9714H53.2368V64.5974ZM39.5757 56.7647V50.8894H45.4295V56.7647H39.5757ZM35.6721 58.7221H41.5259V64.5974H35.6721V58.7221ZM43.4794 64.5974V58.7221H49.3332V64.5974H43.4794ZM60.0674 63.6204C60.0674 64.1609 59.6292 64.6007 59.0906 64.6007H55.187V45.9944C55.187 45.4539 54.7521 45.0141 54.2102 45.0141H30.7917C30.2531 45.0141 29.8149 45.4539 29.8149 45.9944V64.6007H25.9146C25.3761 64.6007 24.9379 64.1609 24.9379 63.6204V33.1963L42.5026 21.7009L60.0674 33.1963V63.6204ZM50.3099 39.1388C50.3099 39.6793 49.8751 40.1191 49.3332 40.1191H35.6721C35.1335 40.1191 34.6953 39.6793 34.6953 39.1388C34.6953 38.5983 35.1335 38.1585 35.6721 38.1585H49.3332C49.8751 38.1585 50.3099 38.5983 50.3099 39.1388ZM35.6721 33.2635H49.3332C49.8717 33.2635 50.3099 33.7033 50.3099 34.2438C50.3099 34.7843 49.8751 35.2242 49.3332 35.2242H35.6721C35.1335 35.2242 34.6953 34.7843 34.6953 34.2438C34.6953 33.7033 35.1335 33.2635 35.6721 33.2635Z" fill="#CD7A48"/>
</svg>
