<svg width="85" height="86" viewBox="0 0 85 86" fill="none" xmlns="http://www.w3.org/2000/svg">
<rect x="1.5" y="2.0542" width="82" height="82" rx="41" stroke="#CD7A48" stroke-width="3"/>
<path d="M42.5001 25.6681C43.2805 25.6681 43.9133 25.0354 43.9133 24.2549C43.9133 23.4744 43.2805 22.8417 42.5001 22.8417C41.7196 22.8417 41.0869 23.4744 41.0869 24.2549C41.0869 25.0354 41.7196 25.6681 42.5001 25.6681Z" fill="#CD7A48"/>
<path d="M54.7204 24.2549H51.1651C50.6519 23.6822 49.9081 23.3178 49.0751 23.3178H47.1041C46.6652 21.1757 44.7686 19.5542 42.5 19.5542C40.2315 19.5542 38.3348 21.1682 37.896 23.3178H35.9249C35.0919 23.3178 34.3555 23.6822 33.8349 24.2549H30.2796C27.6912 24.2549 25.5788 26.3599 25.5788 28.9557V61.8535C25.5788 64.4418 27.6838 66.5542 30.2796 66.5542H54.7204C57.3088 66.5542 59.4212 64.4493 59.4212 61.8535V28.9557C59.4212 26.3673 57.3163 24.2549 54.7204 24.2549ZM34.9803 26.1367C34.9803 25.6161 35.4043 25.1996 35.9175 25.1996H38.7365C39.2571 25.1996 39.6736 24.7756 39.6736 24.2624C39.6736 22.7079 40.9381 21.4434 42.4926 21.4434C44.0471 21.4434 45.3115 22.7079 45.3115 24.2624C45.3115 24.783 45.7355 25.1996 46.2487 25.1996H49.0676C49.5883 25.1996 50.0048 25.6235 50.0048 26.1367V28.9557H34.9655V26.1367H34.9803ZM50.0197 30.8375C50.7486 30.8375 51.3734 30.421 51.6858 29.811H53.7833V60.9981H31.2242V29.811H33.3217C33.6341 30.4135 34.2588 30.8375 34.9878 30.8375H50.0197ZM57.5394 61.8609C57.5394 63.4154 56.2749 64.6798 54.7204 64.6798H30.2796C28.7251 64.6798 27.4606 63.4154 27.4606 61.8609V28.9631C27.4606 27.4086 28.7251 26.1442 30.2796 26.1442H33.0985V27.9367H31.2168C30.1829 27.9367 29.335 28.7772 29.335 29.8185V61.0055C29.335 62.0394 30.1755 62.8873 31.2168 62.8873H53.7758C54.8097 62.8873 55.6576 62.0468 55.6576 61.0055V29.8185C55.6576 28.7846 54.8171 27.9367 53.7758 27.9367H51.894V26.1442H54.713C56.2675 26.1442 57.532 27.4086 57.532 28.9631V61.8609H57.5394Z" fill="#CD7A48"/>
<path d="M33.3738 38.0816L35.2556 39.9634C35.4415 40.1494 35.6795 40.2386 35.9176 40.2386C36.1556 40.2386 36.401 40.1494 36.5795 39.9634L40.3431 36.1998C40.7075 35.8354 40.7075 35.2404 40.3431 34.8685C39.9786 34.504 39.3836 34.504 39.0117 34.8685L35.9176 37.9626L34.7052 36.7502C34.3407 36.3858 33.7457 36.3858 33.3738 36.7502C33.0019 37.1147 33.0093 37.7172 33.3738 38.0816Z" fill="#CD7A48"/>
<path d="M39.0191 43.3333L35.925 46.4275L34.7126 45.2151C34.3481 44.8506 33.7531 44.8506 33.3812 45.2151C33.0168 45.5795 33.0168 46.1746 33.3812 46.5465L35.263 48.4282C35.4489 48.6142 35.6869 48.7034 35.925 48.7034C36.163 48.7034 36.4084 48.6142 36.5869 48.4282L40.3505 44.6647C40.7149 44.3002 40.7149 43.7052 40.3505 43.3333C39.986 42.9614 39.3836 42.9688 39.0191 43.3333Z" fill="#CD7A48"/>
<path d="M39.0191 51.7968L35.925 54.8909L34.7126 53.6786C34.3481 53.3141 33.7531 53.3141 33.3812 53.6786C33.0168 54.043 33.0168 54.6381 33.3812 55.01L35.263 56.8917C35.4489 57.0777 35.6869 57.1669 35.925 57.1669C36.163 57.1669 36.4084 57.0777 36.5869 56.8917L40.3505 53.1282C40.7149 52.7637 40.7149 52.1687 40.3505 51.7968C39.986 51.4249 39.3836 51.4249 39.0191 51.7968Z" fill="#CD7A48"/>
<path d="M42.5 39.302H50.9568C51.4775 39.302 51.894 38.8781 51.894 38.3649C51.894 37.8442 51.4701 37.4277 50.9568 37.4277H42.5C41.9793 37.4277 41.5628 37.8517 41.5628 38.3649C41.5628 38.8781 41.9793 39.302 42.5 39.302Z" fill="#CD7A48"/>
<path d="M42.5 47.7587H50.9568C51.4775 47.7587 51.894 47.3347 51.894 46.8215C51.894 46.3083 51.4701 45.8843 50.9568 45.8843H42.5C41.9793 45.8843 41.5628 46.3083 41.5628 46.8215C41.5628 47.3347 41.9793 47.7587 42.5 47.7587Z" fill="#CD7A48"/>
<path d="M42.5 56.2155H50.9568C51.4775 56.2155 51.894 55.7915 51.894 55.2783C51.894 54.7651 51.4701 54.3411 50.9568 54.3411H42.5C41.9793 54.3411 41.5628 54.7651 41.5628 55.2783C41.5628 55.7915 41.9793 56.2155 42.5 56.2155Z" fill="#CD7A48"/>
</svg>
