<svg width="71" height="71" viewBox="0 0 71 71" fill="none" xmlns="http://www.w3.org/2000/svg">
<rect x="0.293518" y="0.338379" width="70" height="70" rx="35" fill="#CD7A48"/>
<path d="M54.6103 34.9494C54.5084 35.2589 54.3462 35.5451 54.133 35.7916C53.9199 36.038 53.6601 36.2398 53.3685 36.3852L49.6929 38.223L41.1434 46.774C40.9917 46.9256 40.8033 47.0353 40.5966 47.0924C40.3898 47.1495 40.1718 47.1521 39.9638 47.1L30.0298 44.6165C29.8787 44.5785 29.736 44.5127 29.6091 44.4224L20.9914 38.2696L17.2226 36.3852C16.6336 36.0908 16.1857 35.5744 15.9773 34.9498C15.7689 34.3252 15.8171 33.6433 16.1113 33.0542L19.9685 25.3414C20.2629 24.7524 20.7792 24.3044 21.4039 24.096C22.0285 23.8876 22.7103 23.9358 23.2995 24.23L26.7236 25.9374L34.9502 23.5874C35.1734 23.5235 35.41 23.5235 35.6332 23.5874L43.8598 25.9374L47.2839 24.23C47.873 23.9358 48.5549 23.8876 49.1795 24.096C49.8042 24.3044 50.3205 24.7524 50.6149 25.3414L54.4721 33.0542C54.6192 33.3453 54.7072 33.6627 54.7309 33.988C54.7546 34.3133 54.7136 34.6401 54.6103 34.9494ZM47.4422 36.9579L43.2187 28.5109H38.2797L31.568 35.0301C33.5331 36.2859 36.6142 36.632 39.3786 33.8458C39.5945 33.6282 39.8833 33.4981 40.1893 33.4806C40.4954 33.4632 40.7971 33.5595 41.0363 33.7511L46.3774 38.0305L47.4422 36.9579ZM18.3325 34.164L21.0783 35.5377L24.9355 27.8249L22.1897 26.4512L18.3325 34.164ZM44.6064 39.7891L40.3053 36.3448C37.2723 38.8283 33.4213 39.1559 30.23 37.1209C29.9161 36.9212 29.651 36.6536 29.4544 36.3377C29.2579 36.0218 29.1348 35.6658 29.0942 35.296C29.0537 34.9262 29.0968 34.5519 29.2203 34.201C29.3438 33.85 29.5446 33.5313 29.8078 33.2684C29.8115 33.2639 29.8157 33.2597 29.8202 33.256L36.7833 26.5024L35.2932 26.0771L27.4671 28.3138L23.2188 36.8089L30.8555 42.2649L39.88 44.5202L44.6064 39.7891ZM52.2494 34.164L48.3968 26.4512L45.651 27.8249L49.5082 35.5377L52.2494 34.164Z" fill="#1D252B"/>
</svg>
