<svg width="52" height="53" viewBox="0 0 52 53" fill="none" xmlns="http://www.w3.org/2000/svg">
<g clip-path="url(#clip0_207_730)">
<path d="M13.8418 35.6218H15.209V33.4889C15.209 33.4423 15.2178 33.396 15.2349 33.3529C15.2521 33.3097 15.2773 33.2705 15.309 33.2375C15.3408 33.2045 15.3785 33.1783 15.42 33.1605C15.4614 33.1426 15.5059 33.1335 15.5508 33.1335H17.4123V29.0454C16.364 28.7664 15.4184 28.1712 14.6945 27.3347L13.5879 26.0586C13.5417 26.0052 13.5121 25.9385 13.503 25.8672C13.494 25.7959 13.5059 25.7235 13.5373 25.6594C13.5686 25.5954 13.6179 25.5427 13.6786 25.5083C13.7393 25.474 13.8086 25.4595 13.8773 25.4669C14.821 25.5728 15.775 25.4259 16.6486 25.0401C17.5223 24.6543 18.2865 24.0425 18.8686 23.2628L18.8711 23.2612V21.8901C17.9001 21.6727 17.0198 21.1422 16.3557 20.374L15.4152 19.2897C15.3689 19.2363 15.3392 19.1696 15.3301 19.0983C15.3211 19.027 15.333 18.9545 15.3643 18.8904C15.3956 18.8263 15.4449 18.7736 15.5057 18.7393C15.5664 18.7049 15.6357 18.6905 15.7045 18.698C16.4952 18.7866 17.2946 18.664 18.0271 18.342C18.7596 18.0199 19.401 17.5089 19.8908 16.8573V14.76C19.8908 14.6657 19.9268 14.5753 19.9909 14.5087C20.055 14.442 20.142 14.4045 20.2326 14.4045H21.441C21.5214 14.4045 21.5991 14.434 21.6607 14.4876C21.7223 14.5413 21.7637 14.6158 21.7777 14.6981L22.1059 16.6249H29.8943L30.2223 14.6981C30.2364 14.6159 30.2779 14.5415 30.3394 14.4879C30.401 14.4343 30.4787 14.4049 30.559 14.4049H31.7682C31.8588 14.4049 31.9458 14.4424 32.0099 14.5091C32.0739 14.5757 32.11 14.6661 32.11 14.7604V16.8571C32.5997 17.5087 33.2412 18.0198 33.9737 18.3419C34.7062 18.664 35.5056 18.7866 36.2963 18.698C36.3651 18.6904 36.4345 18.7048 36.4953 18.7391C36.5561 18.7734 36.6054 18.8261 36.6368 18.8902C36.6682 18.9543 36.6802 19.0269 36.6711 19.0982C36.662 19.1695 36.6323 19.2363 36.5859 19.2897L35.6455 20.374C34.9811 21.1424 34.1004 21.673 33.1289 21.8901V23.2612L33.1307 23.2634C33.7129 24.0431 34.4773 24.6549 35.351 25.0406C36.2248 25.4263 37.1789 25.573 38.1227 25.4669C38.1914 25.4595 38.2607 25.474 38.3214 25.5083C38.3821 25.5427 38.4314 25.5954 38.4627 25.6594C38.4941 25.7235 38.506 25.7959 38.497 25.8672C38.4879 25.9385 38.4583 26.0052 38.4121 26.0586L37.3055 27.3347C36.5816 28.1712 35.636 28.7664 34.5877 29.0454V33.1331H36.4492C36.4941 33.133 36.5386 33.1422 36.58 33.1601C36.6215 33.1779 36.6592 33.2041 36.691 33.2371C36.7227 33.2701 36.7479 33.3093 36.7651 33.3525C36.7822 33.3956 36.791 33.4419 36.791 33.4885V35.6214H38.1582C38.2031 35.6213 38.2476 35.6305 38.289 35.6484C38.3305 35.6662 38.3682 35.6924 38.3999 35.7254C38.4317 35.7584 38.4569 35.7976 38.474 35.8408C38.4912 35.8839 38.5 35.9301 38.5 35.9768V38.4651C38.5 38.5594 38.464 38.6498 38.3999 38.7165C38.3358 38.7831 38.2489 38.8206 38.1582 38.8206H13.8418C13.7511 38.8206 13.6642 38.7831 13.6001 38.7165C13.536 38.6498 13.5 38.5594 13.5 38.4651V35.9768C13.5 35.9302 13.5089 35.884 13.5261 35.8409C13.5433 35.7978 13.5685 35.7586 13.6002 35.7257C13.6319 35.6927 13.6696 35.6666 13.7111 35.6487C13.7525 35.6309 13.7969 35.6217 13.8418 35.6218ZM15.8926 35.6218H21.4971L22.1953 33.844H15.8926V35.6218ZM20.165 33.1331H22.4141V31.0484C22.414 30.9811 22.3882 30.9166 22.3424 30.869C22.2967 30.8214 22.2346 30.7946 22.1699 30.7945H20.4092C20.3445 30.7946 20.2824 30.8214 20.2367 30.869C20.1909 30.9166 20.1651 30.9811 20.165 31.0484V33.1331ZM32.4453 21.9112H19.5547V23.0284H32.4453V21.9112ZM21.1543 15.1159H20.5736V16.6253H21.4115L21.1543 15.1159ZM31.4264 15.1159H30.8457L30.5885 16.6253H31.4264V15.1159ZM35.1373 19.8981L35.5432 19.4309C34.7806 19.3943 34.0345 19.1885 33.3547 18.8273C32.675 18.4661 32.0774 17.9578 31.6021 17.3367H20.3979C19.9226 17.9578 19.325 18.4661 18.6453 18.8273C17.9655 19.1885 17.2194 19.3943 16.4568 19.4309L16.8627 19.8981C17.4339 20.5596 18.1922 21.0157 19.0285 21.2005H32.9715C33.8078 21.0156 34.5662 20.5594 35.1373 19.8977V19.8981ZM36.7977 26.8585L37.3619 26.2085C36.4458 26.1843 35.546 25.9504 34.7266 25.5235C33.9072 25.0966 33.1883 24.4871 32.6211 23.7385H19.3789C18.8116 24.487 18.0928 25.0962 17.2735 25.523C16.4542 25.9498 15.5545 26.1837 14.6385 26.2079L15.2027 26.8579C15.8849 27.6481 16.791 28.1922 17.79 28.4114H34.2104C35.2093 28.1923 36.1154 27.6485 36.7977 26.8585ZM33.9041 29.123H18.0959V33.1331H19.4814V31.0484C19.4818 30.7926 19.5796 30.5474 19.7535 30.3665C19.9274 30.1856 20.1632 30.0839 20.4092 30.0836H22.1699C22.4159 30.0839 22.6517 30.1856 22.8256 30.3665C22.9995 30.5474 23.0973 30.7926 23.0977 31.0484V33.1331H24.1914V31.0484C24.1917 30.7926 24.2896 30.5474 24.4635 30.3665C24.6374 30.1856 24.8732 30.0839 25.1191 30.0836H26.8803C27.1262 30.0839 27.362 30.1856 27.5359 30.3665C27.7099 30.5474 27.8077 30.7926 27.808 31.0484V33.1331H28.9018V31.0484C28.9021 30.7926 28.9999 30.5474 29.1738 30.3665C29.3477 30.1856 29.5835 30.0839 29.8295 30.0836H31.5908C31.8368 30.0839 32.0726 30.1856 32.2465 30.3665C32.4204 30.5474 32.5182 30.7926 32.5186 31.0484V33.1331H33.9041V29.123ZM24.8756 33.1331H27.1244V31.0484C27.1243 30.9811 27.0986 30.9166 27.0528 30.869C27.007 30.8214 26.945 30.7946 26.8803 30.7945H25.1197C25.055 30.7946 24.993 30.8214 24.9472 30.869C24.9014 30.9166 24.8757 30.9811 24.8756 31.0484V33.1331ZM29.5859 33.1331H31.835V31.0484C31.8349 30.9811 31.8092 30.9165 31.7634 30.8689C31.7176 30.8213 31.6556 30.7945 31.5908 30.7945H29.8301C29.7654 30.7946 29.7033 30.8214 29.6576 30.869C29.6118 30.9166 29.586 30.9811 29.5859 31.0484V33.1331ZM36.1074 33.844H29.8049L30.5029 35.6214H36.1074V33.844ZM37.8164 36.3327H30.782L31.4803 38.11H37.8164V36.3327ZM30.7416 38.11L29.0662 33.8444H22.9336L21.2582 38.11H30.7416ZM14.1836 38.11H20.5197L21.218 36.3327H14.1836V38.11Z" fill="white"/>
<path d="M28.0508 35.4565H24.0225C23.9318 35.4565 23.8449 35.4191 23.7808 35.3524C23.7167 35.2858 23.6807 35.1954 23.6807 35.1011C23.6807 35.0068 23.7167 34.9164 23.7808 34.8497C23.8449 34.7831 23.9318 34.7456 24.0225 34.7456H28.0508C28.1414 34.7456 28.2284 34.7831 28.2925 34.8497C28.3566 34.9164 28.3926 35.0068 28.3926 35.1011C28.3926 35.1954 28.3566 35.2858 28.2925 35.3524C28.2284 35.4191 28.1414 35.4565 28.0508 35.4565ZM23.4121 36.4976H28.6611C28.7518 36.4976 28.8387 36.535 28.9028 36.6017C28.9669 36.6683 29.0029 36.7588 29.0029 36.853C29.0029 36.9473 28.9669 37.0377 28.9028 37.1044C28.8387 37.171 28.7518 37.2085 28.6611 37.2085H23.4121C23.3215 37.2085 23.2345 37.171 23.1704 37.1044C23.1063 37.0377 23.0703 36.9473 23.0703 36.853C23.0703 36.7588 23.1063 36.6683 23.1704 36.6017C23.2345 36.535 23.3215 36.4976 23.4121 36.4976Z" fill="white"/>
</g>
<circle cx="26" cy="26.6128" r="25.5" stroke="white"/>
<defs>
<clipPath id="clip0_207_730">
<rect width="25" height="26" fill="white" transform="matrix(-1 0 0 1 38.5 13.6128)"/>
</clipPath>
</defs>
</svg>
