<svg width="52" height="53" viewBox="0 0 52 53" fill="none" xmlns="http://www.w3.org/2000/svg">
<circle cx="26" cy="26.6128" r="25.5" stroke="white"/>
<path d="M39.8004 20.2137L26.323 11.3926C26.1281 11.2656 25.877 11.2656 25.6822 11.3926L12.2028 20.2137C11.566 20.633 12.1967 21.619 12.8436 21.1976L14.2819 20.256V37.759C14.2819 38.7328 15.0714 39.5232 16.0397 39.5232H35.9655C36.9358 39.5232 37.7232 38.7328 37.7232 37.759V20.258C37.9502 20.3669 39.2359 21.3549 39.481 21.2944C40.0394 21.3165 40.2906 20.5101 39.8004 20.2137ZM32.448 38.3477H31.2768V34.2305C31.2768 33.9059 31.0157 33.6418 30.6902 33.6418H28.9325V29.5247C28.9325 29.2 28.6713 28.9359 28.3459 28.9359H23.6572C23.3338 28.9359 23.0707 29.2 23.0707 29.5247V33.6418H21.3129C20.9895 33.6418 20.7263 33.9059 20.7263 34.2305V38.3477H19.5552V27.7625H32.448V38.3477ZM24.2438 33.6438V30.1154H27.7593V33.6438H24.2438ZM21.8995 34.8193H25.415V38.3477H21.8995V34.8193ZM26.5882 38.3477V34.8193H30.1037V38.3477H26.5882ZM36.5501 37.761C36.5501 38.0856 36.2869 38.3497 35.9635 38.3497H33.6191V27.1757C33.6191 26.8511 33.358 26.587 33.0326 26.587H18.9686C18.6452 26.587 18.382 26.8511 18.382 27.1757V38.3497H16.0397C15.7162 38.3497 15.4531 38.0856 15.4531 37.761V19.4898L26.0016 12.5862L36.5501 19.4898V37.761ZM30.6902 23.0586C30.6902 23.3832 30.4291 23.6473 30.1037 23.6473H21.8995C21.5761 23.6473 21.3129 23.3832 21.3129 23.0586C21.3129 22.734 21.5761 22.4698 21.8995 22.4698H30.1037C30.4291 22.4698 30.6902 22.734 30.6902 23.0586ZM21.8995 19.5302H30.1037C30.4271 19.5302 30.6902 19.7943 30.6902 20.1189C30.6902 20.4435 30.4291 20.7076 30.1037 20.7076H21.8995C21.5761 20.7076 21.3129 20.4435 21.3129 20.1189C21.3129 19.7943 21.5761 19.5302 21.8995 19.5302Z" fill="white"/>
</svg>
