<svg width="37" height="38" viewBox="0 0 37 38" fill="none" xmlns="http://www.w3.org/2000/svg">
<path opacity="0.1" fill-rule="evenodd" clip-rule="evenodd" d="M0 19.123C0 8.90578 8.28273 0.623047 18.5 0.623047C28.7173 0.623047 37 8.90578 37 19.123C37 29.3403 28.7173 37.623 18.5 37.623C8.28273 37.623 0 29.3403 0 19.123Z" fill="#767676"/>
<path fill-rule="evenodd" clip-rule="evenodd" d="M18.501 9.25684C15.8213 9.25684 15.485 9.26855 14.4326 9.31645C13.3822 9.36455 12.6652 9.53084 12.0378 9.77484C11.3889 10.0269 10.8384 10.364 10.29 10.9126C9.74111 11.461 9.404 12.0115 9.15116 12.6603C8.90655 13.2878 8.74005 14.005 8.69277 15.055C8.6457 16.1075 8.63336 16.444 8.63336 19.1236C8.63336 21.8033 8.64528 22.1385 8.69297 23.191C8.74128 24.2414 8.90758 24.9584 9.15137 25.5857C9.40359 26.2347 9.7407 26.7852 10.2893 27.3336C10.8376 27.8824 11.388 28.2204 12.0366 28.4724C12.6643 28.7164 13.3815 28.8827 14.4317 28.9308C15.4842 28.9787 15.8203 28.9904 18.4997 28.9904C21.1796 28.9904 21.5148 28.9787 22.5673 28.9308C23.6177 28.8827 24.3355 28.7164 24.9633 28.4724C25.612 28.2204 26.1617 27.8824 26.7099 27.3336C27.2587 26.7852 27.5959 26.2347 27.8487 25.5859C28.0912 24.9584 28.2578 24.2412 28.3071 23.1912C28.3544 22.1387 28.3667 21.8033 28.3667 19.1236C28.3667 16.444 28.3544 16.1077 28.3071 15.0552C28.2578 14.0048 28.0912 13.2878 27.8487 12.6605C27.5959 12.0115 27.2587 11.461 26.7099 10.9126C26.1611 10.3638 25.6122 10.0266 24.9627 9.77484C24.3337 9.53084 23.6163 9.36455 22.5659 9.31645C21.5134 9.26855 21.1783 9.25684 18.4979 9.25684H18.501ZM17.6158 11.0349C17.8785 11.0345 18.1716 11.0349 18.5009 11.0349C21.1353 11.0349 21.4476 11.0443 22.4879 11.0916C23.4499 11.1356 23.972 11.2964 24.3198 11.4314C24.7803 11.6102 25.1086 11.824 25.4537 12.1694C25.799 12.5147 26.0128 12.8436 26.1921 13.304C26.3271 13.6514 26.4881 14.1735 26.5318 15.1356C26.5791 16.1757 26.5894 16.4881 26.5894 19.1213C26.5894 21.7545 26.5791 22.067 26.5318 23.1071C26.4879 24.0691 26.3271 24.5912 26.1921 24.9386C26.0132 25.399 25.799 25.7269 25.4537 26.072C25.1084 26.4174 24.7805 26.6312 24.3198 26.81C23.9724 26.9457 23.4499 27.106 22.4879 27.15C21.4478 27.1973 21.1353 27.2075 18.5009 27.2075C15.8663 27.2075 15.554 27.1973 14.5139 27.15C13.5519 27.1056 13.0298 26.9448 12.6818 26.8098C12.2213 26.631 11.8924 26.4172 11.5471 26.0718C11.2018 25.7265 10.988 25.3984 10.8087 24.9378C10.6737 24.5904 10.5127 24.0683 10.4689 23.1063C10.4217 22.0661 10.4122 21.7537 10.4122 19.1188C10.4122 16.484 10.4217 16.1732 10.4689 15.1331C10.5129 14.1711 10.6737 13.649 10.8087 13.3012C10.9876 12.8407 11.2018 12.5118 11.5471 12.1665C11.8924 11.8211 12.2213 11.6074 12.6818 11.4281C13.0296 11.2924 13.5519 11.1321 14.5139 11.0879C15.4241 11.0468 15.7769 11.0345 17.6158 11.0324V11.0349ZM23.7677 12.6732C23.114 12.6732 22.5837 13.2029 22.5837 13.8568C22.5837 14.5105 23.114 15.0408 23.7677 15.0408C24.4214 15.0408 24.9517 14.5105 24.9517 13.8568C24.9517 13.2031 24.4214 12.6732 23.7677 12.6732ZM18.501 14.0566C15.7027 14.0566 13.434 16.3253 13.434 19.1236C13.434 21.9218 15.7027 24.1895 18.501 24.1895C21.2992 24.1895 23.5671 21.9218 23.5671 19.1236C23.5671 16.3253 21.2992 14.0566 18.501 14.0566ZM18.5009 15.8347C20.3172 15.8347 21.7899 17.3071 21.7899 19.1236C21.7899 20.9399 20.3172 22.4125 18.5009 22.4125C16.6844 22.4125 15.212 20.9399 15.212 19.1236C15.212 17.3071 16.6844 15.8347 18.5009 15.8347Z" fill="#F8F8F8"/>
</svg>
