<svg width="244" height="53" viewBox="0 0 244 53" fill="none" xmlns="http://www.w3.org/2000/svg">
<g clip-path="url(#clip0_207_834)">
<path d="M28.5798 6.90703C28.5785 6.90391 28.5776 6.90048 28.5771 6.89658C28.5723 6.85725 28.5986 6.82121 28.6374 6.81403C29.4673 6.66017 30.5665 6.33918 31.7854 5.67818C31.8663 5.63433 31.9105 5.54959 31.9003 5.45753C31.8901 5.3653 31.8286 5.29243 31.74 5.26762C31.2902 5.142 30.8343 5.03012 30.3737 4.93368C28.7399 4.5896 27.5391 3.17817 27.4134 1.49897L27.3013 0H24.5444C24.5108 4.30467 23.9138 5.35345 21.0789 7.02422C21.6722 6.55936 22.3444 5.92613 23.0012 5.07912C23.0578 5.00609 23.0645 4.91075 23.0182 4.83054C22.9722 4.75033 22.887 4.70851 22.7957 4.72177C22.3339 4.78934 21.8722 4.87142 21.4117 4.9702C19.7789 5.31802 18.1169 4.51314 17.3328 3.02634L16.6329 1.69965L14.1088 2.81833C16.0142 7.29231 15.5995 8.24372 12.8817 11.7964L12.8764 11.7933C12.8436 11.7713 12.8336 11.7277 12.8532 11.6934C13.275 10.9559 13.7456 9.90326 14.0373 8.53833C14.0567 8.44767 14.0214 8.35888 13.9452 8.30692C13.8688 8.25511 13.774 8.25511 13.6981 8.30707C13.3117 8.57141 12.9318 8.84855 12.5604 9.14035C11.2416 10.1727 9.39815 10.1804 8.04967 9.1881L6.84639 8.30255L5.05893 10.4207C8.72105 13.6181 8.74703 14.653 7.8284 19.0854C7.82361 19.0868 7.81851 19.087 7.81263 19.0862C7.77367 19.0811 7.74553 19.0464 7.74831 19.0069C7.80676 18.1573 7.77212 17.0028 7.44061 15.6471C7.4185 15.5572 7.3483 15.4931 7.25738 15.4802C7.16615 15.4671 7.08111 15.5092 7.03518 15.5897C6.80278 15.9982 6.58229 16.4158 6.37509 16.8424C5.63892 18.3539 3.98599 19.177 2.34264 18.8826L0.876341 18.6196L0.191201 21.3145C4.87663 22.5674 5.34622 23.4864 6.45055 27.8876C6.44653 27.892 6.44111 27.8954 6.43431 27.8978C6.39705 27.9104 6.35654 27.8918 6.342 27.8552C6.02456 27.0659 5.49064 26.0446 4.60232 24.9738C4.54341 24.903 4.45218 24.8763 4.36497 24.9051C4.2773 24.9339 4.21932 25.0094 4.21329 25.1021C4.18252 25.5719 4.16597 26.0451 4.16582 26.5201C4.16273 28.2041 3.03644 29.6767 1.43237 30.1411L0.000549316 30.5554L0.558898 33.2798C5.3037 32.329 6.13187 32.9418 9.02643 36.3876C9.02442 36.3913 9.02195 36.3948 9.01855 36.3983C8.99071 36.4261 8.94618 36.4271 8.91711 36.4007C8.28903 35.8316 7.36561 35.1497 6.10249 34.5799C6.01868 34.5422 5.92529 34.5586 5.85911 34.6232C5.79293 34.6878 5.77345 34.7812 5.80808 34.8672C5.98451 35.3032 6.17516 35.7358 6.38097 36.1627C7.10956 37.6779 6.73645 39.4997 5.4959 40.6264L4.38894 41.6318L6.07373 43.8342C9.93454 40.8748 10.941 41.0671 15.0614 42.8958C15.0625 42.9017 15.062 42.9084 15.0594 42.9154C15.0463 42.9527 15.007 42.9735 14.9693 42.9625C14.1573 42.7302 13.031 42.5273 11.6482 42.576C11.5562 42.5793 11.4797 42.6355 11.4485 42.7225C11.4171 42.8101 11.4404 42.9026 11.5091 42.9644C11.8571 43.2781 12.217 43.5819 12.5877 43.8739C13.9022 44.9117 14.3608 46.7134 13.7374 48.2759L13.1812 49.6702L15.6536 50.9007C17.8263 46.5418 18.8143 46.2576 23.2805 46.0717C23.2819 46.075 23.2828 46.0786 23.2833 46.0828C23.2877 46.1223 23.2611 46.1584 23.2226 46.1652C22.3918 46.315 21.2909 46.6302 20.0688 47.2847C19.9877 47.3284 19.9432 47.4128 19.9528 47.5049C19.9627 47.5972 20.0236 47.6703 20.1122 47.6956C20.5616 47.8235 21.0165 47.9379 21.4769 48.0365C23.1088 48.3889 24.3025 49.8065 24.4199 51.4867L24.5246 52.9858L27.2814 53C27.3415 48.3194 28.0485 47.4918 31.5799 45.5429C30.8878 46.0282 30.0204 46.776 29.1828 47.8802C29.1268 47.9538 29.1213 48.0493 29.1683 48.129C29.2151 48.2088 29.3008 48.2497 29.3917 48.2355C29.8529 48.1629 30.3137 48.0757 30.7731 47.9721C32.4022 47.6066 34.0723 48.3939 34.8722 49.8721L35.5858 51.1913L38.0981 50.0457C36.1424 45.5847 36.5517 44.6333 39.2442 41.0368C39.2473 41.0379 39.2504 41.0394 39.2536 41.0416C39.2867 41.0632 39.2974 41.1065 39.2781 41.1412C38.8649 41.8838 38.4066 42.9419 38.1311 44.3105C38.1127 44.4014 38.149 44.4896 38.2258 44.5406C38.3027 44.5918 38.3973 44.5906 38.4728 44.5377C38.8562 44.2688 39.2329 43.9868 39.6008 43.6908C40.9072 42.643 42.7505 42.6132 44.1105 43.5892L45.3242 44.4604L47.0866 42.3209C43.3942 39.1733 43.3493 38.137 44.2112 33.7142C44.2146 33.7137 44.2178 33.7139 44.2217 33.7144C44.2608 33.7192 44.2893 33.7534 44.287 33.793C44.2372 34.6431 44.284 35.7971 44.6296 37.1492C44.6525 37.239 44.7235 37.3023 44.8145 37.3142C44.9058 37.3263 44.9903 37.2834 45.0353 37.2024C45.2636 36.7916 45.48 36.3717 45.6828 35.943C46.4033 34.4237 48.0474 33.5831 49.6937 33.8604L51.1628 34.1078L51.8199 31.4058C47.1351 30.2057 46.6456 29.2939 45.5029 24.9365C45.5059 24.9346 45.5089 24.9329 45.5127 24.9317C45.5496 24.9184 45.5901 24.937 45.6053 24.9736C45.9291 25.76 46.4716 26.7769 47.3683 27.8402C47.4278 27.9107 47.5191 27.9365 47.6063 27.9071C47.6936 27.8776 47.751 27.8017 47.7564 27.709C47.7833 27.2388 47.796 26.7657 47.7923 26.2907C47.7816 24.6065 48.8958 23.1245 50.4962 22.6469L51.9245 22.2207L51.344 19.5008C46.6111 20.4906 45.7754 19.8867 42.8587 16.4731C42.8604 16.4701 42.8627 16.4675 42.8653 16.4646C42.893 16.4366 42.9374 16.4352 42.9668 16.4614C43.599 17.0255 44.5277 17.7005 45.7953 18.2604C45.8793 18.2976 45.9725 18.2804 46.0381 18.2153C46.1038 18.1503 46.1228 18.0565 46.0872 17.971C45.9076 17.5361 45.7137 17.1052 45.5046 16.6797C44.7646 15.1699 45.1239 13.3453 46.3558 12.2093L47.4552 11.1953L45.754 9.006C41.9272 11.986 40.9143 11.8117 36.8115 10.0301L36.8138 10.0197C36.8266 9.98222 36.8661 9.96146 36.9036 9.97207C37.7168 10.2001 38.8445 10.3968 40.227 10.341C40.3187 10.3371 40.3952 10.2806 40.4258 10.1932C40.4568 10.1056 40.4329 10.0131 40.3641 9.95163C40.0141 9.64001 39.6529 9.33806 39.2802 9.04813C37.9605 8.01714 37.4925 6.21778 38.1076 4.65218L38.6568 3.25495L36.1777 2.03764C34.0287 6.40691 33.0422 6.69778 28.5807 6.90719L28.5798 6.90703ZM25.962 8.95435C35.5638 8.95435 43.3478 16.8098 43.3478 26.5002C43.3478 36.1903 35.5638 44.0458 25.962 44.0458C16.36 44.0458 8.57617 36.1903 8.57617 26.5002C8.57617 16.8098 16.36 8.95435 25.962 8.95435Z" fill="white"/>
<path fill-rule="evenodd" clip-rule="evenodd" d="M25.9193 12.6488C31.0505 12.6488 35.5233 15.4909 37.8784 19.7001L33.5567 22.6688C32.16 19.8386 29.2649 17.894 25.9193 17.894C21.2095 17.894 17.3916 21.7471 17.3916 26.5C17.3916 31.2532 21.2096 35.1061 25.9193 35.1061C29.0737 35.1061 31.8277 33.3777 33.3029 30.8081L37.753 33.5191C35.367 37.6073 30.961 40.3512 25.9193 40.3512C18.339 40.3512 12.1941 34.1498 12.1941 26.4999C12.1941 18.8501 18.339 12.6487 25.9193 12.6487V12.6488Z" fill="white"/>
<path fill-rule="evenodd" clip-rule="evenodd" d="M24.2244 24.7707H20.8676V21.8303H30.974V24.7707H27.5806V33.3443H24.2244V24.7707Z" fill="#CD7A48"/>
<path fill-rule="evenodd" clip-rule="evenodd" d="M25.9618 7.05615C36.6028 7.05615 45.2288 15.7615 45.2288 26.5002C45.2288 37.2389 36.6028 45.9442 25.9618 45.9442C15.3209 45.9442 6.69489 37.2389 6.69489 26.5002C6.69489 15.7615 15.3209 7.05615 25.9618 7.05615ZM25.9618 8.95101C35.5659 8.95101 43.351 16.8079 43.351 26.5C43.351 36.1923 35.5657 44.049 25.9618 44.049C16.3578 44.049 8.57264 36.1922 8.57264 26.5C8.57264 16.8077 16.358 8.95101 25.9618 8.95101Z" fill="white"/>
<path d="M71.9129 9C76.3006 9 79.0035 9.36905 80.0216 10.1068C80.9105 10.7435 81.3551 12.4367 81.3551 15.1861H76.6018C76.6018 14.289 76.3652 13.7174 75.8919 13.4715C75.304 13.1675 73.9776 13.0155 71.9129 13.0155C69.6042 13.0155 68.2494 13.1965 67.8477 13.5581C67.4463 13.9198 67.2456 15.063 67.2456 16.9876C67.2456 18.8978 67.4463 20.0338 67.8477 20.3955C68.2493 20.7572 69.6042 20.9381 71.9129 20.9381C74.0064 20.9381 75.3148 20.8115 75.8381 20.5583C76.3615 20.305 76.6231 19.7081 76.6231 18.7675H81.3549C81.3549 21.5314 80.9248 23.2245 80.0644 23.8468C79.0464 24.5849 76.3292 24.9538 71.9129 24.9538C67.4966 24.9538 64.8259 24.5487 63.9011 23.7382C62.9761 22.9278 62.5138 20.6705 62.5138 16.966C62.5138 13.276 62.9583 11.0403 63.8474 10.259C64.8081 9.41961 67.4967 9 71.9131 9H71.9129ZM84.1725 13.2109V9.19521H102.476V13.2109H95.7008V24.7367H90.969V13.2109H84.1723H84.1725ZM112.112 9.23875H120.242L127.856 24.7367H122.328L120.866 22.132H111.488L110.026 24.7367H104.498L112.112 9.23875H112.112ZM116.542 12.7334H115.811L113.252 18.1165H119.08L116.542 12.7334H116.542ZM150.181 9.19521V24.7367H145.449V13.2109H137.04C137.04 17.7041 136.66 20.7934 135.9 22.4756C135.211 23.9841 134.014 24.7365 132.308 24.7365H130.071V20.721C131.189 20.721 131.842 20.2435 132.028 19.2848C132.215 18.3296 132.308 14.9653 132.308 9.19506H150.181V9.19521ZM154.547 24.7367V9.19521H159.279V13.0155H166.119C168.642 13.0155 170.313 13.3267 171.13 13.949C172.148 14.7303 172.657 16.3727 172.657 18.8761C172.657 21.3941 172.156 23.0364 171.152 23.8034C170.335 24.4257 168.657 24.7367 166.119 24.7367H154.548H154.547ZM159.279 17.0312V20.7212H166.119C166.693 20.7212 167.115 20.6054 167.388 20.3738C167.732 20.0845 167.904 19.5852 167.904 18.8761C167.904 18.1961 167.732 17.7041 167.388 17.4002C167.101 17.1541 166.678 17.0312 166.119 17.0312H159.279ZM175.841 9.23875H180.572V14.6651H190.789V9.23875H195.521V24.7367H190.789V18.6809H180.572V24.7367H175.841V9.23875ZM219.997 9.19521H224.729V24.7367H219.997V9.19521ZM199.327 24.7367V9.19521H204.059V13.0155H210.899C213.408 13.0155 215.072 13.334 215.889 13.9707C216.893 14.752 217.394 16.3873 217.394 18.8761C217.394 21.3795 216.9 23.0147 215.91 23.7817C215.093 24.4184 213.423 24.7367 210.899 24.7367H199.328H199.327ZM204.059 17.0312V20.7212H210.899C211.472 20.7212 211.896 20.6054 212.168 20.3738C212.498 20.0989 212.663 19.6069 212.663 18.8978C212.663 18.1889 212.512 17.7003 212.211 17.4327C211.91 17.1651 211.472 17.0312 210.899 17.0312H204.059H204.059ZM227.439 24.7367V9.19521H244V12.9504H232.171V15.121H243.462V18.8544H232.171V20.9816H244V24.7367H227.439Z" fill="#FEFEFE"/>
<path d="M62.1266 33.3647V30.1118H76.954V33.3647H71.4656V42.7017H67.6324V33.3647H62.1266ZM79.254 42.7017V30.1119H92.67V33.1539H83.0871V34.9122H92.2344V37.9367H83.0871V39.6599H92.67V42.7018H79.254V42.7017ZM94.726 30.1119L100.423 36.2749L94.726 42.7017H99.8834L103.629 38.4816L107.375 42.7017H112.533L106.835 36.2749L112.533 30.1119H107.218L103.629 34.1738L100.04 30.1119H94.7257H94.726ZM114.083 30.1472H117.917V34.543H126.193V30.1472H130.026V42.7018H126.193V37.7961H117.917V42.7018H114.083V30.1472ZM150.01 36.4244C150.01 39.4839 149.645 41.3127 148.913 41.9105C148.123 42.5553 145.742 42.8777 141.769 42.8777C138.865 42.8777 136.96 42.772 136.054 42.5611C134.916 42.2916 134.196 41.7055 133.894 40.8027C133.661 40.1112 133.546 38.6517 133.546 36.4246C133.546 33.365 133.905 31.5363 134.626 30.9385C135.416 30.282 137.797 29.9539 141.769 29.9539C145.73 29.9539 148.106 30.2761 148.895 30.9209C149.639 31.5305 150.011 33.365 150.011 36.4246L150.01 36.4244ZM137.379 36.4244C137.379 38.0304 137.561 38.9653 137.927 39.229C138.293 39.4928 139.574 39.6246 141.769 39.6246C143.976 39.6246 145.262 39.4928 145.628 39.229C145.994 38.9653 146.177 38.0304 146.177 36.4244C146.177 34.8067 145.994 33.8661 145.628 33.6022C145.262 33.3385 143.982 33.2066 141.787 33.2066C139.58 33.2066 138.293 33.3385 137.927 33.6022C137.561 33.8661 137.379 34.8067 137.379 36.4244ZM168.723 30.1119V42.7017H164.89V33.3647H158.078C158.078 37.0046 157.77 39.5073 157.154 40.87C156.597 42.092 155.627 42.7015 154.244 42.7015H152.432V39.4486C153.338 39.4486 153.867 39.0618 154.018 38.2851C154.169 37.5114 154.244 34.786 154.244 30.1116H168.723V30.1119ZM188.917 36.4244C188.917 39.4839 188.551 41.3127 187.819 41.9105C187.029 42.5553 184.648 42.8777 180.676 42.8777C177.772 42.8777 175.867 42.772 174.961 42.5611C173.823 42.2916 173.102 41.7055 172.8 40.8027C172.568 40.1112 172.452 38.6517 172.452 36.4246C172.452 33.365 172.812 31.5363 173.532 30.9385C174.322 30.282 176.703 29.9539 180.676 29.9539C184.637 29.9539 187.012 30.2761 187.802 30.9209C188.545 31.5305 188.917 33.365 188.917 36.4246L188.917 36.4244ZM176.285 36.4244C176.285 38.0304 176.468 38.9653 176.834 39.229C177.2 39.4928 178.48 39.6246 180.675 39.6246C182.883 39.6246 184.169 39.4928 184.535 39.229C184.901 38.9653 185.084 38.0304 185.084 36.4244C185.084 34.8067 184.901 33.8661 184.535 33.6022C184.169 33.3385 182.888 33.2066 180.693 33.2066C178.486 33.2066 177.2 33.3385 176.834 33.6022C176.468 33.8661 176.285 34.8067 176.285 36.4244ZM191.495 30.1119H203.866H203.953V33.3649H195.329V42.7018H191.495V30.1121V30.1119ZM206.201 30.1472H210.034V38.7982C209.941 39.1265 209.848 39.4489 209.755 39.7654C209.744 39.8825 209.738 39.9999 209.738 40.1169C209.819 40.1169 209.898 40.0408 209.973 39.8885C210.049 39.736 210.121 39.5836 210.191 39.4313L216.742 30.1472H223.014V42.7018H219.181V34.0332C219.181 34.0215 219.28 33.6991 219.477 33.066C219.477 32.9488 219.483 32.8315 219.495 32.7145C219.413 32.7145 219.335 32.7936 219.259 32.9518C219.184 33.11 219.111 33.2595 219.042 33.4001L212.473 42.7018H206.201V30.1472H206.201ZM227.091 30.1472H230.925V38.7982C230.832 39.1265 230.739 39.4489 230.646 39.7654C230.634 39.8825 230.628 39.9999 230.628 40.1169C230.71 40.1169 230.788 40.0408 230.864 39.8885C230.939 39.736 231.012 39.5836 231.081 39.4313L237.632 30.1472H243.905V42.7018H240.072V34.0332C240.072 34.0215 240.17 33.6991 240.368 33.066C240.368 32.9488 240.374 32.8315 240.385 32.7145C240.304 32.7145 240.225 32.7936 240.15 32.9518C240.075 33.11 240.002 33.2595 239.932 33.4001L233.364 42.7018H227.091V30.1472H227.091Z" fill="#CD7A48"/>
</g>
<defs>
<clipPath id="clip0_207_834">
<rect width="244" height="53" fill="white"/>
</clipPath>
</defs>
</svg>
