<svg width="27" height="30" viewBox="0 0 27 30" fill="none" xmlns="http://www.w3.org/2000/svg">
<path d="M6.75048 16.875C6.49472 16.875 6.24943 16.9738 6.06858 17.1496C5.88773 17.3254 5.78613 17.5639 5.78613 17.8125V21.5625C5.78613 21.8111 5.88773 22.0496 6.06858 22.2254C6.24943 22.4012 6.49472 22.5 6.75048 22.5C7.00624 22.5 7.25153 22.4012 7.43238 22.2254C7.61323 22.0496 7.71484 21.8111 7.71484 21.5625V21.2512H8.35903C8.95598 21.2512 9.52848 21.0207 9.95058 20.6104C10.3727 20.2 10.6098 19.6435 10.6098 19.0631C10.6098 18.4828 10.3727 17.9262 9.95058 17.5159C9.52848 17.1055 8.95598 16.875 8.35903 16.875H6.75048ZM8.35903 19.3762H7.71484V18.75H8.3571C8.44252 18.75 8.52445 18.783 8.58485 18.8417C8.64526 18.9004 8.67919 18.9801 8.67919 19.0631C8.67919 19.1462 8.64526 19.2258 8.58485 19.2845C8.52445 19.3433 8.44445 19.3762 8.35903 19.3762ZM17.3584 17.8106C17.3589 17.5623 17.4607 17.3243 17.6415 17.1489C17.8223 16.9735 18.0673 16.875 18.3227 16.875H20.2495C20.5053 16.875 20.7506 16.9738 20.9314 17.1496C21.1123 17.3254 21.2139 17.5639 21.2139 17.8125C21.2139 18.0611 21.1123 18.2996 20.9314 18.4754C20.7506 18.6512 20.5053 18.75 20.2495 18.75H19.2871V19.3781H20.2514C20.5072 19.3781 20.7525 19.4769 20.9333 19.6527C21.1142 19.8285 21.2158 20.067 21.2158 20.3156C21.2158 20.5643 21.1142 20.8027 20.9333 20.9785C20.7525 21.1544 20.5072 21.2531 20.2514 21.2531H19.2871L19.289 21.5606C19.2893 21.6837 19.2646 21.8057 19.2164 21.9195C19.1681 22.0334 19.0973 22.1369 19.0079 22.2241C18.8274 22.4003 18.5824 22.4995 18.3266 22.5C18.0708 22.5005 17.8253 22.4022 17.6441 22.2267C17.4629 22.0513 17.3608 21.813 17.3603 21.5644L17.3584 20.3137V17.8106ZM12.5366 16.875C12.2808 16.875 12.0356 16.9738 11.8547 17.1496C11.6739 17.3254 11.5723 17.5639 11.5723 17.8125V21.5625C11.5723 21.8111 11.6739 22.0496 11.8547 22.2254C12.0356 22.4012 12.2808 22.5 12.5366 22.5H13.5048C14.2721 22.5 15.008 22.2037 15.5505 21.6762C16.0931 21.1488 16.3979 20.4334 16.3979 19.6875C16.3979 18.9416 16.0931 18.2262 15.5505 17.6988C15.008 17.1713 14.2721 16.875 13.5048 16.875H12.5366ZM13.501 20.625V18.75H13.5048C13.7606 18.75 14.0059 18.8488 14.1867 19.0246C14.3676 19.2004 14.4692 19.4389 14.4692 19.6875C14.4692 19.9361 14.3676 20.1746 14.1867 20.3504C14.0059 20.5262 13.7606 20.625 13.5048 20.625H13.501ZM1.93064 3.75C1.93064 2.75544 2.33704 1.80161 3.06045 1.09835C3.78386 0.395088 4.76501 0 5.78806 0H14.6312C15.0113 7.88263e-05 15.3877 0.0729807 15.7388 0.214539C16.0899 0.356097 16.4089 0.563536 16.6775 0.825L24.2265 8.16375C24.7692 8.69069 25.0745 9.40558 25.0751 10.1512V13.2787C25.6384 13.4732 26.1259 13.8325 26.4706 14.3073C26.8152 14.782 27.0002 15.3489 27 15.93V23.4356C27.0002 24.0167 26.8152 24.5836 26.4706 25.0583C26.1259 25.5331 25.6384 25.8924 25.0751 26.0869V26.25C25.0751 27.2446 24.6687 28.1984 23.9453 28.9016C23.2219 29.6049 22.2408 30 21.2177 30H5.78613C4.76308 30 3.78193 29.6049 3.05852 28.9016C2.33511 28.1984 1.92871 27.2446 1.92871 26.25V26.0869C1.36503 25.8931 0.87694 25.5344 0.531562 25.0599C0.186184 24.5855 0.000483771 24.0187 0 23.4375V15.9319C8.51707e-05 15.3503 0.185601 14.7831 0.531006 14.3083C0.876411 13.8335 1.36472 13.4745 1.92871 13.2806L1.93064 3.75ZM23.1464 11.25H16.396C16.0159 11.2502 15.6395 11.1777 15.2882 11.0364C14.937 10.8952 14.6179 10.6881 14.349 10.4269C14.0802 10.1657 13.8669 9.85558 13.7214 9.51423C13.5759 9.17288 13.501 8.807 13.501 8.4375V1.875H5.78613C5.2746 1.875 4.78403 2.07254 4.42232 2.42417C4.06062 2.77581 3.85742 3.25272 3.85742 3.75V13.1175H23.1445L23.1464 11.25ZM3.85742 26.2481C3.85716 26.4945 3.90687 26.7385 4.00368 26.9662C4.10049 27.1939 4.24252 27.4009 4.42164 27.5752C4.60076 27.7495 4.81347 27.8878 5.0476 27.9821C5.28172 28.0764 5.53268 28.125 5.78613 28.125H21.2158C21.4692 28.125 21.7202 28.0764 21.9543 27.9821C22.1885 27.8878 22.4012 27.7495 22.5803 27.5752C22.7594 27.4009 22.9014 27.1939 22.9982 26.9662C23.0951 26.7385 23.1448 26.4945 23.1445 26.2481H3.85742ZM15.4297 2.26312V8.4375C15.4297 8.68614 15.5313 8.9246 15.7121 9.10041C15.893 9.27623 16.1383 9.375 16.394 9.375H22.7433L15.4297 2.26312ZM2.89692 14.9925C2.64116 14.9925 2.39587 15.0913 2.21502 15.2671C2.03417 15.4429 1.93257 15.6814 1.93257 15.93V23.4356C1.93257 23.6843 2.03417 23.9227 2.21502 24.0985C2.39587 24.2744 2.64116 24.3731 2.89692 24.3731H24.1069C24.3627 24.3731 24.608 24.2744 24.7888 24.0985C24.9697 23.9227 25.0713 23.6843 25.0713 23.4356V15.93C25.0713 15.6814 24.9697 15.4429 24.7888 15.2671C24.608 15.0913 24.3627 14.9925 24.1069 14.9925H2.89692Z" fill="white"/>
</svg>
