<svg width="114" height="114" viewBox="0 0 114 114" fill="none" xmlns="http://www.w3.org/2000/svg">
<circle cx="57" cy="57" r="57" fill="#1D252B" fill-opacity="0.7"/>
<path d="M83.1663 47.1413C89.1155 50.3471 92.0901 51.95 93.0681 54.0789C93.9202 55.9337 93.9202 58.0681 93.0681 59.9229C92.0901 62.0518 89.1155 63.6547 83.1663 66.8605L51.2821 84.0417C45.839 86.9747 43.1174 88.4413 40.8946 88.1614C38.9547 87.9171 37.2053 86.8726 36.07 85.2807C34.7691 83.4566 34.7691 80.3651 34.7691 74.182L34.7691 39.8198C34.7691 33.6367 34.7691 30.5452 36.07 28.7211C37.2053 27.1292 38.9547 26.0847 40.8946 25.8405C43.1174 25.5605 45.839 27.0271 51.2821 29.9601L83.1663 47.1413Z" fill="#CD7A48"/>
</svg>
