<svg width="101" height="100" viewBox="0 0 101 100" fill="none" xmlns="http://www.w3.org/2000/svg">
<path d="M99.1304 49.9372C99.1304 76.5593 77.4242 98.1552 50.6304 98.1552C23.8366 98.1552 2.13037 76.5593 2.13037 49.9372C2.13037 23.3152 23.8366 1.71924 50.6304 1.71924C77.4242 1.71924 99.1304 23.3152 99.1304 49.9372Z" fill="#1D252B" stroke="#CD7A48" stroke-width="3"/>
<path d="M79.1049 44.5903C82.5255 46.4231 84.2358 47.3395 84.7971 48.5583C85.2861 49.6202 85.2861 50.8428 84.7971 51.9046C84.2358 53.1235 82.5255 54.0399 79.1049 55.8727L40.552 76.5302C37.4449 78.195 35.8914 79.0274 34.623 78.8656C33.516 78.7243 32.5183 78.127 31.871 77.218C31.1293 76.1764 31.1293 74.4139 31.1293 70.889L31.1293 29.574C31.1293 26.049 31.1293 24.2865 31.871 23.245C32.5183 22.3359 33.516 21.7386 34.623 21.5974C35.8914 21.4355 37.4449 22.268 40.552 23.9328L79.1049 44.5903Z" fill="#CD7A48"/>
</svg>
