<svg width="26" height="36" viewBox="0 0 26 36" fill="none" xmlns="http://www.w3.org/2000/svg">
<path d="M12.5663 5.10215C13.1459 5.10215 13.6158 4.63228 13.6158 4.05266C13.6158 3.47305 13.1459 3.00317 12.5663 3.00317C11.9867 3.00317 11.5168 3.47305 11.5168 4.05266C11.5168 4.63228 11.9867 5.10215 12.5663 5.10215Z" fill="white"/>
<path d="M21.6415 4.05294H19.0012C18.6201 3.62762 18.0678 3.35697 17.4491 3.35697H15.9854C15.6595 1.76616 14.2509 0.562012 12.5662 0.562012C10.8815 0.562012 9.47301 1.76064 9.14712 3.35697H7.68336C7.06471 3.35697 6.51787 3.62762 6.13122 4.05294H3.49094C1.56872 4.05294 0 5.61613 0 7.54388V31.9749C0 33.8971 1.56319 35.4658 3.49094 35.4658H21.6415C23.5638 35.4658 25.1325 33.9026 25.1325 31.9749V7.54388C25.1325 5.62166 23.5693 4.05294 21.6415 4.05294ZM6.98186 5.45042C6.98186 5.06377 7.2967 4.75445 7.67783 4.75445H9.77129C10.1579 4.75445 10.4673 4.4396 10.4673 4.05847C10.4673 2.90403 11.4063 1.96501 12.5607 1.96501C13.7152 1.96501 14.6542 2.90403 14.6542 4.05847C14.6542 4.44513 14.969 4.75445 15.3501 4.75445H17.4436C17.8302 4.75445 18.1396 5.06929 18.1396 5.45042V7.54388H6.97082V5.45042H6.98186ZM18.1506 8.94135C18.6919 8.94135 19.1559 8.63203 19.3879 8.1791H20.9456V31.3397H4.19243V8.1791H5.75009C5.98208 8.62651 6.44606 8.94135 6.98738 8.94135H18.1506ZM23.735 31.9804C23.735 33.1348 22.796 34.0739 21.6415 34.0739H3.49094C2.3365 34.0739 1.39748 33.1348 1.39748 31.9804V7.5494C1.39748 6.39496 2.3365 5.45595 3.49094 5.45595H5.58438V6.78714H4.18691C3.41912 6.78714 2.78943 7.41131 2.78943 8.18462V31.3452C2.78943 32.113 3.4136 32.7427 4.18691 32.7427H20.94C21.7078 32.7427 22.3375 32.1185 22.3375 31.3452V8.18462C22.3375 7.41683 21.7134 6.78714 20.94 6.78714H19.5426V5.45595H21.636C22.7905 5.45595 23.7295 6.39496 23.7295 7.5494V31.9804H23.735Z" fill="white"/>
<path d="M5.78881 14.3214L7.18629 15.7189C7.32438 15.8569 7.50113 15.9232 7.67788 15.9232C7.85464 15.9232 8.03693 15.8569 8.16949 15.7189L10.9644 12.9239C11.2351 12.6532 11.2351 12.2114 10.9644 11.9352C10.6938 11.6645 10.2519 11.6645 9.97572 11.9352L7.67788 14.233L6.77755 13.3326C6.50689 13.062 6.06499 13.062 5.78881 13.3326C5.51263 13.6033 5.51815 14.0507 5.78881 14.3214Z" fill="white"/>
<path d="M9.98121 18.2209L7.68338 20.5188L6.78302 19.6184C6.51237 19.3478 6.07048 19.3478 5.7943 19.6184C5.52364 19.8891 5.52364 20.331 5.7943 20.6072L7.19178 22.0046C7.32987 22.1427 7.50662 22.209 7.68338 22.209C7.86013 22.209 8.04241 22.1427 8.17497 22.0046L10.9699 19.2097C11.2406 18.939 11.2406 18.4971 10.9699 18.2209C10.6993 17.9448 10.2519 17.9503 9.98121 18.2209Z" fill="white"/>
<path d="M9.98121 24.5067L7.68338 26.8045L6.78302 25.9042C6.51237 25.6335 6.07048 25.6335 5.7943 25.9042C5.52364 26.1748 5.52364 26.6167 5.7943 26.8929L7.19178 28.2904C7.32987 28.4285 7.50662 28.4948 7.68338 28.4948C7.86013 28.4948 8.04241 28.4285 8.17497 28.2904L10.9699 25.4954C11.2406 25.2248 11.2406 24.7829 10.9699 24.5067C10.6993 24.2305 10.2519 24.2305 9.98121 24.5067Z" fill="white"/>
<path d="M12.5662 15.2274H18.8466C19.2332 15.2274 19.5425 14.9126 19.5425 14.5314C19.5425 14.1448 19.2277 13.8354 18.8466 13.8354H12.5662C12.1796 13.8354 11.8702 14.1503 11.8702 14.5314C11.8702 14.9126 12.1796 15.2274 12.5662 15.2274Z" fill="white"/>
<path d="M12.5662 21.5077H18.8466C19.2332 21.5077 19.5425 21.1928 19.5425 20.8117C19.5425 20.4306 19.2277 20.1157 18.8466 20.1157H12.5662C12.1796 20.1157 11.8702 20.4306 11.8702 20.8117C11.8702 21.1928 12.1796 21.5077 12.5662 21.5077Z" fill="white"/>
<path d="M12.5662 27.7882H18.8466C19.2332 27.7882 19.5425 27.4734 19.5425 27.0922C19.5425 26.7111 19.2277 26.3962 18.8466 26.3962H12.5662C12.1796 26.3962 11.8702 26.7111 11.8702 27.0922C11.8702 27.4734 12.1796 27.7882 12.5662 27.7882Z" fill="white"/>
</svg>
