<svg width="30" height="28" viewBox="0 0 30 28" fill="none" xmlns="http://www.w3.org/2000/svg">
<path d="M15.4141 20.4821C14.0097 20.4829 12.6367 20.0671 11.4687 19.2875C10.3006 18.5079 9.38996 17.3994 8.85188 16.1023C8.3138 14.8051 8.17246 13.3775 8.44573 12C8.719 10.6225 9.3946 9.35701 10.3871 8.36349C11.3796 7.36997 12.6444 6.69307 14.0217 6.41839C15.3989 6.14372 16.8266 6.2836 18.1243 6.82036C19.422 7.35711 20.5314 8.26662 21.3122 9.43389C22.093 10.6011 22.5102 11.9737 22.5109 13.3781C22.5099 15.2606 21.7621 17.0659 20.4317 18.3978C19.1012 19.7296 17.2966 20.4793 15.4141 20.4821ZM15.4141 7.18422C14.1874 7.1835 12.9882 7.54658 11.9679 8.22753C10.9477 8.90848 10.1523 9.87671 9.68241 11.0097C9.21251 12.1428 9.08919 13.3897 9.32805 14.5929C9.56691 15.796 10.1572 16.9013 11.0243 17.7689C11.8914 18.6365 12.9963 19.2274 14.1993 19.467C15.4023 19.7066 16.6493 19.584 17.7827 19.1147C18.916 18.6455 19.8847 17.8507 20.5662 16.8308C21.2478 15.811 21.6115 14.6119 21.6115 13.3853C21.6106 11.7409 20.9577 10.164 19.7959 9.00025C18.6342 7.83648 17.0584 7.18081 15.4141 7.17697V7.18422Z" fill="white"/>
<path d="M14.8342 20.3881C14.7636 20.3874 14.6941 20.3703 14.6311 20.3382C14.5682 20.3061 14.5136 20.2599 14.4716 20.2031C13.206 18.4661 12.4771 15.9458 12.4771 13.2876C12.4771 10.7492 13.1552 8.28322 14.3374 6.5607C14.4122 6.48623 14.5108 6.44045 14.6159 6.43136C14.7211 6.42227 14.8261 6.45045 14.9125 6.51097C14.999 6.5715 15.0614 6.6605 15.0888 6.76241C15.1163 6.86431 15.107 6.97263 15.0627 7.06839C13.9747 8.64586 13.3583 10.9123 13.3583 13.2876C13.3583 15.7608 14.0255 18.0889 15.1714 19.6737C15.2234 19.7406 15.2554 19.8209 15.2637 19.9053C15.272 19.9896 15.2563 20.0746 15.2184 20.1504C15.1805 20.2262 15.1219 20.2898 15.0494 20.3338C14.977 20.3777 14.8936 20.4003 14.8088 20.3989L14.8342 20.3881Z" fill="white"/>
<path d="M15.7549 20.3881C15.6597 20.3881 15.5669 20.3576 15.4902 20.301C15.3942 20.2307 15.3299 20.1252 15.3116 20.0076C15.2932 19.89 15.3223 19.7699 15.3923 19.6737C16.5491 18.0889 17.2055 15.7608 17.2055 13.2876C17.2055 10.9123 16.5817 8.64586 15.5011 7.06839C15.4567 6.97263 15.4474 6.86431 15.4749 6.76241C15.5023 6.6605 15.5648 6.5715 15.6512 6.51097C15.7377 6.45045 15.8427 6.42227 15.9478 6.43136C16.053 6.44045 16.1516 6.48623 16.2264 6.5607C17.4339 8.28322 18.1229 10.7347 18.1229 13.2876C18.1229 15.9458 17.3977 18.4661 16.1284 20.2031C16.0857 20.2618 16.0294 20.3093 15.9644 20.3415C15.8994 20.3737 15.8275 20.3897 15.7549 20.3881Z" fill="white"/>
<path d="M15.3234 10.6909C13.5132 10.7126 11.7184 10.3556 10.0543 9.6429C9.99549 9.62256 9.94155 9.59024 9.89589 9.54799C9.85023 9.50573 9.81383 9.45447 9.789 9.39742C9.76416 9.34038 9.75144 9.27881 9.75163 9.21659C9.75181 9.15438 9.76491 9.09288 9.79008 9.03599C9.81526 8.9791 9.85196 8.92805 9.89788 8.88607C9.94379 8.84409 9.99792 8.81209 10.0568 8.79211C10.1157 8.77212 10.1782 8.76458 10.2402 8.76995C10.3021 8.77533 10.3623 8.79351 10.4169 8.82334C11.9642 9.4859 13.6331 9.81696 15.3161 9.79521C17.0435 9.81837 18.7555 9.46831 20.335 8.76895C20.3881 8.74383 20.4456 8.72943 20.5043 8.7266C20.563 8.72376 20.6216 8.73253 20.6768 8.75241C20.7321 8.77229 20.7829 8.80288 20.8263 8.84244C20.8697 8.88199 20.9049 8.92972 20.9298 8.9829C20.9548 9.03646 20.9691 9.09445 20.9717 9.15353C20.9744 9.21261 20.9653 9.27163 20.9451 9.32721C20.9249 9.3828 20.8939 9.43384 20.854 9.47744C20.814 9.52103 20.7658 9.55631 20.7122 9.58125C19.0167 10.3346 17.1786 10.7131 15.3234 10.6909ZM20.5019 18.0488C20.4368 18.0496 20.3725 18.0359 20.3133 18.0089C18.7417 17.3182 17.04 16.9732 15.3234 16.9972C13.6498 16.9735 11.9892 17.2957 10.4459 17.9437C10.3368 17.9918 10.213 17.9945 10.1018 17.9513C9.99059 17.9081 9.9011 17.8226 9.85302 17.7134C9.80493 17.6042 9.80217 17.4804 9.84536 17.3692C9.88854 17.2581 9.97413 17.1686 10.0833 17.1205C11.7401 16.4185 13.5241 16.0667 15.3234 16.087C17.1696 16.0624 18.9996 16.4334 20.6904 17.1749C20.7439 17.1995 20.792 17.2344 20.832 17.2776C20.8719 17.3209 20.9029 17.3716 20.9231 17.4269C20.9433 17.4822 20.9524 17.541 20.9498 17.5998C20.9472 17.6586 20.933 17.7163 20.908 17.7696C20.8761 17.8515 20.8203 17.9218 20.7478 17.9716C20.6754 18.0214 20.5897 18.0483 20.5019 18.0488ZM22.0249 13.8241H8.79593C8.73373 13.8297 8.67104 13.8223 8.61187 13.8023C8.55269 13.7824 8.49832 13.7503 8.45222 13.7082C8.40612 13.666 8.3693 13.6148 8.34412 13.5576C8.31893 13.5005 8.30592 13.4387 8.30592 13.3763C8.30592 13.3138 8.31893 13.252 8.34412 13.1949C8.3693 13.1377 8.40612 13.0865 8.45222 13.0443C8.49832 13.0022 8.55269 12.9701 8.61187 12.9502C8.67104 12.9302 8.73373 12.9228 8.79593 12.9284H22.0249C22.0871 12.9228 22.1498 12.9302 22.209 12.9502C22.2682 12.9701 22.3225 13.0022 22.3686 13.0443C22.4147 13.0865 22.4516 13.1377 22.4768 13.1949C22.5019 13.252 22.515 13.3138 22.515 13.3763C22.515 13.4387 22.5019 13.5005 22.4768 13.5576C22.4516 13.6148 22.4147 13.666 22.3686 13.7082C22.3225 13.7503 22.2682 13.7824 22.209 13.8023C22.1498 13.8223 22.0871 13.8297 22.0249 13.8241ZM25.2125 18.5783C25.0933 18.5783 24.9789 18.5309 24.8946 18.4466C24.8102 18.3623 24.7629 18.2479 24.7629 18.1286V9.1896C24.7624 9.13042 24.7737 9.07173 24.7961 9.01695C24.8185 8.96218 24.8516 8.91241 24.8935 8.87056C24.9353 8.82871 24.9851 8.79561 25.0399 8.77318C25.0946 8.75075 25.1533 8.73945 25.2125 8.73993C26.494 8.77473 27.7114 9.30827 28.6055 10.227C29.4996 11.1457 29.9999 12.3771 29.9999 13.6591C29.9999 14.9411 29.4996 16.1725 28.6055 17.0912C27.7114 18.01 26.494 18.5435 25.2125 18.5783ZM25.6586 9.66103V17.6391C26.6287 17.5147 27.5202 17.0411 28.1664 16.3069C28.8125 15.5726 29.1689 14.6281 29.1689 13.65C29.1689 12.672 28.8125 11.7275 28.1664 10.9932C27.5202 10.259 26.6287 9.78538 25.6586 9.66103ZM5.6156 18.5783C4.95836 18.5961 4.30422 18.4821 3.69179 18.2429C3.07937 18.0037 2.52108 17.6442 2.04991 17.1857C1.57874 16.7271 1.20423 16.1788 0.948509 15.5731C0.692787 14.9674 0.561035 14.3166 0.561035 13.6591C0.561035 13.0016 0.692787 12.3508 0.948509 11.7451C1.20423 11.1394 1.57874 10.5911 2.04991 10.1325C2.52108 9.67398 3.07937 9.3145 3.69179 9.07531C4.30422 8.83612 4.95836 8.72209 5.6156 8.73993C5.67448 8.73993 5.73278 8.75159 5.78713 8.77423C5.84149 8.79687 5.89082 8.83005 5.93229 8.87186C5.97376 8.91366 6.00653 8.96326 6.02874 9.0178C6.05094 9.07233 6.06212 9.13072 6.06164 9.1896V18.1286C6.06165 18.2472 6.01477 18.3611 5.93122 18.4453C5.84768 18.5295 5.73423 18.5773 5.6156 18.5783ZM5.16593 9.66103C4.19582 9.78538 3.30427 10.259 2.65814 10.9932C2.01201 11.7275 1.6556 12.672 1.6556 13.65C1.6556 14.6281 2.01201 15.5726 2.65814 16.3069C3.30427 17.0411 4.19582 17.5147 5.16593 17.6391V9.66103ZM16.8392 27.2816H13.9853C13.7585 27.2921 13.5319 27.2566 13.3192 27.177C13.1065 27.0975 12.9122 26.9757 12.7479 26.8189C12.5837 26.6621 12.4529 26.4736 12.3636 26.2649C12.2743 26.0561 12.2282 25.8314 12.2282 25.6044C12.2282 25.3773 12.2743 25.1526 12.3636 24.9439C12.4529 24.7351 12.5837 24.5467 12.7479 24.3899C12.9122 24.2331 13.1065 24.1113 13.3192 24.0317C13.5319 23.9522 13.7585 23.9166 13.9853 23.9272H16.8392C17.066 23.9166 17.2926 23.9522 17.5053 24.0317C17.718 24.1113 17.9123 24.2331 18.0766 24.3899C18.2408 24.5467 18.3715 24.7351 18.4609 24.9439C18.5502 25.1526 18.5962 25.3773 18.5962 25.6044C18.5962 25.8314 18.5502 26.0561 18.4609 26.2649C18.3715 26.4736 18.2408 26.6621 18.0766 26.8189C17.9123 26.9757 17.718 27.0975 17.5053 27.177C17.2926 27.2566 17.066 27.2921 16.8392 27.2816ZM13.9853 24.8338C13.7785 24.8338 13.5802 24.9159 13.434 25.0621C13.2877 25.2084 13.2056 25.4067 13.2056 25.6135C13.2056 25.8202 13.2877 26.0185 13.434 26.1648C13.5802 26.311 13.7785 26.3931 13.9853 26.3931H16.8392C17.046 26.3931 17.2443 26.311 17.3905 26.1648C17.5368 26.0185 17.6189 25.8202 17.6189 25.6135C17.6189 25.4067 17.5368 25.2084 17.3905 25.0621C17.2443 24.9159 17.046 24.8338 16.8392 24.8338H13.9853Z" fill="white"/>
<path d="M3.78066 10.031C3.73356 10.0311 3.68685 10.0225 3.64286 10.0056C3.58673 9.98758 3.53473 9.95856 3.48988 9.92027C3.44503 9.88198 3.40822 9.83517 3.38158 9.78256C3.35494 9.72995 3.33899 9.67258 3.33467 9.61377C3.33034 9.55496 3.33772 9.49587 3.35638 9.43993C4.19187 6.90193 5.80702 4.69233 7.97173 3.12595C10.1364 1.55957 12.7403 0.716309 15.4123 0.716309C18.0842 0.716309 20.6881 1.55957 22.8528 3.12595C25.0175 4.69233 26.6326 6.90193 27.4681 9.43993C27.5052 9.55342 27.4956 9.67697 27.4415 9.7834C27.3875 9.88984 27.2933 9.97043 27.1798 10.0075C27.0663 10.0445 26.9428 10.0349 26.8364 9.98085C26.7299 9.92678 26.6493 9.83265 26.6123 9.71916C25.8399 7.35723 24.3406 5.29991 22.3288 3.84117C20.3169 2.38244 17.8955 1.59695 15.4104 1.59695C12.9254 1.59695 10.504 2.38244 8.49213 3.84117C6.48029 5.29991 4.98103 7.35723 4.20858 9.71916C4.17942 9.80973 4.12228 9.88872 4.04539 9.94476C3.9685 10.0008 3.87581 10.031 3.78066 10.031ZM18.123 25.755C18.0098 25.7602 17.8988 25.7221 17.8127 25.6484C17.7266 25.5748 17.6717 25.4711 17.6592 25.3585C17.6468 25.2458 17.6776 25.1327 17.7456 25.042C17.8135 24.9513 17.9135 24.8898 18.0251 24.8701C19.9006 24.4449 21.6433 23.5664 23.1005 22.3115C24.5577 21.0565 25.6851 19.4635 26.3839 17.6718C26.4276 17.5607 26.5137 17.4716 26.6232 17.424C26.7327 17.3764 26.8566 17.3742 26.9677 17.418C27.0788 17.4617 27.1679 17.5478 27.2155 17.6573C27.2631 17.7668 27.2653 17.8907 27.2215 18.0018C26.4675 19.9311 25.2516 21.6459 23.6804 22.9957C22.1092 24.3456 20.2309 25.2893 18.21 25.7441C18.1814 25.7506 18.1523 25.7542 18.123 25.755Z" fill="white"/>
</svg>
