<svg width="37" height="38" viewBox="0 0 37 38" fill="none" xmlns="http://www.w3.org/2000/svg">
<path opacity="0.1" fill-rule="evenodd" clip-rule="evenodd" d="M0 19.123C0 8.90578 8.28273 0.623047 18.5 0.623047C28.7173 0.623047 37 8.90578 37 19.123C37 29.3403 28.7173 37.623 18.5 37.623C8.28273 37.623 0 29.3403 0 19.123Z" fill="#767676"/>
<path d="M26.7445 10.7664L9.71593 17.8449C8.78442 18.1402 8.81437 19.1499 9.50323 19.3929L13.7699 20.8547L15.4024 26.3494C15.6009 26.9507 15.7628 27.1775 16.1019 27.1825C16.4583 27.1876 16.5943 27.0448 16.9644 26.6859C17.3974 26.2396 18.0573 25.5363 19.0995 24.424L23.5378 28.024C24.3545 28.5183 24.9444 28.262 25.1475 27.1909L27.9298 12.0815C28.2283 10.7686 27.5258 10.3774 26.7445 10.7664ZM14.4394 20.5187L24.1398 13.8375C24.6175 13.4859 24.7672 13.8782 24.5515 14.1496L16.5009 22.0996L16.0882 26.0674L14.4394 20.5187Z" fill="white"/>
</svg>
