<svg width="37" height="38" viewBox="0 0 37 38" fill="none" xmlns="http://www.w3.org/2000/svg">
<path opacity="0.1" fill-rule="evenodd" clip-rule="evenodd" d="M0 19.123C0 8.90578 8.28273 0.623047 18.5 0.623047C28.7173 0.623047 37 8.90578 37 19.123C37 29.3403 28.7173 37.623 18.5 37.623C8.28273 37.623 0 29.3403 0 19.123Z" fill="#767676"/>
<path d="M24.5958 20.313C24.2725 19.9047 24.365 19.723 24.5958 19.358C24.6 19.3539 27.2692 15.6655 27.5442 14.4147L27.5458 14.4139C27.6825 13.958 27.5458 13.623 26.885 13.623H24.6983C24.1417 13.623 23.885 13.9105 23.7475 14.2322C23.7475 14.2322 22.6342 16.8972 21.0592 18.6247C20.5508 19.1239 20.3158 19.2839 20.0383 19.2839C19.9017 19.2839 19.6892 19.1239 19.6892 18.668V14.4139C19.6892 13.8672 19.5333 13.623 19.0725 13.623H15.6342C15.285 13.623 15.0775 13.878 15.0775 14.1155C15.0775 14.6339 15.865 14.753 15.9467 16.2114V19.3755C15.9467 20.0689 15.8208 20.1964 15.5417 20.1964C14.7983 20.1964 12.9942 17.5205 11.925 14.458C11.7092 13.8639 11.4983 13.6239 10.9375 13.6239H8.75C8.12583 13.6239 8 13.9114 8 14.233C8 14.8014 8.74333 17.6272 11.4567 21.3605C13.265 23.9089 15.8117 25.2897 18.1283 25.2897C19.5208 25.2897 19.6908 24.983 19.6908 24.4555C19.6908 22.0205 19.565 21.7905 20.2625 21.7905C20.5858 21.7905 21.1425 21.9505 22.4425 23.1797C23.9283 24.6372 24.1725 25.2897 25.0042 25.2897H27.1908C27.8142 25.2897 28.13 24.983 27.9483 24.378C27.5325 23.1055 24.7225 20.488 24.5958 20.313Z" fill="white"/>
</svg>
