<svg width="37" height="38" viewBox="0 0 37 38" fill="none" xmlns="http://www.w3.org/2000/svg">
<path opacity="0.1" fill-rule="evenodd" clip-rule="evenodd" d="M0 19.123C0 8.90578 8.28273 0.623047 18.5 0.623047C28.7173 0.623047 37 8.90578 37 19.123C37 29.3403 28.7173 37.623 18.5 37.623C8.28273 37.623 0 29.3403 0 19.123Z" fill="#767676"/>
<path fill-rule="evenodd" clip-rule="evenodd" d="M18.5983 9.62305C13.4865 9.62305 9.34265 13.7666 9.34265 18.8782C9.34265 20.627 9.82768 22.2624 10.6706 23.6576L9 28.623L14.1244 26.9824C15.4504 27.7155 16.9755 28.1338 18.5983 28.1338C23.7102 28.1338 27.854 23.9897 27.854 18.8782C27.854 13.7666 23.7102 9.62305 18.5983 9.62305ZM18.5983 26.5831C17.0333 26.5831 15.576 26.1138 14.3588 25.3092L11.398 26.2567L12.3602 23.3959C11.4379 22.1252 10.893 20.565 10.893 18.8782C10.893 14.6295 14.3499 11.1733 18.5983 11.1733C22.8472 11.1733 26.3036 14.6295 26.3036 18.8782C26.3036 23.1268 22.8472 26.5831 18.5983 26.5831ZM22.9382 20.9812C22.7059 20.854 21.566 20.2392 21.3526 20.1525C21.1387 20.0652 20.9826 20.0201 20.816 20.2508C20.65 20.4809 20.177 20.9964 20.0335 21.1488C19.8895 21.3012 19.7513 21.3154 19.519 21.1882C19.2878 21.0616 18.5358 20.783 17.6634 19.9449C16.9844 19.2922 16.5393 18.5013 16.41 18.2596C16.2812 18.0179 16.4095 17.8949 16.5319 17.7814C16.6423 17.6794 16.7789 17.5144 16.9019 17.3809C17.0248 17.2475 17.0685 17.1508 17.1531 16.9958C17.2377 16.8413 17.2035 16.7015 17.1489 16.5812C17.0937 16.4614 16.6649 15.2806 16.4857 14.8003C16.307 14.3205 16.1073 14.3915 15.9691 14.3862C15.8314 14.3815 15.6748 14.3557 15.5171 14.3499C15.3594 14.3436 15.1014 14.3936 14.8759 14.6216C14.6505 14.8497 14.0188 15.3983 13.9752 16.5612C13.9316 17.7231 14.7362 18.8781 14.8481 19.04C14.9606 19.2024 16.3843 21.7221 18.7502 22.7584C21.1172 23.7942 21.1292 23.4784 21.5639 23.4553C21.9979 23.4322 22.9828 22.9355 23.2004 22.3916C23.4179 21.8477 23.4358 21.3748 23.3801 21.2739C23.3249 21.1736 23.1699 21.1078 22.9382 20.9812Z" fill="white"/>
</svg>
