<svg width="109" height="17" viewBox="0 0 109 17" fill="none" xmlns="http://www.w3.org/2000/svg">
<path fill-rule="evenodd" clip-rule="evenodd" d="M101.204 12.0246H100.138V8.91661H101.259C102.246 8.91661 102.825 9.36079 102.825 10.4796C102.825 11.5991 102.185 12.0246 101.204 12.0246ZM106.049 4.13521V13.8375H108.352V4.13521H106.049ZM97.8404 4.13521V13.8375H101.339C103.599 13.8375 105.201 12.6818 105.201 10.4009C105.201 8.2413 103.77 7.10373 101.375 7.10373H100.138V4.13521H97.8404ZM96.4875 5.94809V4.13521H88.7792V5.94809H91.4851V13.8375H93.7822V5.94809H96.4875ZM84.0323 12.2137C82.8132 12.2137 82.1923 11.2344 82.1923 8.99537C82.1923 6.73896 82.85 5.75957 84.148 5.75957C85.4033 5.75957 86.019 6.73896 86.019 8.9773C86.019 11.2344 85.3606 12.2137 84.0323 12.2137ZM82.0216 4.13521H79.8945V16.6297H82.1923V12.6999C82.777 13.5637 83.6242 14.0266 84.6111 14.0266C86.8474 14.0266 88.395 12.2376 88.395 8.9773C88.395 5.73503 86.8901 3.94669 84.7268 3.94669C83.6423 3.94669 82.7524 4.44575 82.1374 5.38834L82.0216 4.13521ZM75.7452 11.5204C75.4522 11.9458 74.9103 12.2925 74.0999 12.2925C73.1369 12.2925 72.6493 11.7515 72.6493 10.9238C72.6493 9.82305 73.4415 9.42148 75.416 9.42148H75.7452V11.5204ZM78.0423 7.2193C78.0423 4.87121 76.842 3.98285 74.4103 3.98285C72.8873 3.98285 71.687 4.46383 70.9918 4.87121V6.78157C71.6074 6.31286 72.9604 5.81445 74.1426 5.81445C75.2394 5.81445 75.7452 6.19729 75.7452 7.24383V7.77904H75.3733C71.8571 7.77904 70.2972 8.94114 70.2972 10.9057C70.2972 12.8703 71.4917 13.9717 73.2715 13.9717C74.6238 13.9717 75.2026 13.5276 75.6475 13.0653H75.7452C75.7633 13.3145 75.8422 13.6431 75.9159 13.8375H78.1581C78.0785 13.0472 78.0423 12.2564 78.0423 11.4655V7.2193ZM67.4762 13.8375H70.2002L65.4287 6.79965L69.7552 0.4365H67.3785L63.2227 6.60467V0.4365H60.8887V13.8375H63.2227V7.54791L67.4762 13.8375Z" fill="black"/>
<path d="M7.46532 2.25063H6.41629C4.49303 2.25063 3.48288 3.21564 3.48288 4.64371C3.48288 6.26488 4.18223 7.01751 5.61982 7.98252L6.80477 8.77379L3.38576 13.8494H0.84082L3.91023 9.31412C2.14241 8.05963 1.15162 6.84385 1.15162 4.77881C1.15162 2.1928 2.95832 0.436523 6.39685 0.436523H9.81594V13.8494H7.46532V2.25063Z" fill="black"/>
<path d="M26.5614 12.0353H23.2978C23.9388 10.5686 24.1137 7.92454 24.1137 6.24554V5.95605H26.5614V12.0353ZM28.8731 4.14195H22.1322V4.97185C22.1322 7.34557 21.9767 10.4142 21.1608 12.0353H20.442V16.0689H22.579V13.8494H27.7659V16.0689H29.9028V12.0353H28.8731V4.14195Z" fill="black"/>
<path d="M17.159 7.98245H14.0701V4.14195H11.7584V13.8494H14.0701V9.79656H17.159V13.8494H19.4707V4.14195H17.159V7.98245Z" fill="black"/>
<path d="M52.9427 5.76312C53.8363 5.76312 54.7106 6.07188 55.1768 6.36137V4.41216C54.6911 4.14195 53.8363 3.94901 52.6903 3.94901C49.7374 3.94901 48.2027 6.05261 48.2027 9.0053C48.2027 12.2476 49.6984 14.0425 52.7873 14.0425C53.8558 14.0425 54.6134 13.8494 55.1768 13.4442V11.5721C54.594 11.9774 53.8946 12.2283 52.9233 12.2283C51.272 12.2283 50.5922 10.9546 50.5922 8.94747C50.5922 6.84387 51.4275 5.76312 52.9427 5.76312Z" fill="black"/>
<path d="M47.8918 4.14195H45.5606L42.297 8.61934V4.14195H39.9852V13.8494H42.297V9.08249L45.716 13.8494H48.3386L44.6282 8.61934L47.8918 4.14195Z" fill="black"/>
<path d="M36.0805 8.11756H32.8557C32.914 6.57366 33.4773 5.76311 34.5847 5.76311C35.7308 5.76311 36.0805 6.70876 36.0805 7.92454V8.11756ZM34.6235 3.94893C31.8067 3.94893 30.4663 6.09115 30.4663 9.02457C30.4663 12.402 32.1369 14.0425 35.0898 14.0425C36.5662 14.0425 37.6541 13.6564 38.334 13.1932V11.3213C37.6152 11.8037 36.4108 12.2283 35.284 12.2283C33.594 12.2283 32.9528 11.4371 32.8557 9.81592H38.4311V8.60006C38.4311 5.2227 36.9353 3.94893 34.6235 3.94893Z" fill="black"/>
</svg>
