<svg width="228" height="33" viewBox="0 0 228 33" fill="none" xmlns="http://www.w3.org/2000/svg">
<path fill-rule="evenodd" clip-rule="evenodd" d="M118.701 0.786133C111.632 0.786133 105.901 6.51663 105.901 13.5859C105.901 17.1194 107.334 20.319 109.649 22.635C111.965 24.9522 117.421 28.3055 117.741 31.8262C117.79 32.3541 118.172 32.7861 118.701 32.7861C119.232 32.7861 119.614 32.3541 119.662 31.8262C119.982 28.3055 125.438 24.9522 127.754 22.635C130.07 20.319 131.501 17.1194 131.501 13.5859C131.501 6.51663 125.771 0.786133 118.701 0.786133Z" fill="#FF4433"/>
<path fill-rule="evenodd" clip-rule="evenodd" d="M118.737 18.1152C121.218 18.1152 123.229 16.1031 123.229 13.6231C123.229 11.1418 121.218 9.12976 118.737 9.12976C116.256 9.12976 114.245 11.1418 114.245 13.6231C114.245 16.1031 116.256 18.1152 118.737 18.1152Z" fill="white"/>
<path fill-rule="evenodd" clip-rule="evenodd" d="M214.905 24.5632H213.021V19.074H215.002C216.745 19.074 217.767 19.8585 217.767 21.8345C217.767 23.8117 216.638 24.5632 214.905 24.5632ZM223.461 10.6292V27.765H227.529V10.6292H223.461ZM208.964 10.6292V27.765H215.143C219.135 27.765 221.965 25.7239 221.965 21.6954C221.965 17.8812 219.436 15.8721 215.206 15.8721H213.021V10.6292H208.964ZM206.575 13.831V10.6292H192.961V13.831H197.74V27.765H201.797V13.831H206.575ZM184.577 24.8973C182.424 24.8973 181.327 23.1675 181.327 19.2131C181.327 15.2279 182.489 13.4981 184.781 13.4981C186.998 13.4981 188.086 15.2279 188.086 19.1811C188.086 23.1675 186.923 24.8973 184.577 24.8973ZM181.026 10.6292H177.269V32.6966H181.327V25.7559C182.36 27.2815 183.856 28.0991 185.599 28.0991C189.549 28.0991 192.282 24.9394 192.282 19.1811C192.282 13.4548 189.624 10.2962 185.803 10.2962C183.888 10.2962 182.316 11.1777 181.23 12.8424L181.026 10.6292ZM169.94 23.6726C169.423 24.4241 168.466 25.0364 167.034 25.0364C165.334 25.0364 164.472 24.0808 164.472 22.619C164.472 20.6749 165.872 19.9656 169.359 19.9656H169.94V23.6726ZM173.997 16.0762C173.997 11.9291 171.877 10.3601 167.583 10.3601C164.893 10.3601 162.773 11.2096 161.545 11.9291V15.3031C162.632 14.4753 165.022 13.595 167.11 13.595C169.047 13.595 169.94 14.2712 169.94 16.1195V17.0648H169.283C163.073 17.0648 160.318 19.1173 160.318 22.5871C160.318 26.0569 162.428 28.0022 165.571 28.0022C167.96 28.0022 168.982 27.2177 169.768 26.4013H169.94C169.972 26.8414 170.112 27.4218 170.242 27.765H174.202C174.061 26.3693 173.997 24.9725 173.997 23.5757V16.0762ZM155.336 27.765H160.147L151.72 15.335L159.361 4.09664H155.163L147.823 14.9907V4.09664H143.701V27.765H147.823V16.6566L155.336 27.765Z" fill="black"/>
<path d="M11.6961 7.3007H9.84333C6.44652 7.3007 4.66242 9.00507 4.66242 11.5273C4.66242 14.3905 5.8976 15.7198 8.43662 17.4242L10.5294 18.8217L4.49089 27.7862H-0.00390625L5.4172 19.776C2.29492 17.5604 0.545014 15.4131 0.545014 11.7659C0.545014 7.19856 3.73596 4.09668 9.80899 4.09668H15.8477V27.7862H11.6961V7.3007Z" fill="black"/>
<path d="M45.423 24.582H39.6589C40.791 21.9916 41.0999 17.3218 41.0999 14.3564V13.8451H45.423V24.582ZM49.506 10.6411H37.6002V12.1068C37.6002 16.2992 37.3257 21.7189 35.8847 24.582H34.6152V31.7061H38.3894V27.7862H47.5503V31.7061H51.3245V24.582H49.506V10.6411Z" fill="black"/>
<path d="M28.8167 17.4241H23.3612V10.6411H19.2783V27.786H23.3612V20.6281H28.8167V27.786H32.8996V10.6411H28.8167V17.4241Z" fill="black"/>
<path d="M92.0169 13.5044C93.5952 13.5044 95.1392 14.0497 95.9627 14.561V11.1183C95.1049 10.6411 93.5952 10.3003 91.571 10.3003C86.3558 10.3003 83.6452 14.0156 83.6452 19.2306C83.6452 24.9571 86.287 28.1271 91.7424 28.1271C93.6296 28.1271 94.9677 27.7862 95.9627 27.0705V23.764C94.9333 24.4799 93.6982 24.9229 91.9826 24.9229C89.0662 24.9229 87.8655 22.6734 87.8655 19.1285C87.8655 15.4131 89.3407 13.5044 92.0169 13.5044Z" fill="black"/>
<path d="M83.0962 10.6411H78.9789L73.2147 18.5489V10.6411H69.1317V27.7862H73.2147V19.3669L79.2533 27.7862H83.8853L77.332 18.5489L83.0962 10.6411Z" fill="black"/>
<path d="M62.2354 17.6627H56.5399C56.6427 14.9359 57.6377 13.5043 59.5935 13.5043C61.6178 13.5043 62.2354 15.1745 62.2354 17.3218V17.6627ZM59.6621 10.3002C54.6871 10.3002 52.3197 14.0837 52.3197 19.2646C52.3197 25.2298 55.2703 28.1271 60.4856 28.1271C63.0931 28.1271 65.0146 27.4453 66.2154 26.6271V23.321C64.9459 24.173 62.8187 24.9229 60.8286 24.9229C57.8437 24.9229 56.7114 23.5255 56.5399 20.6623H66.3869V18.5149C66.3869 12.5499 63.7451 10.3002 59.6621 10.3002Z" fill="black"/>
</svg>
