<svg width="37" height="38" viewBox="0 0 37 38" fill="none" xmlns="http://www.w3.org/2000/svg">
<path opacity="0.1" fill-rule="evenodd" clip-rule="evenodd" d="M0 19.123C0 8.90578 8.28273 0.623047 18.5 0.623047C28.7173 0.623047 37 8.90578 37 19.123C37 29.3403 28.7173 37.623 18.5 37.623C8.28273 37.623 0 29.3403 0 19.123Z" fill="#767676"/>
<path fill-rule="evenodd" clip-rule="evenodd" d="M26.5762 12.0465C27.4253 12.2795 28.094 12.966 28.321 13.8378C28.7333 15.4179 28.7333 18.7147 28.7333 18.7147C28.7333 18.7147 28.7333 22.0114 28.321 23.5916C28.094 24.4634 27.4253 25.1499 26.5762 25.3831C25.0375 25.8064 18.8667 25.8064 18.8667 25.8064C18.8667 25.8064 12.6959 25.8064 11.157 25.3831C10.3079 25.1499 9.6392 24.4634 9.41227 23.5916C9 22.0114 9 18.7147 9 18.7147C9 18.7147 9 15.4179 9.41227 13.8378C9.6392 12.966 10.3079 12.2795 11.157 12.0465C12.6959 11.623 18.8667 11.623 18.8667 11.623C18.8667 11.623 25.0375 11.623 26.5762 12.0465ZM17.0167 15.9396V22.1063L21.95 19.0231L17.0167 15.9396Z" fill="#F8F8F8"/>
</svg>
