<svg width="32" height="34" viewBox="0 0 32 34" fill="none" xmlns="http://www.w3.org/2000/svg">
<path d="M28.2776 17.6252C31.2392 14.199 31.7766 9.45715 30.7745 6.53478C30.2203 4.91685 29.2125 3.88113 27.9417 3.60121H27.9473L27.9193 3.59562C27.9081 3.59002 27.8913 3.58441 27.8801 3.58441C27.8745 3.58441 27.8689 3.58441 27.8633 3.58441L11.7512 0.258967C9.95407 -0.0937329 8.31933 0.818812 7.59154 2.58791C6.90294 4.26743 7.29483 6.08131 8.52088 6.89308C8.58806 6.93786 8.66083 6.97145 8.73921 6.98825L10.8722 7.5145C10.6651 9.52993 6.24233 15.1283 2.91129 18.7337C0.795096 21.1802 -0.24061 23.7891 0.0673019 25.8773C0.274443 27.2937 1.05822 28.4413 2.39624 29.2867C2.46902 29.3315 2.54739 29.3595 2.62577 29.3763C2.62577 29.3763 2.62577 29.3763 2.62577 29.3819L22.1026 33.7486V33.743C22.4049 33.8102 22.7072 33.8438 23.0039 33.8438C23.9557 33.8438 24.885 33.5191 25.6464 32.8865C27.1747 31.61 27.6674 29.3819 26.9732 26.9186C26.9732 26.913 26.9732 26.913 26.9732 26.9074C26.9676 26.8962 26.9676 26.885 26.962 26.8682L26.9564 26.8738C26.8836 26.6219 26.6821 26.4203 26.4078 26.3699L21.3804 25.4518C21.6267 25.1103 21.8954 24.7632 22.1922 24.4161L28.2776 17.6252ZM8.90157 3.12535C9.08072 2.69427 9.78611 1.31147 11.4712 1.64737L25.0697 4.45217C24.8178 4.70969 24.5939 5.01761 24.4035 5.3759C23.7821 6.55157 23.6086 8.06874 23.8605 9.26679L9.22068 5.63904C8.55447 5.11839 8.55447 3.9763 8.90157 3.12535ZM1.4725 25.6757C1.22618 24.013 2.1667 21.768 3.97498 19.6798C5.3298 18.213 11.5328 11.3438 12.2214 7.85041L24.9354 10.9967C24.9914 11.0135 25.0473 11.0191 25.1033 11.0191C25.3553 11.0191 25.596 10.8847 25.7191 10.6608C25.8759 10.3809 25.8255 10.0338 25.6016 9.80985C25.0977 9.31159 24.913 7.42492 25.6464 6.04771C26.1054 5.18556 26.7773 4.82727 27.645 4.98962C28.6751 5.22475 29.207 6.34443 29.4365 6.99944C30.2874 9.47394 29.7948 13.7119 27.2139 16.6959L21.1341 23.4867C19.9024 24.9087 17.9206 27.68 18.4356 30.272C18.5308 30.7591 18.7156 31.207 18.9731 31.6156L3.07924 28.0382C2.1611 27.428 1.61806 26.6331 1.4725 25.6757ZM25.7023 27.68C26.1054 29.4547 25.7751 30.9382 24.745 31.8004C23.8941 32.5114 22.7072 32.6233 21.6491 32.0971C20.6022 31.5708 20.0032 30.8822 19.824 29.9921C19.6449 29.0852 19.908 27.9599 20.563 26.745L25.7023 27.68Z" fill="white"/>
<path d="M12.3446 23.3247C12.4845 23.4646 12.6637 23.5318 12.8428 23.5318C13.022 23.5318 13.2067 23.4646 13.3411 23.3247L20.4174 16.2483C20.6918 15.974 20.6918 15.5261 20.4174 15.2462L19.001 13.8298C18.7267 13.5554 18.2789 13.5554 17.9989 13.8298L12.8372 18.9915L11.2137 17.368C10.9394 17.0936 10.4915 17.0936 10.2116 17.368L8.79517 18.7844C8.6608 18.9187 8.58803 19.0979 8.58803 19.2826C8.58803 19.4674 8.6608 19.6521 8.79517 19.7809L12.3446 23.3247ZM10.721 18.8739L12.3446 20.4975C12.6189 20.7718 13.0667 20.7718 13.3467 20.4975L18.5084 15.3357L18.9227 15.75L12.8484 21.8243L10.3123 19.2882L10.721 18.8739Z" fill="white"/>
</svg>
