<svg width="52" height="53" viewBox="0 0 52 53" fill="none" xmlns="http://www.w3.org/2000/svg">
<circle cx="26" cy="26.6128" r="25.5" stroke="white"/>
<path d="M38.6014 38.0306H37.5638V30.8144C37.5638 30.4871 37.2979 30.2211 36.9705 30.2211H36.1405L35.2344 20.8801C35.2052 20.5761 34.9509 20.3452 34.644 20.3452H33.2645C32.9605 20.3452 32.7033 20.5761 32.6741 20.8801L31.7681 30.2211H30.1986V27.4036C30.1986 27.199 30.0933 27.0061 29.918 26.898C29.7426 26.7898 29.5234 26.7811 29.3422 26.8717L25.2592 28.9146V27.4036C25.2592 27.1932 25.1481 27.0003 24.9669 26.8921C24.7857 26.7869 24.5606 26.784 24.3794 26.8863L20.8137 28.8679V27.4036C20.8137 27.2049 20.7143 27.0178 20.5448 26.9067C20.3782 26.7957 20.1678 26.7781 19.9836 26.857L14.8426 29.0812C14.6263 29.1748 14.486 29.3881 14.486 29.6249V38.0248H13.3987C13.0714 38.0248 12.8054 38.2908 12.8054 38.6181C12.8054 38.9454 13.0714 39.2114 13.3987 39.2114H38.6014C38.9287 39.2114 39.1947 38.9454 39.1947 38.6181C39.1947 38.2908 38.9287 38.0306 38.6014 38.0306ZM33.8052 21.5289H34.1092L34.9422 30.1217H32.9722L33.8052 21.5289ZM15.6697 30.0194L19.6241 28.3096V29.8791C19.6241 30.0896 19.7352 30.2825 19.9164 30.3906C20.0976 30.4958 20.3227 30.4988 20.5039 30.3994L24.0696 28.4178V29.8821C24.0696 30.0867 24.1748 30.2796 24.3502 30.3877C24.5256 30.4958 24.7418 30.5046 24.926 30.414L29.009 28.371V30.8203C29.009 31.1476 29.275 31.4136 29.6023 31.4136H36.3714V38.0365H15.6697V30.0194Z" fill="white"/>
<path d="M23.3418 15.0959C23.4821 15.1924 24.8207 16.0341 28.7693 16.3322C32.2649 16.5982 33.393 18.3811 33.4427 18.4658C33.5538 18.6529 33.7496 18.7581 33.9542 18.7581C34.0565 18.7581 34.1588 18.7318 34.2523 18.6763C34.5358 18.5126 34.6323 18.1473 34.4657 17.8667C34.4101 17.7702 33.0248 15.4671 28.857 15.1515C25.2299 14.8767 24.0111 14.1197 24.0052 14.1168C23.7334 13.9327 23.3652 14.0028 23.181 14.2746C23.0027 14.5435 23.0729 14.9118 23.3418 15.0959Z" fill="white"/>
<path d="M28.4682 32.793H18.3877C18.0604 32.793 17.7944 33.0589 17.7944 33.3863C17.7944 33.7136 18.0604 33.9796 18.3877 33.9796H28.4682C28.7956 33.9796 29.0615 33.7136 29.0615 33.3863C29.0615 33.0589 28.7956 32.793 28.4682 32.793Z" fill="white"/>
<path d="M28.4682 35.2134H18.3877C18.0604 35.2134 17.7944 35.4793 17.7944 35.8067C17.7944 36.134 18.0604 36.4 18.3877 36.4H28.4682C28.7956 36.4 29.0615 36.134 29.0615 35.8067C29.0615 35.4793 28.7956 35.2134 28.4682 35.2134Z" fill="white"/>
</svg>
